<mxfile host="app.diagrams.net" modified="2022-07-23T13:23:00.886Z" agent="5.0 (Windows NT 10.0; Win64; x64) AppleWebKit/537.36 (KHTML, like Gecko) Chrome/103.0.0.0 Safari/537.36" etag="ERupwTHQ_mixn7KCOn1I" version="20.2.0" type="github">
  <diagram id="9vgqxowYdPU0mRZOQLkr" name="第 1 页">
    <mxGraphModel dx="1422" dy="754" grid="1" gridSize="10" guides="1" tooltips="1" connect="1" arrows="1" fold="1" page="1" pageScale="1" pageWidth="827" pageHeight="1169" math="0" shadow="0">
      <root>
        <mxCell id="0" />
        <mxCell id="1" parent="0" />
        <mxCell id="Cswv2nj_MvUbv_Mwxv9R-1" style="edgeStyle=orthogonalEdgeStyle;rounded=0;orthogonalLoop=1;jettySize=auto;html=1;exitX=1;exitY=0.5;exitDx=0;exitDy=0;sketch=1;fontStyle=1;fillColor=#ffe6cc;strokeColor=#d79b00;fontFamily=Comic Sans MS;" edge="1" parent="1" source="Cswv2nj_MvUbv_Mwxv9R-2" target="Cswv2nj_MvUbv_Mwxv9R-4">
          <mxGeometry relative="1" as="geometry" />
        </mxCell>
        <mxCell id="Cswv2nj_MvUbv_Mwxv9R-2" value="生产者&lt;br&gt;（Producer）" style="ellipse;whiteSpace=wrap;html=1;aspect=fixed;sketch=1;fontStyle=1;fillColor=#ffe6cc;strokeColor=#d79b00;fontFamily=Comic Sans MS;" vertex="1" parent="1">
          <mxGeometry x="50" y="220" width="70" height="70" as="geometry" />
        </mxCell>
        <mxCell id="Cswv2nj_MvUbv_Mwxv9R-3" value="" style="edgeStyle=orthogonalEdgeStyle;rounded=0;orthogonalLoop=1;jettySize=auto;html=1;exitX=1;exitY=0.5;exitDx=0;exitDy=0;sketch=1;fontStyle=1;fillColor=#ffe6cc;strokeColor=#d79b00;fontFamily=Comic Sans MS;" edge="1" parent="1" source="Cswv2nj_MvUbv_Mwxv9R-4" target="Cswv2nj_MvUbv_Mwxv9R-5">
          <mxGeometry relative="1" as="geometry">
            <Array as="points">
              <mxPoint x="320" y="255" />
              <mxPoint x="320" y="215" />
            </Array>
          </mxGeometry>
        </mxCell>
        <mxCell id="Cswv2nj_MvUbv_Mwxv9R-26" value="Bindings" style="edgeLabel;html=1;align=center;verticalAlign=middle;resizable=0;points=[];fontSize=1;fontFamily=Comic Sans MS;fontColor=#FF0000;fontStyle=1" vertex="1" connectable="0" parent="Cswv2nj_MvUbv_Mwxv9R-3">
          <mxGeometry x="0.2444" y="-2" relative="1" as="geometry">
            <mxPoint as="offset" />
          </mxGeometry>
        </mxCell>
        <mxCell id="Cswv2nj_MvUbv_Mwxv9R-21" style="edgeStyle=orthogonalEdgeStyle;rounded=0;orthogonalLoop=1;jettySize=auto;html=1;exitX=1;exitY=0.75;exitDx=0;exitDy=0;entryX=0;entryY=0.5;entryDx=0;entryDy=0;fillColor=#ffe6cc;strokeColor=#d79b00;sketch=1;" edge="1" parent="1" source="Cswv2nj_MvUbv_Mwxv9R-4" target="Cswv2nj_MvUbv_Mwxv9R-16">
          <mxGeometry relative="1" as="geometry">
            <Array as="points">
              <mxPoint x="280" y="255" />
              <mxPoint x="320" y="255" />
              <mxPoint x="320" y="315" />
            </Array>
          </mxGeometry>
        </mxCell>
        <mxCell id="Cswv2nj_MvUbv_Mwxv9R-25" value="Bindings" style="edgeLabel;html=1;align=center;verticalAlign=middle;resizable=0;points=[];fontSize=1;fontFamily=Comic Sans MS;fontColor=#FF0000;fontStyle=1" vertex="1" connectable="0" parent="Cswv2nj_MvUbv_Mwxv9R-21">
          <mxGeometry x="0.3639" y="-1" relative="1" as="geometry">
            <mxPoint as="offset" />
          </mxGeometry>
        </mxCell>
        <mxCell id="Cswv2nj_MvUbv_Mwxv9R-4" value="扇形交换机&lt;br&gt;（fanout）" style="rounded=1;whiteSpace=wrap;html=1;sketch=1;fontStyle=1;fillColor=#ffe6cc;strokeColor=#d79b00;fontFamily=Comic Sans MS;" vertex="1" parent="1">
          <mxGeometry x="180" y="240" width="100" height="30" as="geometry" />
        </mxCell>
        <mxCell id="Cswv2nj_MvUbv_Mwxv9R-5" value="" style="rounded=1;whiteSpace=wrap;html=1;sketch=1;fontStyle=1;fillColor=#ffe6cc;strokeColor=#d79b00;fontFamily=Comic Sans MS;" vertex="1" parent="1">
          <mxGeometry x="420" y="180" width="20" height="70" as="geometry" />
        </mxCell>
        <mxCell id="Cswv2nj_MvUbv_Mwxv9R-6" value="" style="rounded=1;whiteSpace=wrap;html=1;sketch=1;fontStyle=1;fillColor=#ffe6cc;strokeColor=#d79b00;fontFamily=Comic Sans MS;" vertex="1" parent="1">
          <mxGeometry x="440" y="180" width="20" height="70" as="geometry" />
        </mxCell>
        <mxCell id="Cswv2nj_MvUbv_Mwxv9R-7" value="" style="edgeStyle=orthogonalEdgeStyle;rounded=0;orthogonalLoop=1;jettySize=auto;html=1;entryX=0;entryY=0.5;entryDx=0;entryDy=0;sketch=1;fontStyle=1;fillColor=#ffe6cc;strokeColor=#d79b00;fontFamily=Comic Sans MS;" edge="1" parent="1" source="Cswv2nj_MvUbv_Mwxv9R-8" target="Cswv2nj_MvUbv_Mwxv9R-9">
          <mxGeometry relative="1" as="geometry">
            <mxPoint x="510" y="225" as="targetPoint" />
          </mxGeometry>
        </mxCell>
        <mxCell id="Cswv2nj_MvUbv_Mwxv9R-8" value="" style="rounded=1;whiteSpace=wrap;html=1;sketch=1;fontStyle=1;fillColor=#ffe6cc;strokeColor=#d79b00;fontFamily=Comic Sans MS;" vertex="1" parent="1">
          <mxGeometry x="460" y="180" width="20" height="70" as="geometry" />
        </mxCell>
        <mxCell id="Cswv2nj_MvUbv_Mwxv9R-9" value="消费者&lt;br&gt;（Consumer）" style="ellipse;whiteSpace=wrap;html=1;aspect=fixed;sketch=1;fontStyle=1;fillColor=#ffe6cc;strokeColor=#d79b00;fontFamily=Comic Sans MS;" vertex="1" parent="1">
          <mxGeometry x="530" y="182.5" width="65" height="65" as="geometry" />
        </mxCell>
        <mxCell id="Cswv2nj_MvUbv_Mwxv9R-16" value="" style="rounded=1;whiteSpace=wrap;html=1;sketch=1;fontStyle=1;fillColor=#ffe6cc;strokeColor=#d79b00;fontFamily=Comic Sans MS;" vertex="1" parent="1">
          <mxGeometry x="420" y="280" width="20" height="70" as="geometry" />
        </mxCell>
        <mxCell id="Cswv2nj_MvUbv_Mwxv9R-17" value="" style="rounded=1;whiteSpace=wrap;html=1;sketch=1;fontStyle=1;fillColor=#ffe6cc;strokeColor=#d79b00;fontFamily=Comic Sans MS;" vertex="1" parent="1">
          <mxGeometry x="460" y="280" width="20" height="70" as="geometry" />
        </mxCell>
        <mxCell id="Cswv2nj_MvUbv_Mwxv9R-18" value="" style="edgeStyle=orthogonalEdgeStyle;rounded=0;orthogonalLoop=1;jettySize=auto;html=1;entryX=0;entryY=0.5;entryDx=0;entryDy=0;sketch=1;fontStyle=1;fillColor=#ffe6cc;strokeColor=#d79b00;fontFamily=Comic Sans MS;" edge="1" parent="1" target="Cswv2nj_MvUbv_Mwxv9R-20">
          <mxGeometry relative="1" as="geometry">
            <mxPoint x="510" y="327.5" as="targetPoint" />
            <mxPoint x="480" y="317.5" as="sourcePoint" />
          </mxGeometry>
        </mxCell>
        <mxCell id="Cswv2nj_MvUbv_Mwxv9R-19" value="" style="rounded=1;whiteSpace=wrap;html=1;sketch=1;fontStyle=1;fillColor=#ffe6cc;strokeColor=#d79b00;fontFamily=Comic Sans MS;" vertex="1" parent="1">
          <mxGeometry x="440" y="280" width="20" height="70" as="geometry" />
        </mxCell>
        <mxCell id="Cswv2nj_MvUbv_Mwxv9R-20" value="消费者&lt;br&gt;（Consumer）" style="ellipse;whiteSpace=wrap;html=1;aspect=fixed;sketch=1;fontStyle=1;fillColor=#ffe6cc;strokeColor=#d79b00;fontFamily=Comic Sans MS;" vertex="1" parent="1">
          <mxGeometry x="530" y="285" width="65" height="65" as="geometry" />
        </mxCell>
        <mxCell id="Cswv2nj_MvUbv_Mwxv9R-22" value="扇形交换机，只要与交换机绑定的队列都能收到消息，也就说只要消费者生产消息，消息会被推送到与交换机绑定的所有队列。" style="text;html=1;strokeColor=none;fillColor=none;align=left;verticalAlign=middle;whiteSpace=wrap;rounded=0;fontStyle=1;fontFamily=Comic Sans MS;fontColor=#FF0000;" vertex="1" parent="1">
          <mxGeometry x="40" y="140" width="350" height="30" as="geometry" />
        </mxCell>
        <mxCell id="Cswv2nj_MvUbv_Mwxv9R-23" value="" style="shape=image;verticalLabelPosition=bottom;labelBackgroundColor=default;verticalAlign=top;aspect=fixed;imageAspect=0;image=data:image/png,iVBORw0KGgoAAAANSUhEUgAABW4AAADKCAYAAAA1gdlBAAAgAElEQVR4nOzdf3zT1aE//lc3mJX5lboLmPpRMFj2WRkoBbyPphO9pNQ7gngv6fBKO1BI9Q6K3qstKLYyByk6aPGqLeyjLThYwq7YcqdrulkaLsMlfEdpQFy7r7AGwdGs5bOGh2CzW9z5/pF3knfSJE3Spk3b1/Px6ANO3r/O+8c57/M+7/M+J0kIIUBERERERERERERECeMrwx0BIiIiIiIiIiIiIvLHilsiIiIiIiIiIiKiBMOKWyIiIiIiIiIiIqIEw4pbIiIiIiIiIiIiogTDilsiIiIiIiIiIiKiBMOKWyIiIiIiIiIiIqIEw4pbIiIiIiIiIiIiogTDilsiIiIiIiIiIiKiBMOKWyIiIiIiIiIiIqIEw4pbIiIiIiIiIiIiogQzLtoFTp48GY94EBEREREREREREY1q8+bNi3hetrglIiIiIiIiIiIiSjBRt7j1iKZ2mIiIiIhoOJw8eZLlViIaczxfyjL/IyJKHLH0YsAWt0REREREREREREQJhhW3RERERERERERERAkm5q4SiIiIiIiIiIiIiGhw/OlPf/ILs8UtERERERERERERUYJhxS0RERERERERERFRgmHFLREREREREREREVGCYcUtERERERERERERUYJhxS0RERERERERERFRgmHFLREREREREREREVGCYcUtERERERERERERUYJhxS0RERERERERERFRgol/xe11B6wHylCgnonUpCQkJSVhuioX63fUoc0Z960POutW9z6UHR/umBARERHRoDlehqSkJCQlpaL0iCv4POdqsEQqz+YecAxt/IiI4sIB4yPufC1JUwN70HlcMG9MlfLIMliHOIZjkxVlSUlI2sqjTTTWxbfi9nwdCtJTkZVXipojbfAUb+3H61C1MRcz07NRdjxEwZiIiIiIaIgpFEDZDkOQygsXzHtKYRqGOBERxZ1CAUVDKaoagzyfnzOgYgdfVhERDYf4Vdy6bChbkYuac4DqqWpY7D0QQkAIgZ6uVtRv10LpMKN0mQ51n8UtFoNO9aJ7H0oyhzsmRERERDTYdFv00ASrvDhnQMXLqSjfXjI8ESMiiqcFpdBvACpeDXxxJb20Wl2O8uXDFDciojEsbhW3zoYqlB4HVFssML+ug+rOZO+05Enp0GyoRZMxDwqHEfoDNmmKHTWa0J9oOA8VIClpLipOyX68aodpRwGyZ0ufbszIQsEOK/x7YZA+/3jECLuzDXVb8zEz1f0pXNkh9ydvS/YG3SLq1iQhKaMCnhg6DuQiKSkXxsDK5gjiYXt1LpKS1sPkFzkbKjKSkLTO5B/nUxWYm5SE4mBvPImIiIgoLm6cnY+iPpUXnoqLUugW3BhiSSdse4uRq5ruLgumzsSSjUa0Xe07X9uhMhR45kuajqw1xag54oBfqc9hRtW6JVKZNQmps5dg/Y462C77ZrEfXI/cB7MwXeq+wb2uMtR9HLw/MseRKqx/WOq+LHUmlmysQcWTwT99dp03oWJNtnf701UFqPgwyHojiCcRjQS3QP1kkBdXnpdWT2uRGmLJwc0vIsgjnVZUrMn2PXt71vWGGY7rQSLobEPd1gJkzZDF761SZAft9ibSvDwEqdudsuNSnquR1rOqDg5EmG9/ZkRuUhZKAWBzlncfA+shnM01KH7Es65UzHy4GMY/9K0/8Mv7k1Ix8+H1qDhkgzPYsSKixCOi1NzcLJqbm/uZq1vUr4UAdKK2K9x8LaJ8DgQUetEi/dK+RyOADFFuC5y3XVQvhsDiatHu+elzi9BnQgB9/xQra0WHd9kOYVgOgTlqoU7zn09vldY7p9wbB6+z1UIDCM2edt+ajFoBaIXhomy+SONxrEQAECXH/LehBgRQKOq7RcB2/H8jIiIiouj0X26VWPVS2VBIZUCFKPqgxz3tbLXQeMqn0nxaY4ds4XZhWKkIWhZEpl609Hjm6xEt21TB55OXLy/WijxF8LIltli8W7VsCTEPVH3K0u3GPKEIOi8EoBcW2bw9Vr1QBZ1PIfLeke13hPEkoqEX2XO7EN5n5eUG0SF6RNMGheyZu0c0bVIIrK4V3Z754ppfRJpHGoQ2RH6mWFsv/B6hwzyrx56XhyHdI1QL1f557nKD6BAR5tsh9893DELn6SqhP+GLaMc7ofN+vTWC/SGiQRVJ3vzZZ5/5/cWpxa0dtkMAlqmRMSncfBnIWgrA0YI26c2RcqkOOthgaLT5z3rOjLoGQPdELpQAABfM27QoPa5CobEF3T3uLgxETweatmmA/XoYTvmvAqdagaUGtHT5um0oyVQi9wkdcMoAc8D89mN1MEEH3VJlmH2IIh6zslAIwNrma79hP2KEebkWWlTBdMzpXWerrQ5YloX0lHDHj4iIiIgGXZq81a0L1gNV7ta2c4LPbt+7Hvn7Ac22JrR/LpUFe7vRYiyE6ngpqhqkMp7LAsMLVuCpWl+ZsbcHHW31qHxCCc/3afaGKhgdalSekHU11t0Oi1EPre8jNm8XXvK/nov1KJpjRXmDrCx9rgbr84xwZBbCYOv2zdvRiuonAnbGZYZ+WSms0rw93vU2Qb8UMG4zeL9EizSeRDRSJPu3uv2sDlVSa9ugj6WDnV9EmEfi9jzUBuR9orcbLbu0cOw2wOxtROt5VldAs60JHd5n9W60f1ACdcDuRJyXR8B6MQXF5nb09ErreScPCkSYb9+eh1phgR4Atlhk89Yi73Z483Qs1aNJ1iVlt82AwkwrSnd5vua1o/4tIxw5lWjx7I/oQbfdAsMWLZhNE40Q8agdFsIi9LK3SmHn3BLw9szzVk9RIppkb7Ratmf4/9bTJIoAkbG9TztZIYRFlAAiY6dnmvR2cJnB11pXrqdJlCggFJuahG+T7tbA/r8FaXEbSzy8rXDdrX21xnbRtAECGzzbcm/btxwRERERxSKmFrdC+FrdvlkptPKvwfq0uG0X1TmQWqQFaheGZRDwtgBzlw2xvFK0hvmqqn2fVgAZoui9/krSQnS31YvqFwuFNkct1JlKX2sqWauz9jfVIb5o85TFfS3oej4oCjmv++sx37Ro4klEQyu2FrdCCG+r23JR/WKGLG/r2+J28POLyPJI98Y7hMVYKYpWq4U6Ry3Sva15ZfGRntWD5s9Sq9bY8vIwpHuE31e2ASLJt711KkG+XnDn6cG/bnYfZ8+Xu1K85xSJembTRAkhlha34+JTHZwMKABcB3r6m7W377Lqh9dD8XIpTMdKoc5JBmCD2WiDYnU5sjyvhS47YAdg2zgXSRtDrPtqQP8u44CgvZIlq7FknQJlm02wbFZDnQzglBmGUwrodmaFfxMVVTwUUOWogSdbYN+nheKcGXUNWuS/qUTWpCLgQRMsW9RQO+1oOaVA7u6McFsmIiIionhJy0fRhlJkP7keWF2LmhCtbQEHHI0AkItb9oaYZblT6ptRBZ0xDzV56zHzoB7pC2cia74W6sVqaBakI0UqmSuXFUOfmYXSh1NRkaaCOmMuVIvVyM3RION2b7tcmJ7Ox5I3AnunlVx2evuDdDjMAPTICrkPPs7LdgA2FGckoTjEPC5XNPEkopFFanU7owAFDRkot4VobYt45BeR5ZGuUxXIXVwMU2D3tAAAm3ebnmd1bU5WyH3wiSYv79+NQWtaIs+3w3Hn6UDu5JoQc2jhvAogRQntRj1UqlIsSa2AMlONjAwVNDm5WLI4Awpm00QjQpy6SlAiYxmAQ+Z+BiawwfI+AMVcpN8u+zlTg+I5QMUBdxN/15FalJ/KQPEj6rg151ctLUYGKmBscAJwwfxOOWxzipG7cHC3qJythgImWE4BjhMmmJbnQn07kLxAgyJUwHTMBdcZC4zIRca3BnXTRERERBQxqfICqtCfCcdAucIA+8UW1O4phuZOoPXQeuSrZyL9wQrYPE/sN6lQcqwbrWYDKlfMRcplM2rW5GLuHTNRcMhdU+E6UgPdG1YolupRa2tHd3e39EluBwxDNfJ7BPEkohEoLR9FGxRQrNWH7CImahHmF/3nkXYYXiiGyaFC4Z4mtHZ0o7tb6i7Aqh+kyMbHcOTbyZklsHS1oslYibyMFDiP1aBAOxepswtQFzjgOhElpDhV3KYgK0cHoAblu60h3xrZD5Sj/BSQ8awG/m1LM6B9WgPsNcD0mQuWxho4FhdCK79pTFJACUD9ZnufPmK8fy+qIo/yHC0KFwM1B0xwuCww73VA87QW/bZ5jTYec1TIhw2WNivMh+qgXaaGAgCSs6DZAFQ0WmD72Awsz8Jc9m9LRERENHzSdKgXFhSFrbhQQJEDYEOTt3/HPn9S34YeybdnQLu6COV7mmA5K9C+RwvHkWLUNMr6TxyXgvSFeSjcUolacys6uptQMseOmi3uPiOdjjY4oEXF6yXQzlEiJSUFySG+pUsepwDQAnsED+kpk5QA1Kg+G2JfhEBJpmyBfuJJRCNRMtTbO9CxSxP2pVW88ovweaQDjgYAL1agcrUa6YoUpKSEaGw1LhnJACzn7MGn+4k+L49WNPm2V58vlAGFQg2gCE09oY671Beux6R0qFcUQr+rFk1nOtBtLkHGuRroDzKXJhoJ4lRxC6QsLoQ+E7BuzoL66RpYz/uqb12X22DakYvsPCMcijyUruhbPeoepKwOhr0VML7skA1KJknOgmaTAubNBSg+YIPjqm+Sy9EG84EylEX1pl8apOygATU7jChz9DcoWYzxSJ6JrJVA3aFy1B7UIneBJ+tPRlZOEbC/CuWNNqhzVAO6KRARERHRUFBCvUID7ChA/g4z7E5Zmddph+1QFQp2Sw/Hn9Wh+MkqmP7ggOu6dy7ccnu6X2MB645clB2w+q0L41KhnCGbaVwyAAvqj9m9jSRcl9tgeqMUNcf8Y5ieqYMCdSjfVoc2T1n1qgO2Q2Uo3+c/b/ICDUoUZpQ+WQzjKVk8r7vg+IMZxq1l3lZaEcWTiEatQc8vIsojpW4ZG80we77uve6C/bgRZTsDug5QZEC9GHBs1qPiuKcbAhec582o2lIDi9/MUeTlsYoi3/bu5/v1vv30xHRhHjSoQMGqCpjPy7pXcDlhP1WHqierpIpwKyoeKYPxuB3yw56cqkQENR1ElCji0ZGul71W6NLg62w78E+hFnprT4iFu0X9Ws+8ns61A3xuEfrM0Ov3dTQe2OF6qE3Wi8KgHYP79BmcLKp4uLk7Ew8SH+/2Fb6BMYiIiIgoZjEPTtbPfP7lu3ZhWKkIXeb1DC4jDYYTdJ5MvWiRisXuAcOC/SlE3jvSdrvqRaEiyDwKlVDNCSxnhoqfQigU/oMNCSFEj1UvVKHiKSsHRxRPIhoWsQ9O1s988cwvIswjW3aqgs6jylT1ycdDxk+hEIpY8/Jwwt1Losq3pUHbQxzPdmOeUIQ87p5zJA1wFnT/80TtxSBxJKK4imVwsri1uAUA3KlFdVsHmvYUQbcw3duCVJmpReH2WrS2NaEkM1QfsilQLy+BAoBikxbqYN9o3KRCybEONL1eCG2m552RAulLC1FutKBqWZRtVlPU0G5SAFCgZLk68r7MooyH8l531xCaxQGtalOyoFkLAPlQDVZfQkREREQUZ0rk7WtDa50+oMyrQ9GeerSulbrNul2LKnM1ilarkS7NpJilhm5LLVobSpAhFYtVa1tQu11erlRCtbwQlWYbDMulBSdpUGmtRdFSaXtpKvd62gxY36fFqxJ5u8wwbNBI23WXUyuPtaFuXd+9Sc4sgaWjCZVrtVClST8q0qFZWw6DtQra26OIJxGNaoOaX0SYR2Y8Y0LL6zppe1J+Zu6A5dUlQeNnOlYOnWe7nrzySAWy+swdYV4eq6jy7WSoXwjItxemI+UmKU4rDGg7Uwu97FghTQXdhmrUtxXCHVMVCm21KJefmzQVtGsr0WQzeM8NESW2JCGEiGaBkydPAgDmzZsXlwgREREREQ2WkydPstwakh1G7XTkjzOgY4B9NxJRYuFzez8+LEXSgjLorQH98BIRxVEkefOf/vQnv3B8W9wSEREREVHicTlhe6sURYeADFU6K22JaMxwnTehdEMZgEJkfGu4Y0NEFF5/YxgSEREREdEIZ92ahKzNQSZk6lH3RN+BgomIRoXPjMi9Ix91fSYokGcsgibi/hGJiIYHW9wSEREREY1yijt1UMv6bPT2rdhQAtVNwxkzIqI4ukmBucvVvj5evX3i2mBYoQy3JBFRQmCLWyIiIiKiUU65shpNK4c7FkREQyxFjZJ31CgZ7ngQEcWILW6JiIiIiIiIiIiIEgxb3BIRERERERERERENs//1v/6XX5gtbomIiIiIiIiIiIgSDCtuiYiIiIiIiIiIiBJMkhBCRLPAyZMn4xUXIiIiIiIiIiIiolFr3rx5Ec/LFrdERERERERERERECSbmwcmiqR2mseHkyZO8LogSlOdrCabRxMe8dGRgmho5mKZGBqapkYNpamRgmhp5eM5oIJg3jwyx9GLAFrdERERERERERERECYYVt0REREREREREREQJhhW3RERERERERERERAmGFbdERERERERERERECYYVt0REREREREREREQJhhW3RERERERERERERAmGFbdERERERERERERECYYVt0REREREREREREQJhhW3RERERERERERERAmGFbdERERERERERERECSbBKm4dMD6ShKQk6W+rdbgjFDXHgdzo4v+ZEbme+ZPKMPL2mIiIiIiGnhVl3jJkLoyfDXd8KDrDd/6ifl4ZQ6xbfc+iuQccwx2doeH3PJqEsuPDHaEhcLzMlwZGWf45WOk71HrkaSTpESNGdCq5XIcCaV+W7LUPd2xGAZZL4iUuFbf2t7J9iTmjArZgM7nMKPae1FSUHnENeLsshAwC+U0sThmx33kKsR35DWFMFB6IEkFAwb2/vzHzQJOo/B46gv3Fs8AkFcx4r42c0w7T3mIUPJiF6d5zNB1ZD+Zi/eYa1J1ywFcSGuyCr/+Lcd5XQwibplIxU12AsgM2OIc7nmOePH0Eu55HfkOQ0cCvcqffv1gbrzBvI6LY2d+vQQ0AQAfdUuUwx0YyBPUxNPLEpeJWuTAPGk/glAHmU33ncR0zocITUOigViUDUCDvHQEhpL8XVfGIHiWag0Uobxx4xT0REVEich0vQ3b6dCxZU4GaRit8bTrssDbWoWprAXIzClHHlgkJzIG2IzUozZuL9FVGsF0OEY0at+ehVviewUsyhztCQyCzxFfnIGqRd/twR2jkUL0oq695Jw+K4Y5QzGyoe90EAFBsyoNm0jBHhyiM+HSVkLYE+cs9ARsMjYFtbp0wH/JW2yLj2Vyok+MSExoRHKjYXBW8ZTYRDZ2AgrsQFuhlk/VW+TSB2hUjt6g2mmiNHX7nhQ8iCeayCcXLSmF2AIAKhcYWdPdK56inG62mSugWMi0lHj0s3rTUgw5TCTzNCRz7i1AzCF+KEY1mfpU7QqDDqPVNXG5Ah9/9ype+iIiGgutILcpPAUAGih9Rg9VRlMji1MetApoVOm/IttPk//mL0wLTbk8gA/k5Gd5JofoV6tMNgsOMqnVL3J8bbv0ljI8kITWvzreNzVl9PpEK3ZVC6M9snMdrULouF9nqmUj1+1wuF+vfMMNxfcAHy991B8w7CpA1w72t6aoCVDUH+yjPibZDZSiQxSt1djYKthphDdae/roD1gNlQT7RLEDxXjMcLunYq0p9yxzM9+1zvJrpry5EoQLA8WLoI/ns+pwJFRsLkO23H0mYrspGwdY6tAUcqmDXTcUaadnUmcjfaoL9OuA9nqrp3uNe8WHw425vqML6R2Tbn5GFgq1G2C4P/HAQjSwumF9I9aaxuTsCXr/4dYlTgLrLCOiOoRSmj+tQ5kmTSamY+XAxjH8IViHCtDcgV+0w7ShA9uxU37HbYe3zybf94HrkBt4n1pSh7mPZnJ8ZkZuUhVLA/17r/aQ/dDcKnjxZfp91/5YL43l3PpwvxTH1Zd/15DpvQsWabMxMTQqfR0tlA898qbOXYP2OumG9RhxHDKjy3N6W6lC0IgMp46RwcgrSFxei+gMb6jelun87XoYkz/EFANQh/47AY2yHaUcxCh7M9pYXPOc1O+j5SkX+Qd9PpaoQnxY7rDBulV0nSamY+fB6VDXYMbarKZOhWKyDLscTdqDNEXj9RZFHRVmWAeAuH76xHks86WP2Eqx/w9y35a/LjNJUzzrnoiLgqzdXY7HvellTN+a6fQhbLkyajqw1VbAFHJTYngU814Mv30pKnYnsR9ajqtHRT3qyw7jKd29NDWzhHWU6dfrdZ915uiFwJxOMO84Bx25NGYzHZc8KEeZtQ/4sNyKF6p4n4PfzTrQdKPbLh4oPhfj+wHOdSs9WvjwuME+M4pk2cGwYv+fmVMzMK4PpvLRW+XUfrMwTcpyZWPfZ/1kyaUYWctdVoezJ4HUbgyX69D3w8nTQOpVzNVjiPW7rYQqIgnWrL0/Lfkt+/CKPT/j6oGg7W3HCtL/MXb+xuBDaOdEt7ThShfUPS9eslD9VbMzue1zkWzxnQtW6XFm5zX2+jLK6nqGqj0m4+xr1T0SpublZNDc39z9jd70oBAQAASiE3iqbVKeTfodATrVoly1m2QLvNK2xw/t7h1HrWyZTLdQK33zY8r4wLJeFA/+2WPquQ/pNWrvf8vK4+i0T7C+zXLSIEPP7bSOEiwah9a5PKZRpwbajEdVnZct83iLKlypCx0mhFnprj2x+i9AvDDM/tMJw0f/Y9/lbbhAdfSLvL6LrIsgxan9TI8W7SDR97p5HHhf5+RBWffjzoSgU9V0htpWmFMogy2RsKBfly5X9H3fRLmpXB5vPs+08YbBHdAiIhlzEebcfi9AjRFr0sOqFwjPPHP/8sOeDIl/62NAkeoQIyPNC/alEuU2+kbGV9iI+T1J+KL9XBvW5Regzgx87xcpav7w99H1Adk5CnkP3vcR73QS5B3ry5L732QyhXhhwjqXle6x6oQq6PYXIe0cW+4u1Ik8RIv6R3I+jFGma6ngnTxYXpdBurxWWtg7R3RNigbD3uYBjHPJPIQrf63avr5805zkXPVa9f9kq4E+1xSJCRTnRRZum3H964X/VtIjyOb7jUfSB/GhEmUdFWZbpvxwnvzaEsGzxzZux3S9XFk0bQu3D8Iv8PtXfvcm/XC9P/5GUC7HY/9kk2meBfs+Xt0wt3w/f+WvZqZKtWy8sn/tWHW06bX9HF3wfB5g/Rl+eCDiOIZ8rekTLTo2vXBEkb1Nvs0RUnvBcF9Gev1DPoiNRbGnKdy36/64QyrRg17WiT17S33XnTbPRPtNG8tw8p0iUb9cG3b5mT3uIdcnz+1j2uUdYtqhC70cU11M05fXo03d096pQ9RrBf28X1Yt96/KWQTzH1JtvyZ+vBxCfPvVBUeZjZ6uFRlpWV9fd//wy7ca8MHlU8PiEP1cKkWd0X5vDUh8TQb4Yz/vaWBTLc3mcWtwCSFFDu8ETcKDyPbNUC++E+f0a72yaFWpE3Q30bB2q23pkfeE+hLx3Aj7B2WIZpL5yb4F2iwEWe4/3c7luWzXyPF81Hi9G7YcDWL2fDBTu70CPEBC97aj2djdhQtX7vpZHtrcKUfy+9L5leSVau93xat8n9THjMKN0bQWs0msPx/vlKD0izZ9TiZbPpePS24N2Wy3KV9yCZEifNFllH0bLP2OKY/81ypWl0M8B4KhA6Vv9d5igfqIS9W3d7uMkBHrs9b6+mBxVqGkI8f4moxCGDvcy3eYSeNp523YY0LG8Cd1BjrvxiG9dtlfzkSuNNqnZbpE+de1G6y7punMYUfSmeYy3SqIxJ1ODYs9b6lPlMHlb78m7xFGgZHFWkE+QtKi0dbvzmO5WVK/05DJWFL9p8raMYNoLry7P9wa7b+tXF8zbtCg9Ln2i3+P5RL8DTds0wH49DLIWeYGftgoh0HOxHkVzrChvkPLn2/NQ6+lGQ36vHVDXDDa0QguDzZe3ixdVgMsM/bJSWDML/ab1XGyCfilg3GbwdrNjb6iC0aFG5Qlf+aCnux0Wox7aYfz+TaFaAl/pxI66jbnISk/FLTdKrYo21sB0TtY0JbMkoJsSLQwXgxzjhTpUmlp95/TzdtRv8n7Mj6q9JndrhtvzUCs6YFju24S825OSTPh35zCnELVnpWPYUY8iKX1bN+thODf4x2dEcDlhe6tc+qQSQKYe+Qt8F1UseVQ0ZRnbW0W+clym7Pz0NKEkSHRVS4t9ZRz5V29OM+p2SP9XlECzYIx/GJpRCMNF6Vjaq33ptKEKdX4tlaN5FnDCtFErO18lqPdso7cbraZyaG8KHSXX8TIUPiudMUUeDAdKoPLMH206vWxCxdM1UqsmBTQ7Ld5uWtrf1CIhnapC4bMmqVWZFpVn3GWEnrMG6Xg7YH6hEBXHXZHlbQCG9lluNEuFdpvZm781vejJZRyoOGT2tWY9VYH8R3zXXd6bvu6Bei5aUP2M2rvGaJ9p/bmfm91lyCaUeMuiFTB05aOpW7rW9/iuddOBIF8pDMI+u47ood3syWlVKKxrl/L2HjRtimqDkYshfce3PK1E7hO+L66rGiy+a+K4GZWepqKrdchNG4T49KkPiq6+x3aoCiYAUJQgb3FK5Aueq8H6PE/L1wjzVXmaWFwOS5dUH3GmUrrvOGB8tgZm11DWxyTIfY0iF1U1r4iudrjHXOJ7G6EoEU09QoiuWqHz1sIHtmiMsMVtiDcq/c0TS4vbUCwvxh5PPyHf9gnRvi/YuuRvrAJbSwSf1rJN9nZEoRH6Ooto7egWPb1B4iNvBRLBWx25WFvcCiFE93uF0rXSt/VvJOcj+LEKdz4soiTI26DQy7TIjm2R+1r28GtdHthChygxxK3FrRCifY/GO49ik9SyVp4u5C1xw+R5fi10USJNG3tpL7bWgYF/Ur7W0ySKENjqzsOdD2bs9J/W3VYvql8sFNoctVBnykmfzR8AACAASURBVFpCrK0X3bJlQ7Wqja3FrTZoq2n3NZER0AJbcqzEb5r7PpAhit4bmhZS0aSp7g9KwraSAxRC/WJT3+Mb5B4Vlj1U+gpfzpG3Cla/2e43rWVnRtDyzkgyOGlKyuMWlogmeWvYQcyjIin3+bcMCnWdyFs+KUSJ2R2p7vcKvesJnicMryFvcRvQEs2wbBCeBfzucSHyrqD7oRWGYwbZVwMq/5aGIvp06revcwb4hWCAeLW4lbcW936pE3Za9M9w3vWFeJZji9tQLW4D7kXHSoKeT7/ztLpWhG7LGP0zbbgyZKjzGXKZiFrcRrjPsm0H7nO011PEX/NEnb6jv1dF1+I2cD2For7bcwx814TvHjZ48YlaT5MoUcR2L/S7T0eYr8rrYvyv825RvzZI/jUE9TGhDPV9baxKrBa3AJIXLsF6T629owZmqwvOYyZ429vK3rgkMuc5M4xvuPuS8/QDkrU1/tu9cVyQHz+zo8XbuYkWc9PlrSWUUC7wheyX3e+5MhYX+zr8d5hQqs3CzNRbcOP4JEzXrEdV0L5ch1bKUh2KMwGgDkWvm9EdbmaHDXV7S7H+kWxv/3DTV9WFWyKoG6OZ+bM22XGvQPaNspZttyxBlXfGFtg5KjiNMcoFWmik/zteNsHiApzHTN50oXlai4xQC8skz5gra5nY5k5LTHv9Cj44mdQy87IDdgC2jXODtMrNQhkA21VPWwY7TE9n4Zb0JSjYWoW6RjPMx2VtUy4749uqOcg9z3nZDsCG4ozAuCchaUEZABtcUqSUy4qhz7Sh4uFUd1+vj6xH6d462D4b/rbYKTl6NNk7YDGWo3C5Gul9mkw4YN6aj9KGKO7H1x2wHZL6KPP0davMR/R3Q8D+B6P3/+Ynp/sd57nP+r6EqTs31nsk06Jijx5q+cjTseZRkZZlAsp96oxIWgYpoV7uzZVR1mCBC05YGry5MgqXRZIrjyU3Bs2DPCJ+FvjMLkuDGmRF3G+iHeVP5cPoOdfL1iMv079FdLTp1H5Odj0tzYroPjy8HLCf8fXgqM2Y6feljjItyxc474iqf+bhepYb1cYFe5IKOIcLMxAyx4rhmTas8f3PMmCh9vkPvlDYfR5EUafvoShPp6ih3eQp4FTBdMwJwArzLmnD8tatw1i+dzYYUeYAAsdaioTjfLT5qgNtNl+aqHjwRlnefQuW7PbN2WKPy4hCISXCfY0iF6aIMhhU0DybgdKNNrgLjgYoz/u6SdAtVQ9JxhY7F6wvL4H2BXN8BuYaKnOKYDoGFG+oQs1x/4cue0MV1je0wHnCjJL5w5mQMlC4pQjlD1bAsaMU+szgc9kPFiDb+/kNESWEtFzoVhfAtBcAKlDXqIPzkKfIpUV+ToQd4jg7ZGk7GcnjAHDQkCHjOlID3RtWKJbqUbUlD+o7b0HyTSlIHueA8ZFU5A93BPtzkwolx7qhPWaC+YgF5g/NqFlThTIooauzoHpZvDr8iVCyAqoVRVCtKAIAuJwO2K01KF5TCpMDAByoam5D5eIIPvc7X4eCnFzUjNWuC4aEHhZRAtW5GiyZUeD+pBJ1KNpshGpfXvTdfMkMqCwTYclduVQHHaTGEjvqYF7jRJ3nAXF5PpaMgIYTg0UxbiDl26F6FrDB5lBCqbDD7gBwqAilB9UwLB+kfGsoKrUS0ih5lqORI2jlbpwlTPpOhvrh9VC8XAoH3N0l6CfbvN0kKFarkTXs9XZ21L4l1UfFMCiZn4Q57tEaJfe1MSauLW4BICMn3/cmYkcBCrwjfxZF15/IYPu8p/+WQ6eqUOi9oDXQm9vR3e3uz8OyJe4xDO52JeZ6r/U6tJ6XT7TDfswXUk7yHd+U+4pQbW2H+LwbHW0W1BtLoPGux4rKxra4RjsSyTnFqFgOAFZYjweZwWlChfdBJwOF+1rQ0e3uH86vf+N48DvuOtR29e0H0q+VG9GYkgKNVBkFAFW7i1GzVwqszocmwjThtLd5+yvFnLlQKsC0N1CTFFACUL/ZHuK4+foFczra4IAWFa+XQDtHiZSUFHfleTi9wX5MBhQAOroHPGJ9yiQlADWqz4Y67/J+DAGMS0H6wjwUbqlErbkVHd1NKJljR80WX1+4Q81xYD3WBxmBOjlFgfTFJSh9wvdbZBVMTpi2+yptM9Ya0NLR7e7r9qIBsdwNlWm+pTK2t/R7rYwpaTpUGn39yjn25yP/ZZuvDBltHhVtWUZKw26B5b4wJmmQ5x1rogpVz9Z4v3jTrdDEbdyCoaGEUtavqflMYPrqQY8s81Gnpca+qWifBW5XytKgCZZTQeYJKgMlB1vR8mahdG4cMD5dhDpZS7No06lC4etLFDb7CGj0oIBytu/KrGsLaGxyzuIL3KmIrPFPIj7LjWoB5/CILXQ5IMZn2sSTAsWdvlDgdRsvUafvoSpPy8e+2F2H0n2VUvrLQPEjal8r+uEq35+qQ1WDtNUncqN+CRt9vuqfJnR13SHz7toVQ3RnTqD7GkUu7hW3mKNFYU7fnxWbNIP+xiX5JlnBrK4e5oA7hfsBULLfBPNl939d51vQcjbICl0uWSVCBlQZSqSkJANX7bBfHMSIR0UFzUbfg1PNmzVocwKAC/b9lb6Ov+fokSsNOmF9ORsFb9TBdt4J100pUHxLBc2yXGhm+9aadad07JKTfRXtB2tRH+kDwqBQIO+FcoR8LLzqRIc3oETGggwoUlKQ7HLC/lm8u3uQH/caFD5bBet5WdX/VTtshyqQP7vMNwgI0RiSvECDEk95o8EktU5ToGSlJszDVQ96pBa1rs9MKN8uG7hynad7Baa9AUnOgmaTAubNBSg+YIPjqm+Sy9EG84EylB2SbhzjkgFYUH/M7q2Ucl1ug+mNUtQc67Nid+Xs+/Xee6lPKtJzAOyugeFjKW92OWE7VIbCzdF9yO++rswofbIYxlMOuDwtsK+74PiDGcatZd4CoHVHLsoOWGF3yq6PcalQzohqk3HQgSrtdEzXFKPmSJvsHLjgPFWDyrc8YRWKF3vuwMlI9rYCqUNto/zRwAWn7Jgr71UhQ5GClGQXnOc7QjwkJyNF9nl/rcnsN58iR4dCKf3aNhai9FAbfIfRBecfzKjZuAQFB8ZmmzXligpUrfQ9UFk9gyMBiDqPirYskzwX6rW+YM2bRtil1TtPtaAlZKyTkbW4xFtBa2pw58pRD8SSkBRQL/M9Rpo3l8L4B+mgXHfC9lYpShs9sxYif+EAHoajfRa4XQPdWs/2bCh/thQmT3ct112wH6lA7hpjkFZOSsy8MxkpS0t915rDiMJtvoE6o02nyns1vjL9oUoYj3jyYwdabIlZjataKuve7a1K1Ej3ENc5Iyo9n1sjA3qtZ8DT8HlbYj7LjW5+53BvMYr32uD0lPUu22B8Nhtlx4FYnmkTUzLmqnyDcsmvW1y2oeVMfLYaffoeqvJ0BrTrPJWbNaja7RkgPbB163CU710wv1PuzhNivBcGHveaBmn/wuSr8jRRs64QVcftfuVZ+6k6VOTNlNIF4l8fk0D3NYpCVD3iitg60pUPXIOAgRICDWRwMtFVLwqDDf7hmb/HIvRzgkxXKIVSEaRj6J4Woc8MMn/AX7wGJwu5rs9bRPlSReg4KdR+HT/Lj2mwP8VCvbB87pm7RZQH2+cIOsYeyOBkPj2iaYP/vvkGGugQtSvD7Hc0naeH6Xg+3MAVtauV/Wx/9AyQRKNLPAcn82jZnuGfHgI67RdCBOR5ofKkctHid4sYW2kv2oGU+h3s4nNL2HuZd/lQ91CFSqjmBN4HekTTpsD82JeX+gac9L/3K9MUfa4l7+BkIQbg6rHqhSrkefctF/pepxB57wz+ADMxDSAS8k8lCt8LHGxIFXJ/O97JC3J8w6eJ4OfEdy56rPp+BlAbuQP1xDY4WUCe8nmTKJIfH0WebEC9aPKo6Msywi4f3KP/tODTIsoDyr2JOCiZR3T3qXZR/1SwNOKfrko+8B8aKeqBimN4FhCfW4R+YZhz7M1LQ5RF/QYZVIjC93z7EF067RGWLf0do8DjEJl4DU4mRI9o2akJk78phHqbxW/QsrB5Wwznj4OTRTg4WZgBlNrf0QllmOPtTV9RPtOGHZws1HkbzMHJQu5zi6gMl+ajuJ4iP2expO/oytNRD07mcbZaaALWq9nT3ne+QYpPxGSDnsV+L+wW9U/1F+e+8esvTfili3jXxyTYfW0sSrjByTyUOfn+n+7NKUbuwji8OZukQfkRA4qWq3zN3hXpUKdI20pWoeRQPfQr0t0tEBTp0GwwoLWtCfoFQdaXnIGS9y0oX+2/vrzXW1D/4uBHP2I3ZaDovTa01umhW5jubU2hmKWGbosBFlsTSmQdP6cvNaBygw5q2byAEqrlhSiva0WbuQSqmzy/Z6DofQvKV8sHT1FCdftQtc5IhvrpihCfeiqg3WWGYYPGL26aDbVo2hPnrhKkbWn3tKPDXI2i1WqoZP3DKWapoV1bDoM5bwQM/kAUHxnLCqGWh1ep+0kPOuhfL4RmlpSg01TQbW+C7YMiZPjdIpj2BuQmFUqOdaDp9UJoMz13MwXSlxai3GhBlafv10kaVFprUbRUulekqaDbUovWNgPW92m1mgz1C/L8WIH0helIke4lKUvLYTYWQZPm21al2YamLVmBK+pXcmYJLB1NqFyr9Z17RTo0a8thsFZBK31Cp1rbgtrt8n103+cqzbZh7U9LsbwGrWbpPpwp/yhPgfSFWhRuN8DSYUHlUv8P9jKeMcGyXQf1LNmdO1OJlHHudZqNRb60A0C5uAi15uqQXSV4zolWFgfFLDVSpO4wkjNL0NTW6j6GgeWFHB2K9tRCnzOyP7AfkJvU0B/SywZ7NaJos1H6TDKaPCqGssydeag5YvClTSihWl4Ew5l6lISNtLzlkzsc7UAsiUsJzesWdFgN0Accc2WmVB7usECfM8DyayzPAjepUPJBG1rqAgYjVKRDvbwQ5StV4T/zvzMP5W/6BpererIUJqmVfXTpNBmqF935iOf4KGapodveBMuQlJtjkYyMZ+rRdqYW+tUBx261HgarDU2bVH6DloXN2xL1WW6UUy6vRuvFJlQH3PeUmWroNlRD7UmvUT7TJq4MFL5nRu0WeVrToMjYGsfrLJb0PUTl6bRc6FbLf9BBtzRYpwRDW753HqmTBj0byACdKdC83gJLkOeXcPmqcnk12jv6pgnvfcHYhLxZnh/jXB+TYPc1ikySEEJEs8DJkycBAPPmzYtLhGjkOnnyJK8LogQ1JHm33yA+GlSfrYcucACcz4zIvcMz8r00+E/8YjQiMS8dGVgeGjnGcpqy712C6WukbhIWV6PdpBvQwGrxxDQ1cozlNDWSME0NN2lwV2mMn6IPelCeE74imucsXuyo0UxHQQOA1bXo3qONrJ/sKFi3piJrs7vDAPWb7Wh6YujvtsybR4ZY0vmQtLglIqLRz36sTqq0BbBah9wxNGo5EVHiscN80JsrxzQQCxER9ccB46psFO+1wu7px/66E7YDelR6BmZXFEJ970hoPTxKeQcl62/8jf5Zt05H7g4T2i57R4SA40gZ9N5+uFXQqni3pcHV33jRREREEbCh7nVfBUHRioEVioiIaIBko2cDRaNgUDIiogTlMqNiTRYq1gSbqITu9SJomAUPE9mgZIPSZacddRuXoG5jsGkKqLdVQDcr2DSi2LHiloiIBsx1pBblp6SAogSahB4BmIhotJM9qAJQbNIgi9kyEVEcJEO5sBBaZxvazpjRJjW8VMxSI2uBFrpn86FJY63t8EmGelsHxLbBWZtiThF0OTa02s2wnpN+TFNBvWAJdE/qkJc5hscDoLhhxS0REQ1Y8kI9OoS+/xlvz0OtyIt/hIiIxrTBfVAlIqJQUqBaW4natcMdDxoKyqXlqF463LGgsYZ93BIRERERERERERElGFbcEhERERERERERESUYVtwSERERERERERERJRhW3BIRERERERERERElmCQhhIhmgZMnT8YrLkRERERERERERESj1rx58yKely1uiYiIiIiIiIiIiBLMuFgXvOuuu7z/T0pKgrzhLsNjM/zHP/7R77pIpLgxzPBYD//xj38EwLx7JISZl46M8Llz5wAwTY2EMNPUyAgzTY2cMNPUyAgzTY28MMvrDA8kzLx5ZIQ9eXM0BqXFrSciSUlJfmFOH1vTg0mUuHE6p3N6X4kWP05nXjpSpydKPDidaWq0TE+UeHA609RomZ4o8eD0yNNUosSJ00fG9FASJX6cHnmaDybmittgEZL/xuljb3oix43TOZ3TOX0kTQ/8PZHjOlanJ0o8OJ1parRMT5R4cDrT1GiZnijx4PTopidinDg98aeHmjdR4sfpfdN5NAa1xS3DDCdSXBhmmOHwN4jhjg/DkZ+v4Y4Lw5Gdq+GOB8NMU6MlnCjxYJhparSEEyUeDIcO85wxPJAwr5+RGY5UzH3cyi+QpKQkhhn2uy4SJS4MM8xw6Jt7IsWPYealIy0sPz+JFC+GmaZGalh+fhIpXgwzTY3UsPz8JFK8GI4sTSVKnBgeGWFPmg+8jhIlfgz3zZujMeAWt4EbZpjhRNg2wwwzHP6mMNzxYTjy8zXccWE4snM13PFgmGlqtIQTJR4MM02NlnCixIPh6M/bcMeB4ZEVDjTc8WE4uvMVTswtbgH/2nyGGZb/NtxxYZhhhhkeqeFEigvDkZ2r4Y4Hw0xToyWcKPFgmGlqtIQTJR4MR3/ehjsODDPMcPzC0RqUPm5DunYejVUb8MTj+cjPz8fj697B2bhuMPF1fvAS8vNfQmPXcMdkmF37BO++9Bi+O//v8Hd/5/5Lf+qX6BzueNGod6Lcd809Vhv7FTdY6xmpmJfFh+emPtCbOyUGp9MZ81/C6mrES/n5eOkDX76XyPkB0xTR4GKaIpK7hPrn8/H47hPoHe6oEIF582gVc4vbv/3tb2Gb+grhhLXqJbx92peF9V75Av8jBATcF1T45Ydh+pmf4vs/bkTOcz/Dqlnx2b4nHf1N/A1CDPX+t+Kn39+GxuwXsP/x9Djtn4hg2U9hWKPCvx/2/73zmgtCCPwtEa+NqKd3oVY3E//6C/dvL/zqMp6dn0jxG7vT/+Z3Lws+6mYk6xch1jPc+9fv/vebd0e3/+40P3Tx7zO9qxE/euanOJv2GHa+lIPJCX78I5nu+TcR4sLp/X/S1F+aitVQ5iltb6/EtiYg57mf4bHZ/SzvS/ze6zRUfjBU8Weaiv/0S4eexcbT38XOlx7ElFDLd53Cu/uMaPz4Er7oBcZPnInvPJKPFQ9Mw9cj2L7HYN2nOD3E9OtXceG3P4fhnd+i9UovMH4CbpuVg/zVy3HPN5imhmo601SY6V2ncXCfIeR+R7z+CNcjhEDS377Apx8eCJou7r4lTPwv2fDfF8fjH/LmY5xw13MMeP8xAs8ZpyfMdObNiT89FjFX3PYXkaTuE2g83YsJqnXQ/yALU74a5fKjfToSPH4DmN7vsr+vR42n0nbRj2H5qQ7fvMFvBXGLG6dzen9Z6LDHj9M5PYL5hjIunB7eYBfMol0/pzNNxXX6l73otJvw1nudwLQwy3c1YsvGn+KsrMlZ75VW/PdbL6H18gvYmTtj0NIUpw9kei/ajM9h2wdXZD99gUu2X2BH2yWsq/g3ZE1kmorrdKap8NO7GvGjfvY7ovVHsZ6kpOtoNWzsJ10Ej/vZo/+FS//PIjwxM8L9i3B6Qp0TTh9R05k3J/70WMRccRvYSq2Pq1/ACeA7C1SY/JW+LTASkieOQVqMDP6mhuOYeHew//MX6xYiWe/Vbpzx/H/+bMz42gi5PqISsE9DcE1RZPwbysaeFgZrPUNtsOM5PHmZzKRF2Lx/kRSZ4C0dRqKRcj1R/M7VUF4D6Y/vx/7HgT73rqB8MwTGcdjzgzCYpqLX1bgFz+6Td3ImQuSzvThRa8TZ3vGYkbsJ/7Z0BiZ+Fei9eBS7y6tx4tBB/Hf2JjwQouIjEM9VHF36AG9/cAX4RhbWvlCArFvHA19eQevBHSivP4G33/8Eqvy+FWPB8DxFj2mqP4O131GuJ9Z08eVZ/O7oF5hw371IG+T6jpFzzijR8NoZnQY0OFlIZ/Zh5fZGAEDj9pVolH7O2bgfq2YDwDV8+psDML5jkX2KsAh5q5bjnknyFbVi38qX0Zi9Cfsf6sXBfUY02C6hFzOw6rXNyPkG3Jnqr4wwNpzAp551zf8e1j2Wg2nybyC+vIZPfyvbJsZj4sx78eB3v4fFd0+G0+y7kcrjjLRV2PnDHEwGgMuncXCfEYc9n1vcdBtm3qfBPz30AGZEeOP0+p8unK79KYyHW3Hpai/GT5yJxeuexvKZAR+AXPsUR39uxMHjrbjikra5KA+P/fM9mBzQirnLdhA/PXgYrRe/QC/GY8IdM/HAd/8JS74zAxO7G7HlmX3uPoabXsbKJs9SM7Dq1c3ImQTg6qc4+p++bSF5ImZmPAhN7mLcc+v4KHcwmE7U6r6NH7wn++kVDSa/AgAP4Sen9yL3tgs4XFmDXx49g08+PYYTdmk+5b1YkJmDNWvX4KF0+cE+gVcna7AN0jpa/gOzT+zED//jXRxu68SU9EX43nM/xo+WTO0Tmyttv8Se3XvwbtMxfNIJYMo3sSD7e8hflY/c+VNCb+P0XuTeJk1qfhWTF7un4OGf4Pc1uZhyqRar7/kBfilbw7bFk6XlgRcauvDM/BgOn1+8d+FnB07gAoAp6YuwYOqfUftrqTr8eRO6iu4FAHTWrca3//WXfX4PPBd94nS9EyfeM8Cw/100fvgJOqXtLF2lw7oVizBVdpmeqJgMzSvu/z/0f36PvVrPsQtz3ACg8wRq9xtg+EUjjrV1ApiCb/7jUqxZvQ7fz54KeSPsWHV+WIOdP9mD93/9CTqnfBOLlqzB318Pt8QVXGh6F7uMtWh8z318obwX+f+ig251LmZ/I9RyLv9tKe9F/qpNeOEHCzDFm8tGeR3J4vRJ/R7sqvwZDM0XAOW9eOgfcnH39eexbb97Dv/jPjiu2Y/iwM9/gRNnu/BF73hMmDQD9y77HpZ/x134DeriUZS/9Quc7+hy5yFwf5aW9UgeVnxnGr4uXy7C/CZsvvZVwO8+8bh/c4cu20H89NBRtNqvoBfjMVE5Ew8sewz/fPdkjA+1D0RjkLsyAb7ygMfVT9G4bxfebfZ9Zpp1XwqcAFIiWfG1S7D810/x7odn0XW1153O/+EJrHv0ntD5CI08X55F2//bC9yxAgX/PAOeUtr4Ox7AY7kWnHirFSfOXMMD9wX7yJmGUtfvm3EJ45G1UqqcAoCvTsTM5Y9h0dEtaPjwBM7mz0BkVbcUN2M1TQ3Wfke5npjTxR9P4OjVyVhyf8CUuD9TE9FYE6cWt8GnuVtiXEPr28/jFXPgpwjvofzjVqzathmLbpUvAcBWjWd/04WuXt/v+FJAXO/C4Zefx75Pev3XZd2H0v/vEp5/ZRVmJgNAL1oNz+GVRtk20YsrrRYcbO3EjTs3455Q+yOkfkIuH8aW5/bhnHxTVy/h9K+qcfp/JmHf42G+j5CvTggAn+LAD59Dr0ve/28r3nu5HCk7N2OR56HpWiv2lbyCw38J2OZ/leO51lV4ZdMib+Vtl3kLnn/7nKxT9F58cfE0Gt46jd5b9mGVIvRZgRAQPX23BdcVtFoPorXzRlT8cJG78jqi/Qs5NUxrOE8/eX/GRz/aBUPgZPsJHLOfwLED1Viz/7d45R8nypb0+B225Wbhgl02YErbYex6fDFw8CReesBTFfhXnPnJaqzYfNh/MLTOT3DswDYcO1ANQ8nbMP7bfG/loax9UUAffn7Nar19yvR3FGJ9EXbhvWegLTC4KxRl+1jb5rcBv/7Hgv0eeC784nStGa+ufBwvf+g/4FZn22HUbDqMmnc3wfTuM5j/de/CvvUEtDwNddz+evJV5D32Mo75nwB88usaPP/rGrz7nAmHiuYPoPL2r2h+LQ+Plx3znePOT3B47/OQd63sH98LqP83LVYfuOC/KvsJGF45AcOeRuxu2I3cO/ru9+9eWYaF9gu+bdlPwPAjLRo/NeK32xd5C4xRXUee/ah4FJofN/vF55f2E34vBgKPeziRzHft4314fvth+HLMXnxxuRVH39qC8bfsw6pZsvXI98N5Hqft/qMT9V5pxdG3SnHqT5vxxqNp7h9dkeU3/eZrswDvtRxwDLoat+D5/f7LXrGfxns7d/nnswmKb8tHjtHQ4jZoeg5WBrnSiqP17v9PlKW5SJeH6wpaf1WOZ9pX4ZXSyMoVg4VpKnqTFr2IfYsAoAuHf1SEfZ4yceCMf/kT7L3A+G9NQ2rA9JvT5yMNrWhtPw/xnWjKyhQPnZ+dBZCGNOU4/+P8lTTc8/dAg/kszv9fgbSQL6p9eJ6ixzTVj8Ha7yjXE1u66EWz+TC+uD0X826X3fsiLOP2Z8ScM0o4vHZGp/i0uJ21Cvs2Aqu2H8aijZ6Ha4m9AbvNVzB+6iI8/dQK91unL6/gnPmneG1/M/a9ZsLMbRrIG+bhL05M+G4RXtHeg9uSfT9fMlVg3yfAtJwirF0uTfOu6zDe+90/Yeb9EwHXafym8QowT4c31j2AieMBfNmLrj+dwNF33BUik3M2Y1/qvuBxBnDpwwac652Mh59/Bd+b6X5T1nvtEs5aGnAg6lGUe4Gb5mPVc4/hgTsnYjx6canxZbxoPIejzV1Y9F13dv7pr3fj8F/GY1rO03j60XsweTyAK+dw+O3XsO/kPlT8eiZe0dwG4BKsDefQe+vDeH7r99yV1V/24tqfz8L6qwPoAtyfE++7DftWvYLD6uf7VDT3/u43OPwXYH7BG1j7nYnu1miuLnxqO4p3T0a7f6FMQW51JxbUrcasH0hPfg/vxsfVuf6d8t+Xj1cK1yL3vm9i4g0Arl3A4f/4AfJeawbQiT0HAr/ZAQAAIABJREFUDmPdP+aibxvaW/FQyW48o/kmJo67gmM/1iK34gyATuyqP4ZnHpAq0D6uwXPeStsleOU3/4E135qIv9pr8e9L16K2sxPHyp7DrvtMeGZeDFWHt+Vib+cC1BbMwlqpReumhk48My/6Vfn5y2HsesFTaTsFi7a8jd0F8zFxHHBh/2rML6of4AYA4AoO/8hTaTsba6r34kcPT8UN1ztxuGwF8qrOACdfxs73cmFc0fcMRLofP/RU2s5ag701P8IS5Q1A52G89Ggedn0MNP94J97VGpGvjHE3Pq7BZm+l7Xysefsn+JFmKm7AX3Gs7A7kvtZ3kTM/+YG30nbRD03Y/a/zMXHcFXzy9r/jvo31QGctfrgvDw+VLOhToXyr5hUceH4RptwAXDn6MrTLX8UZAJ1vvwzDqkVYN6vP5iLy1w934nFvpW1k+zFgrmbsf/UwroyfhkXrn8YKqXVq75VPcaK+Gp+GW3bWKuzbt8r/t94uWKpfxE8aLWh9NA0zAfR+FEl+E0G+FsolEyr2n0PvN+Zj1VOPYdFd7qrz3kutaKw7HG5JIgIA9KL5ZxV9yyBf9uLSqX2oeO1ohMtPxPyV/4bH/iHNXfbq7cLpn7+O1xvfxeFPFmHFN4dgVyj+HJdwDkCaIkh1RPIEfB1A75dDHSnqqwuXPgWAO3FbkIrZryVPcP/nb0MZJwpqrKapwdrvqNYTY7pwnUbz73qR9ui9fvUWkZVxiYiiE78+bkP0F9tx2oorSMWja1fi7inSer5yM+5a9AOsal+LN37bjN93LUaqvDXU/U9hy4q74d/3Wgeaj1wCvq1D0ffvxkTPtK/cjLsWPYrFR5vx89/9HlcXqPD1cePcO+rsRLdL4OZxAL4yDpPuUCG3SOVbb5g+bsclTwDQha6/dEMI901g3IRUpC9agy2e43H5MLYW7ce5gEOxaMNPsXKWd9UA0vDopqeQPcl9oATGIfWBxZhvfANWRxeEmASgA6etV4DbH8Xa79+NSZ443nwXsp9chbPr34D1xO/RuTgVkzEO424A8JcuOD8XEDe4929CajqyV28JOG7Bz9+4G9yXgrOrG38VN2OcAHDDJEzNzMWzmYi478hI3vAEzuH/pnke/r12nndOIQBMuAPZK3VY8loz6gHAdAF/FgJ39FnbVMyeNwM3f1VAiJtx3wPZQIXUfcBfrsAlBG4G0PzrXfC2Xyxcg7z/fTOEEPjanVqsWf1D1P64E8AZvPzL32Ht3PtwQ2CM5ddHkOMqgk8YcL9Hnf9twB5Pk85Z6/D8v87DzdIxusHviyFZKygE/z1k/DqP4d23pY08sAZrl96BrwkB8dXJyNbmYnbVGZwBcLjpBP786B2YEsM2Oo+9692P+1avhebOr7mXmZwN7SOzsevjMwAO47Dtz8i7M7bP//3O8Yp1eH6xtB/4GpKT5XN64nsGhys9S6zFWt0873U045/zsGZjPfYA6HytGR+9cB/mB+zd1NmzMVnqq/nm+/Ow5oFX8cxRADiDE62fQnx7asjjEfxQua+jjz581deKN6L96F9/8/WePgFLL5CuK8LKORPhSYfjbp4K1YotUElhXwO7gGv7yqew/uYwrCfbcOmL/4Hzz1ekVq9S/nRTpPlN7Plax++acAkT8N21TyF7uu/3canpWFyYHnTZRMO35SPH6Ghx69umEABcp3Dit71ByljjkDp1qvslqF+L2+DLT/jHp/HUorvgTXPjJuHuFblQNe7E0ZazeHRG2hDuI9NU7Hxlm6CtA/3KzwFTv57ibV02mF+GUCxk5y7Iebz5G7dJkyK7R/I8DQTTVFCDtd9RrSe2dHGt+SgsvenQ3TvJbxtD+UxNFAyvndEpPi1uw3A6uwAswp23BU4Zj2nKacBvz6HDAUBecTvua8HWBOefAfy5Bk8/VhN8Y+Ov4QsAX//qPXj4+2mw/ux9bC78FSZMSsG0tEzMV92Le2dPi6iftcn3rcCiX72Cw28Ww7pvIian3on0efPxwN+rkDYYfdUkfx3+vfVI+6e+E6l95p2GtKmA9Y8duAxgMibj/n9ZhIYdh/GTIitqJk7Gbcp03DvvAWSq0tytZPrz7Yex8ptW7P/FZqwzTcDkb0xD2t/Ph+rv78U9U6PtwHeArnfizAeH8cujh9FsvwLXhQ/RbO9/sT7G3Rjkx05caPN9n79k9jf9Wk9OVd4LQGq5erETVwAMbs+hsbtgl7WoffBezI7HRi6eRZ3n/0efwb23PhN8vvcu4MJbsR2bC+e8W8CHRffi1qLg89XbLyC2LQSc4+/MRr9X8KWz+Mi7yG7kTt0dYsaPcOESML9P/iV3K6bOAiA1SKu/2AkEaR/ev05ckL0Fimg/BoHzSheAabjnf0e/ta7fvoGtbzbjStCp13DNBeAmRJjfxJ6vue8z92PmXVHvAhEBwFUnugCkZaTHlu9Iy3/x66147Nch5pF1F0WjmHQtUOK78pdLAMIWcCgRjNU0NVj7HeV6gqeLKzj529PA3T/AvMCbZCI9UxPRqBHHFre+fs/ks4Z7u+h7OeZZxv9tZODckb6tEgAmLSrFrtnnYD1hRdvvP0Lrqfex//j7+Pmk7+JZ/aNITw4dZwDAhG/h+ztew4IzzWi2ncZHvz8L67un8Zt39yF99TY898Bk4O+yUfp2drBY+FqjyI6P/zYC9zX8vkM2TQCY8O3v47XXFuCjE81o/vgjtJ2z4t1Tv8G7hnSs0T+H+ycF24bMVyYh+7lduPu8FcetbWg904rm9/fD+v7PMfkfn8W2FemIpP43oha3wj/gdy1crMezj+hgDFtRK18mTF+tfheeZxkRdPvh4xbtNjxxlE8aeAs/v+XH9R/vcL+HjF/EkfTta9ht+C/h11Kz/01E3oq0b9xkwa/eEMGxinw7QffDL649cF3zTZry1a/1faOPSK6jWPYjgvj3M1/ffDj8fN68zNWM2r3NuDJ+GrJXrcSijFTcPO7r+Hoy0HVYjw0/k80bYX4Ta74WOp8dOfi2fOQYFS1ufRuFf5YYJG8JMi308uG3Oiz9+FIM5PeeIOXvW1ORBuDS/3XC/dWYzNVuOAGM/8rg3acoVpNw2zQAf+xEt/QFjNy1z79w/+crbHEbf0xTQQ3Wfke1nhjSxeUTOPr78VA9NQ8TAs/fED5TEwXDa2d0GvIWtykTJwP4CK3ngfQ75VN68an9UwBpuE0R0ZqQcisA5Xq89YP5EWWA429Nw/0PpeH+h9zhjgY9Nv3nr9BwcinSv+Nr79ob6lr/6kRMm5ONaXOykQsAVz/Cnud34jcHm3DugUcxuB/8Sfv3+1Z8+mU6pslbBbs+xbkLAO66za9hMiZOw92LpuHuRbkAgGun9mDDf/wGP286h/v/RRa73hCtXL46HpPvuh9L77ofSwHgyw40bNuE//x1A5qXpkN1U/DFBs8VNFX5Km1nP74LO5/NxtSJEzHxL3XQZazDwHtxnYKp6VOA993NK+vP+rfqvGA/4Zv1jilBWhpdgcs14EjEZMqU+wB86A58fAEXMD+6dpxXXfgrEH7Ar9umYgmkNsezfojGw2ujatl75Vr/B2eq0rsFzN7ciMZ1g912eCKm3OELBZ7joFKnYvYUoL4TAPJQ07oTSyIYmCO4C/hENpbYkm8FO0uRXEcx7McgmHDjBAAf4aNPrmDxrVG0DLh6BV29wLQV67FyQQTDLkSa30Sar8mMv2ECgGa0/nEN7mYfmkTRS56ACQDaLrm/64naTRMxGcCVZS9jxz/1+W6IRptbbsO0/5+9M4+Lslof+JcUXH8iJoJeRU0ssEQLvCmZS6KmouVSRu5miXbT1FzzKlou11zSyi21wrVcU5ESSlETS0xBU8t9uciSAjdJBHV+f8z2zjADM8MyM/h8P5/5nHnesz3nPOc58855z5xxhfMnz3Gjr6/BL8Wy/kjiChDQ0MZz8YVipWYdX+AMSb/n0SpQ8e3p/nlOHweq+lLfw17aCToeVp8qrnZbWY61fnHjaCznXYN48UkzKxB2/04tCEJZ4xFbM2r/xdz8S5fQ4Lp3wLO4k853n67hcEqu+vq9TM7FLGftT3lQNxD/R/XpTZWhfnkT2LY2HFnBBxsSSc7O1cXlZidz7sAWFn57Wn0tPZZPFmzh8NU0cu9p8t/LpVKtOlRStucRcAWO/pJA5j3D+k5vmMaamNMG9ajKuVPbC3S7Dy16me8/w7Z6E/CsO6R+x6dfHiYtV3M98xyxK9cSnwe1A/2pqVKhUp1mY8QaYk8mk52rL8+1Rm3qoN3Zp6nDFTieQEKmYd1pP37Cwm2HuZKuaN/9SnjWqWShvVUWpzN8CqS8nkPmTX1MvWaBPOVZjWpuOWRdTTX4+XXhZRnvFtBfD+w0giDt5XVrWH8mC5VKRc7Fraz5UneILJO6BqnPE1V54tlWm+EQUXF/kKNSocrJ4uTJJDP1V6CaYuFvd+xBsiweI6Zf9Zp3QPcfV3vWsO2QWm9VTipJJ6+Y1KOah2Llb0ssB2+qr+dcTSLpokGHqvN4dyBskGZx8NQMJs+O4o+bObrycm7+wcGNEfR7dyupmmuetVrrijm0J5Y/ctS2zDqVhL539Dp5tgljiKaKkzMnM2fPH2Tl6MdA1rmDrJ/Zj7HbUm3sKzeaPjtE37Z1a9h6UdOGmydJOmNqHAXS4W3tqNjA5GlrOHpV327V7Suc3LOMke0+5qj2mrL7cu6or+VlcXTFXJad0kTUGkKHwGqacqwdR240DXrdoB3asWq+HYX7XGHpKj/ZkgBXOBO5gLXH9XNmbuYVDm+YxsaTZuayR9QXkhMSSNbOQ7mZXInfwtrvrhiktWy+sWJeU45hlYpGgc/jzt98t+wTYs9n6q7nJp8m+rNPiE0vmi+W9MtSm8rL/nYqzFZFoXTbY1Rnlfr414W8H5ezIl4zD9zLJfPqYTZ+ukl9ln9B+SsEEBjsSvruhXwSc460O/q0uelXSIxZw5q4tFK1lb3Hi9O/DD6fjF6PNMK/hStc38bqb8/p7qFzr8YRue0M4E/gk5UtspPYqmRfNZsEUps84tcpvoflZnJ6SyQ/3IZKwYE0sqAcsVMxvMSniqHdacR+MJjBgwez9qTt5VjnF8mc+OkGldq/QGCF/G0o6ndqp7OZvBzqJWPHOV62UOo7bmnQheHtDzJv3wFWTjrASmWcqy/9//Vi/jNdzVC70xj6H3+fdXsXMWWviQTtm+jeZp3czcqTuw3rA/DowIvPaP4tsqE/Qa4/EH/wU949qIlv1J95UztA3lUOrJ/HgfXGBbjiO7BDMe+2VePTeTgdDs7jh4MrmXDQUHPXxv0Z00nfU/cuH2DdggOsy6eeL/1f0Grni38LV344fIBP3z2gu9b/o/cJuJ9F0s6VJO3M10O4h7xIUKk8GaxF6+69qLVrG2nAnjHPUtvMEatF4skhzJlxiH7TfyAtbRvj2m/D8JjVWrSePIfwQO3eVB9C+naFuD0A/DCpDQ0maWLMPvWtRosXhlDrqy9IA04teoUnFqljJu2+wehAM9kK03tCFN3nJQAJzO3zBHO1GtcyvROzQstuTHpyOXN/A9KW0//J5ZoMPmZ261ajw79XM+n8G8z9KY2EJW/QZomJZN0/0731eSGMrhxiD8CPU2jTYIo6oqGZOmp0YPqaSZwbOpdDaQksHtqGxSaSdV1qUkGLqNYpnM/6RPH2ljRI28bbwdt4u5A8T731GavPvMIbm66StmUK3bdMMZFqEkNMXDU9VoMYsuhdOugW8K0fR9W6DGH2c7FM+UndjvxjtQRwb0X/V3/k/fXn+WHxBH4wiu5gboO0RxAvNP2alSe/ZspbXysiXHH3MPqosXC+sWxeM0GjHgxvf4R5+46x7sNjRvl96f+q+ayC8LCRm5tr4mpt2vTtwHcLfiB+xQTiV+hjXCu6WvArJ1cC+42hw5l5/LB+Fsfy3TuBb79Q8vLycHUthv8JEEqE9NhZTFiv/MvddUwYop5RffvN4/0Q7W5sVwJ79sX36DrOb5/Fu9sNy3Hv0os2crSjY1C7AwNCvmNebDwrJ8UbfQ8LYEjX0vvDwIcR8anCKK52W1mONX5xIY6d1yvRZqAZX3GI79SCIJQ1Sm7HrT6lUVwl/AbMImLo8/i7a27WXStRu1ko786awgu1TK1Gm6njkZq8MGGRuqyalXRfJFzd/WnZ+y0ievip01V/njdH96KlvyeVtFVW9cS/zRAiZvTDT/u0rMIz9Jvcj5Z1NWW5VsKztjuVVSr8erzPkE4B+LjrasG9QQChoz9kSrualq+wozLbnnxtreRHvw8iGNLGH/eKWr1rE9DjXT6c8AI1H9Gm9SP0/SF0buajS0dFd3y0farbwVyeZ15/n37P1tb0gyuVatbGvYKKmm3e5N3eLRX96Eqlmv48PzSCWX39KG/hkwPL+sD8WPIMXcDmpeF08NMvRPq8EM6qzQvoqhhT6PIYHaVXwNMM/XU3nnxzLQd+XMXEvq1prK2qVmNa953IZ7v28s07gZrdthq9Xl7I3kVD6KA53sMnMIxpm09wZEmY2bb8X8dpbF4aTtdA/aJcLb/W/F85W5/OuBH47jp2TQ0j0EiPnRFBCiUUergFMmrNWia+3Fj9I/tajekw8jPiDnzDxGdN662qHMiozQeIWz2NId0V/QP4BLYmbOQCVo3pgKc2vXdPFkYvYMgLmnY2CCRs6jeciPsMg95R1OH2zCi+ORDHqqlD6PpcY8UBAD4EtgkjfNEqJrbxLMKTrHr0nLOZz0Z20OnvE9iV8KVxrDVYYDXM02XhEU5sXkB439a6PtbareugaXy2+WWe0o4txfB6qmNPxZitReOO4Xz24zpmtTdsg/Xj6EkGf7mZVeP1Nq/l16GQdhQ0v1jmozU7TGHRtCE87++unw/qBhA6fBY9/czNZdVoOSqCIYr5xd3/eYZMW8SUrnUM0lo231g6r5n6nKiE34BF/Gd0KAF19XW4+z9Pv3FvGuR1xJeldpKX/e1UmK2KQmm1IzMz0+S9SaUn+xExprPuXk13//HvV/HBcNe7qfyqSn70m/cf3u1heO9UqW4AnfuN5802NUlNtfWXFdbbyt7jxSlfBRxWrDK296MvMGXWu3RW3mu7a+b1VxpZbCexVUm/yuPXdxYR/Vrq/VL7PWzuu7SsZlk5YicbX+JThb+sbbeyB20ux3K/OP/LAe7U6kIbX9P6F/U7tVPaTF4O85Kx4xwvW3BRWZnz2LFjANSpI/86KhiSnJws48JOpO0YRvOR6p2cjN9F8hhbtvQKzkMa24c35+1dail80yWmtSnw9GKSk5MBmbudAZlLnQNLfOrOnTs2l1+pUqXCExUDKSkpeHtb9OcCxc7t27epWrXktx+JTzkH8jnlPIhPOQfiU8XM/TOsH/kRp1+exawuJXN+u9hMKAoyNzsHWj8PDLR8zcbmoxJsXSkWyjYyLgrn2Mf/oMdH1uXp+tlxPn/Z/B9TGXa77U9yHI2S6CvnIo3to//FyeCJDA4NxKcKcO9/nNr9MWs0i7bUGsxzzdwstnlZGRtlHbGT81CQrSpWrGg2rijlFideXl4cPXqUoKCgwhMXIxcuXKBRo0al1k7xKedBbOUciJ2cB7FV8ZB34iAH8hrxapB3ifep2EywFRk7ZZPSP+NWEARBsJycn1gxtgcrxpqK9CHsg+G8UK20lRIEoSzh7+9PamoqHh4euLm5lWhdDx484Mcff6RFixYlWo8gCIIgFB95JCUcIa/JYAJr2lsXQRAeNmTHrVCsyLgonGdGX+f6aOvzFdi3yrginJ3iaJRIXzkVFagXPJgu/zvH+TM/cS5dfdXziecIerYLYW/14oUG1axqb9npm7KN2Ml5KAu2qly5Mjdv3iQlJYWUlBQef/xxqlSpQvnyxfN8X6VScevWLS5evMi9e/do164d5cqVK9W+Kwt2elgQWzkHYifnQWxVHJTnmTdXsQrU37VKuDaxmWArMnbKJjb/OZkgCI6D58ufc/36dfXrXTnftuxQjcCBH/L5hq/Zd/y6zsbHf/iaz2cP5oUGstVWEITioV69etSrV4+7d+/i7u7OuHHjuHnzJlOmTClyeOHCBb799luaNm1Kq1atKFeunL2bKwiCIAiCIAhOgc1/Tubl5VUiCgnOS2pqqowLQXBQUlNTAZm7nQGZS50D8SnnQXzKORCfch7Ep5wD8SnnQ2wmFAWZm50DrZ9b8+dksuNWEARBEARBEARBEARBEATBwZAzboViRcaFIDg24qPOgdjJeRBbOQdiJ+dBbOUciJ2cB7GV8yE2E2xFxk7ZRHbcCoIgCIIgCIIgCIIgCIIgOBg2L9xqV/IllNA4dAQdJJRQQsNQi731kNDy0BF0kFB8qiyFjqCDhOJTZSl0BB0kFJ8qa6Ej6CChc4ba9/bWQ8LC7WQt5SIiIiKsyXDjxg0AqlSpYnOlQtnk77//lnEhCA7K33//Dcjc7QzIXOociE85D+JTzoH4lPMgPuUciE85H2IzoSjI3OwcaP28Tp06FueRM26FYkXGhSA4NuKjzoHYyXkQWzkHYifnQWzlHIidnAexlfMhNhNsRcZO2cTmhdvy5W3OKpRhZFwIgmMjPuociJ2cB7GVcyB2ch7EVs6B2Ml5EFs5H2IzwVZk7JRNXFRWLskfO3aspHQRBEEQBEEQBEEQBEEQBEEoswQGBlqc1ubl+KeeesrWrEIZ5dSpUzIuBMFBOXXqFCBztzMgc6lzID7lPIhPOQfiU86D+JRzID7lfIjNhKIgc7NzoPVza3ikKBW6uLhIKKEuVGJvXSSUUELzPmpvPSS0zE6OoIuE4lNlIVRib10kFJ8qC6ESe+siofhUWQqV2FsXCZ0z1GJvPSS03NctoUgLt9pTFiSU0Bh76yKhhBKa91F76yGhZXZyBF0kFJ8qC6ESe+siofhUWQiV2FsXCcWnylKoxN66SOicoRZ76yGh5b5uCTYflWDrSrFQtpFxIQiOjfiocyB2ch7EVs6B2Ml5EFs5B2In50Fs5XyIzQRbkbFTNrF5x625FX2RRXYkXUQWWWSRnVFWqVQOo4vIpmVH0UNk8amyIjuKHiKLT5UV2VH0ENl6u9lbB5GdV5a52fFlWyi2Hbcii+wIdYssssgilwXZ1NNyR9FNZKxKJ7JjyOJTji87ih4ii0+VFdlR9BDZervZWweRnVeW8eT4si0U6YxbQRAEQRAEQRAEQRAEQRAEofgp2TNub18kavl81h25TnYuuHm8yodf9cfP1krLAKm7J/DmShi+ah7datlbm+LH4qcJt8+yadY0lu7YwZEL6kveg77hl89fxrvk1BOEh57ieOIHZX8uszfFZSeh5HnobJUWxYRhK+Ctz5kX6gU4x3zw0NnJiRFbOQdiJ+dBbFWSXGf7OyNZ/9hkNoxphVsxlSo2E2xFxk7ZxOaFW+U5DS4uLqhUKqMwg7j5E1jxa64uXW5GNrkqFWjSFZzfDvEnVtJjehTdZuzkreYlVL++A9EmKb32n2R5j6ns6fIh34Y3LfbyjceF+byX+CIsgPDvDZKScvtOvjIcZmxYHZ/Kptd9GLRVnW7GwVwm/dOR9JP4hy1eS3GVr5zLwI7tS41i4psrOPvEcD7/qBu1HLT/re5fi+ZSx9D1YY3XUlC669evYyt169YttXaeXP4SU6PR3f8UnF/Xcl37laPV0ewkPlU88f/9+i1GHnuZlfO64mUuf2oC61auYU+iZsNG9aa0HfgGgzs05P+Kyafs3Q9lIv7eX1zc9yVr1sZxMjMX3KpQt1k3ho7oR1BN8SnxKQeIT01g/co1RCnbPWAog0Me07XbovJNlWPUf7r8929zcd+XfLEujqQMrV90ZejIAQTWKED//x4l5oobIUNb4qpS6dY5bG2/09pM4h0iHmRudoZ4Wyj2M2514a3D7Pk1lyptxvHxmLZ4lbMyv53iS1w//QWUSUqt/SXdPhMDMV/epB0s1y7avriYpG9G4FfRIEOJ6lZa8cY94Wj6SfzDFV+YbPP4tnv7MJm+9OovofnDkrnUQXR9WOONrxeWzlocpZ3mfU4f72IQb2/9xKeKNf5+Lmnnd7BkSyo0NLS3Qb60KCa+vYKz+v0a5GaeJGbJBJLSPuTz1/2KzackvijxuZxc8y+m7s7QJ8jN5vrRb5h56hrjlk+mrYf4lPiUHePNtfuTiSSlG7a7wPKt6D8XlzySTPrFZmaOvK7xC9P6n439huvVujIqQP/dvqj9Y0seiZd4U+8dTT+Jz28bS7F54bZQbmeTAbTrkH/RVnjIuZ3JCe37Z582XLQVBEGwhlrdmLezm721EASnJmDETnaOsLcWgqOhPgLjrAUpc4lf/wVnc93we/1DJr/ih0c5yL0Sw4KIT4jftI6YLh/S0aPwkoQS5noUy3dnwKNtGTf7HdrWdoP7GSStncHMbfEs33aWtm88zIfalSziU4VRXO22shxb/eL+WQ7HZlOlfTB+st4hCEIJUqQ/J3NxcdG9DOQTK+jxzjpSgajpPejRQ/1acUKbPpuLsZ8wdVAfdVyfMEZ+sI5j6cblnWRFjx70WHYS0hJY9+FI+vToQY8eE4i6qanvQSYnty/kXWVZC/Zw8baRfvdvc+kHRZ09+jBo6kI2H00j74ELqbsn0GN6FBjp3GP8HtK0+qQfY92HIwnro47r038kM1fH8numS8H9YSBrOi83lWMbZjKyv1qfPoOmsu5kdv702ZeI/XQqg/oq6txwjNT7+ctPO7qOme+EafqoD2HvzGTND7+T+UD91HFCj6lEAURP1bevxwT2pGvq+8uwrh59BzF1wWaOpeRZ1D7tNfNpU9n0uhtu7efoB9GMNri5ueHm1pdN/3XBxeUK0QsmMrxrZ9r4u2ni3HDzb0PnN+ey43SWUfk/M0ebxq0vm65mcfbribz0tA9ubm74PP0SE7+9bFKfrNM7mPtmZwJ8NPl9Aui4WX1zAAAgAElEQVT85lw2/ZxilP4Ic5V1/FdR/y9z9Tq+volUFxf47yb6uvkwcKu+mdOf17dlzs+WjhXTcuZvO5j7Zhse15Tn8/RLDOr1T70es47o0qZ+3Vd/ffbPivI0ttDEzf3FqL77qfz89VyGdwrAR1HP6KXfcdnIt47M0pfT9+tUhb4/G/WbUXtSf2bT7OF01tjKzc2HgF6jWfbdZe4WoX+UctbF71j2zquKsfQ4bd6cw6ZfswzT/3cTfXW6zuHn+6nsXzqal/w1souLUZq5RmnmqtNoyjM7tn5JNdLXxPj9dg6DnvbR9VlR2l/QU7/C0mdfiOWTqW9q5rs+hA2byic//E6Gbu4xUd7VWGaOfVM/h2jmtk9+uET2A6P6zMw3CTdyDfRJLWBeU5eXpPucMG5P2tF1zBw7SJd30NiZrDuaSt6D4hlfJSVbayuR7W8rc+mKQmm2Iy1qguH9gDb+r0tEzVfc9wyayid7zpKhTqQoT6+zQf7s/xK3eipvau51evQdxNTVCTr/LW07lUZdZU22qP8e/E7ST7lQvx+jw/ypUV4d71a/IyP6BwBJxJ/Itqo+e7e7rMppifFcx412w0fRrk4FdXw5D5oNHEHXapC97zBnrRwXjtI2Z5Et6r+H1aeKq933z2rK6c/oMH88yqnjKzToZFCONn3qCUO/AHApX8PAL343Vd8fh4n5nxc9Q/wM6//fRbPfqQvrD6ezmcgOJcv4cR7ZWoq049b4/AydnP+YFm0CVKrbJC17m6nR+X+iMyMxieGfzKNbbaPyflnCmz+kkqr4qQP3QXUvhaj332bF6VzDsuKW8+6pa3y4dDgBlQBySVr9tuHPH8glI2k/a5NSqLxqHkHmW6nWIy2K8SONfm7xv+skfLuEhNxa7BwRYL4/FLL60kW+GPc2uXeU5/8m8c37M/BQ/LGH6q9EVrwzlaibRnVumkFS0nA+m9VNt5s5NXoCby87i6JEsq8ksGNxAnk1djL8H2YbqNbzThLLRxnWxZ0MkuLWkpRSmc8/6oZXIe1TXjPdFyrzYwN1vEp1gxOTF/GFcfSFI+y7cIR9Xy1lxPYkFnerrsinJZ5pnZty+UKK7krKb9EseuU47PmD/4Rot/bmcPzjvvQYH02KIjcpZ9n31TT2fbWULz74hm8ntkSbQ1+LUfuU7VQp2m+umdqkFowVU/LlrcPpFPYFl5Vq/xbNxt9Ml29w8qBKZWgflWF6XZW3jzC716tM32/QO6T8Fs2yd6NZtnEGB6In07KqiXYZ9I/KqN/0ddw5MpuXXpnOPkMDcHb3MkbvXsbG6QfY+76i/23oL1N9BZc58tV0jny1jD1rDxDZt4FCOy3RTOuyjH2K9qtUKqM0e5jWZakijUqTJocTi60ZW0q9L/HFsBbs239ZV2a+8VaE/rBG/uvX5bw9PQr9jJlLdloSMYvH41ZjJ8OfVhkOfa1w8wIJ51MNysrNSCJm8WgSrs3jq8Hq3QqqvxNZUdh8gwXz2tMGrTAY36m7J/D2SsO8GecT+OaD2wbzbHH0V3HLjqSLyJbZyhqbWoqyjJJvl+F1lUoFt5Py+WluRhIx29TvPQw+U8zkf8eEn387k2HnhvPZXLWfl0b7SrLssix7hc5jZyhAKlHj32QF+s9Dg/R/XuVCLrg1bcQ/jOKrN22FH0kknbsA7Qu/V7ZHOx8mOeXqWcCPJxq7Gs4xjzxB0HOwI/osF26C36PiUyUhi08VIhdXu29e05TzGP9Qfi4ZlaNqHwBA6rX8fqFSqUDhF+f/VPHEo8r67hL/3R6y6/cjuL6i/jtJrBhd+D2uJXZzCJuILLLIJSJbS7GdcWvAM+Hsmgndp0XRbeYuwpVfrs/vYEF0Bm4NuzF58lCCND9FOBu9nNkrDrNi9g6af9qTuupa1HluZlDlpeks6xdE3Ur6oq5vm8GK0/BY6HTGD9TE6cqK4pvDfWkW4gF3jhG7OwNajSLyvY54uAH3c0m9epi9X8Xj4uKCd/eP2FV3uWmdgev7dnA214tXZy1lQID6/yJzb1/n7P5trE6xfOVcnSwX/i+Y8A/C6ejrgRu5XN/9PqNXnSXmSBqhL6m/ylzcuYCom248FjqZKUOC8HIDMs4StWw2y+NXMGNnc5b1qgtc58COs+TWfpVZiweoF6vv53L7xlnitq8mxcUFF69QPtrlw/Lu7xPVZRa7RgYY6JV7KJaomxA8OpJx7T1wKwfcSeXiL3tZe0TzdMCi9hWUqjZhm/Jov+lV6g3Yrr7UJ5JrG8Pw1peAS7shLBk3lrB2flSvCNy+TPTcAfT4zxEghWVffcfY0DAaaNPr8nrT88O1THnZj+rlM9kX0ZFOs04AKSz6dj9TOnahOkDickbpFtZ6suTESkY8WZ2cCxt5q91ANqaksO/fo/i4/UEmP1vRqA4Xtay9oGyvi+ZJSt0wNue1Z2NYPQZuUUfNPJTH5Gct6MCC+DOaRWO0C5HedJm/mci3W1K9PFxe/SqNw7frdNI92VFazeAJjwuGUdo2ZRI9Wbto25wRGzczr08DKt5LIXpqd3osOAE/T2fOttfZOaiBiS4wrMNkv/0ZzUTtom2zEXzz9Tx6NqoIKdFMCO3BokQ4MmMOm8J2MqSRjX2VuIiB2kXbF+dx8IsxtKwJmb8t463mo9hOCpvGf8HQl2fSvqJeQzX+DFm1i531q2N8ikehaYo0tjzoErGLnc96U7HkDrEpfK66c5iVs6LIcHuMbhOnMDTQC7dykJtxkcNbF3NBM1a0xejHDuq5f1e4YXm5qexfMpoFu+M4OcSfACD3V0vmGwvmNRfQW0Ux9q5vZ8bKs+TWDCZ8UjjdnlD/Fi73ehJR66MMdXZQbH0aK5Q+JWWr0hwD+f05l8OrZua/B7mfy/VflhMxO8bws8Zsfg+Ch08hvJOf+t4rN5WEL2YzZ/c6os6E8kaTUmui+FSR0H5WmbkfTL7OWcDvH975+7lSVaoCufetuVcWW5UMqVy/CNAIn5r57VihUhUAXB5Y9hkpdioK4lMmKa52W1WOjX5x5xjxP+XiN+Q56ikiLLvHLRynsZngcMjYKZsU6agEW7ieEEcGdek/IVy9aAtQzgO/0HGEv+AGVw6TmGaUKWQyi4cZLtrCdQ5/dx2ahxMxXBFXzgO/0KH0bAhJhxK5DeDmhivArRQycrTp3PBq2I4BEZMNdl6Zw7VSFeA2aX/q96C5Va1LQOgoFg/TLIKmRTG+e3e6G72WHzcuzY+hcybT7QnNZF7OjbqdehIMXPyvdrfadRLiMqB+f8YP13xhAvDwo9uYcNq5wfXDiahTu+JaEchO49Zf+vZVrRtAt3cW84bRIrQp3Cq5AnArNUO/Q62SF4+1HcD0ifpdMSVPSybHrGTEi5pFW4CqDejy5kh6apPsuGy4m1FHQ55u6Uf18gDVad+xiz7qZiZa0x/ZvZAj2uvjRjDkSfXu3YqNwhgZrl1CPsG07fG6PI5ASuwXLNM2vNlYZo5uqWkrVKxSXJXsY+MKTSUhIxnbp4F6YbK8N13CXqe5Jln0d/FmbGBBFfs36trRfsRY9aItgHcXXh+gq4Hoo7bWACe+09t4zOgRtKypfl/9yTCGDNcqMocjiaZyN6ShiUVbS9IUbWxVx7t+yS7aWkLusXj250LAiAjC/6letAVw83iMdsMsmE8yLrJ/8xJmjBnGsLcG0rv3MBbEZUNuKrf+pynLovnG9nnt+qEorlOFl8dP1i3aArjVDaDnRMvmfEF4qLmTQPyPubp7LN09SDk36jZqRKHHC2ryV3lpCpNDNYu2AG5eBA0bQFuyifnZknMeBaenWo1SvIcUioKHZz17qyBYwsPqU8XVbivLMecXt+Nj2J8bQKfnDEtznO/UgiCUJYq0RODi4oJKpTIdmkl361YqEEqjusb53WjU+DH48SzXk12glkr/tMCtgon6bpFxA7ixhIHdl5hW0C2bbOD/yreg73A/4lZ8w+h+O6jiVYNGfm0Ibtua4GcaUqO8vlxtPWDYHq8ObxC64312LxrG/uUeeP2jEc2Cg+nYui3+dSqo0xXQT9ryzPaf5umf/rqmfV0aUc+4fys3wq8h7P/9OqmAt4s3HYd0Y/u0KBa8sZ9PPLyp27gpz7XqTNs2T+BdwbB9KNqpK7d5X8KbxLF802jCtlXB69FG+D8fTNvWwbR4rIZ5OytCS8eGUe/kT593g8SoaLbGRHPkQiZ3Lu3jyAUTfWqiPAPblVeu9GvrSeXSKf2CYM+nm1BRUX9D31aAZufqlRSyXFyoaGJXu15fy/TCxJiyNrx8Ybu+vO7BNC9Ej4Kvm9Hv6lk2aq/FvkVj17fyNx5gy2Uub4TaJsvR1mO63y7/rquBfeGNcQ3Pnw5g+4XLuLjUtqG/bnD2hN7Gi7r8H4tMV8Hxy6nwrJfpcVTAnKZMp6z3snJsNfenkiK+QSPl2Eolk/z9Z2ruKa7QvN6GYUZmCvAYQU96WF1e6r45jF94mAxMcZvsHBeopsLlacP5xrtmI/yeC6Zdm+cIbFBdU54XnYaGsv3fuzXzmhd1GzfjuVYdadvWHy9XrT6KPbcaPTIyUoGONPcruf4sydBSW0lo39ASOxWV0h9zGp/5K4MUwO/ZADyM9TChn7n82d+Op/u3Zhp3J1d8ymlCgw4s8PMxX/6/MtSbDFxM3O/Z4FMSFo8dXUzYMSP9GlDPov4XW4lPlUhYTO22rhxdSpPpM//U+oXynvIW8fsSIHAcwTWM7GfRPa74loQlE8r4cY7QForljFtzobl0YGV6c/VYoadX6EdsDDxL3KH9JJ1IIPGXb1ge9w1rar3M9E/fIKBSIe2pGsDwVZF0PHaYn35OIOHEGfZHJrA3cjkB7yxlVicvVLW68dEuU/9ublk7VcbXzaXTFaO/XvXpcCIjO5Hw008cPp5A0tk41v4Sw9qVAYz6dBYdaxXSn+W86DZ7I0Hn44jbn0TisUQOf7Oc/d+sweul6SwdFoCbhfYuKE3+tEbxl7fxVudX+cJoobaw8gu7bs4G+fvCdD3m67dML7Nj2MpQR3nL9LZeP6yisHYWmt7C8q0OLa/ApF6WjHFL6rV2PBZ1fNg6JxdLujuHWffpYfURCyNGEPrPulR3rUrVSpC6ezzDVija/YiJ+WbzcvZvVsw3QJXmw4mM7KiY1/az9pe9innN3FxZOv1Z0nZyBF0kLJqvFJXSH3PWzWWW5jeH+JTzhIoOzB//j3r4AdfSM1CpvAzjb9/iFuD2SPH4lIRFCb2o9xjweyo3s1RQzTD+9v/Uf/rEI+JTpREqOjB//MPqU8XVbqvK0fpFCrf+B6pqhuX9laX1C8X1tMPsPeFGuynBVDGu38J7XPEtCUt6brG3HhJaZidLKZkzbtUJdOmUSWvU8AaOkXTBhWa+ygy5XDx3EfCj3j/0Zxe6aMrKX18NatQBGk9h2/hg3CicCnX86fSqP51eVcvXtr7HiC92sP3IazR7oapO5zyVmbOdyteg0bOhNHo2lIEA/0tgSXgEe7+K4vfOb+BngQ56jOswbqumfYlJXHrQjMfKKZLeucjZS8AT9fByUZyTU6MRLbo3okX3gQDc/mUJb8zcy+o9v9NpiJ++jnt5pu1XvgLefp3o69eJvgD3r7FtwgjWfLud+L7NaFfNglZZ8AQhX7t1bcgker5+0bZ5+FpWTe1Cg+rVqf7nRl5pMEC7X1GRJ/+TJV35JuupzWNPecMW9c7I7b9fwcWlti7VlQvx+iwNauPh4mJ4TiyZ5NwtrA7Ne6NG2/hwRYe3d3tgn1o4cZnLLq1oqC8+nx75rt/O4a6Li+bn/Wb0q9uQnmj2hTabR8KxsbrjEcxh0DvZOYoxYNo2DX11NdB8bgIJ7xVWg7UY2njolj9Z+XL1grOYeEKZz1yFpinq2Mo/X5YEhflo1SpVgQQSfsukV51CfxCNbi77K4OUXHhs2BRGdPQuOC1YPt9YOq8pPicqVK4CHCbpj9G0KMUzNIsTW5/GCqVPSdnKPmNA46OaXwElXUvDxcWcP5vSUZO/Wg28gcx+y1gV5hg/vxafKiZMfT7W9MHXDc4eO8P1of4oLZ7xWwIXgaDHG1lsA7FVyeHl4wckcex0Hu1bKb493T9L0i9ANX98PeUMzlJFfEpPcbXbynKs9Ytrh6I46xZMr6crmFkzKJ3v1IJgChk7ZRObz7i1dYW/Xou2eJDC9tmL2Z+cq75+P4Mzu+az7MdcqB9MMy9FPqPy9OXXJbhzPYibz3urErj2111dXO7ta5yJiSRiY5I6X+puZk+PZP+lFHLva/Lfu0vVOj5UUZZfDtyAnw4d5tY9Q70TPx/Fkl1JXLudq7/uWoO6tc3pV9jKemH9V5cWbT0geTuzP91Pyl1NfMZZdi9cxv5cqBfcDC+VCkhi1buL2X38Ghr1UKlUuHnW1X1Q6cp3A34+zE+3DOtN2TObiPX7uZiqaN/9qnjVq2J1+wofG0Y9obuQQ+af+usNg1rS3Ls67hXukHnlBpnGPWjmaYW+XpPRPBs6lpZaYdVnrDml/mF3zvmNfLZc+1P35sx8uSUVAZXKC+8QbYZ9bI89Qw6gupPBieP5DjDW1F8Rd8U/j26L3qfT31bfadiii34RdcdnbNyn1lt15wbHT1xSlqDLV71mQ/3lddHs+1N9PefycX49Z6Jz6nZhyHDNl/TECfxr6nbOpN/RRef8eYYfvxxP92EbuaHRy8u7vS5+345oztxRATlknPiV/L0DXh2GMFJTxYlJ/+Lf28+QqTvwNYeMsz+yZlJ33tx4w6r+Uca37K638Zp/vcPSny+Rc08Tn3eHS4nbWdj/KWb/bMk4sjxeWS+rPmPNb5nq/jYeWz1bUcHCcm1pf1HiqzRvS5AbJC2bzvJfUrirmQtzMy6yf9UoVv1qei5D83Dp+uHDXMvVlJubwYX9kSzfcdGg/pQ9s4lYt4+Lqbn6+u9XxduniiJdIqvfXcLuX/XzGoBrTc28VkD7/II74UE22+fNZvfZW7q43GtJbJs7m92p9utfa+IdSReJt3wusPVJujlKq50GcrVGBNSH3D0fMX+/+t5Jde8uGZf2s2rOGs4Wlr9SEMEvuJGyeQazd50h5Y4+3d3UCyTsWsKS71NKtX3iUyU35innR0BrN7iyjsUbz+ruoe9e3Muy9UlAAMFPVy02n5J42+O9mwdTl1z2r1jCvmT1dyfV3VskRS4l6n9Q5YXneEJ8qtTizaV7aH3qkScM2p2h+d5urt2Qwu5xoYSGhrL8uPlyzPWfFq/mwdTT+IVufSI3Q+8X7YPx0+l5jaM/XqNK11CCK+Vvn/IeV9e+e1WM7nEL7p9S7XOJL3PxMjc7frwtFHnHrXFYaLxvT8Z33cuUPTHMfyuG+cpMbn6Ev99L/aVcm8+oPGX59V6eTvjPI1m+I4IRO0wo2bW5Lt+tY98w/9g3+dPUDKVXq6rq6hoHEOy2m/0xsxkYo4l/IpxVC0JxybvI3hVT2LvCuAA3/EZ2w9/S9utTFBjv4uLCYy+NJzRmCrtj5jMsxqCncGsSzvSX6+me8t07H8Pyf8ewPJ96foR39dOkU98E7P5xL3MG7tUk8CN89XyC7t8iYeN8EjYaFwAe3XvxnLvl7St8bBj1hO6CN+37hOG9ZSMpwPZhjSk/LL8++fOZvm7uYZNL85F8On8foe9Fk5Kykbeab8TwJFdv2n/4KWNbVtKU05Cug3tCrHqXaPS/mlL1X+qUDX0bYoy6/uoEdxmJ94qlpAAnPuxIzQ/V8TN/useUZ23wnWYj+TRiG60jjgBHmNbRk2lajb2VO6L0+Sq27sXMZguZlgikLKS790JNhobk1xygOl3/s4WZv/dh2v4Ujsx9haZzTSTrs1anV8MXh9KTfeo9tN+Noun/jVKn8TVdh4tnV+ZtncmZ3tPYl3KEOa80ZY6JdD3XWdk/yvhmY1m76SydXlvDpZSNjHpuI6NM1DHzHUvGkRXxzYzGVjMzY+vZioWciW3D+Ciu+BrtCR8SxcgVZ9k9cxi7jfQLDTQ9l1HzOUID1zD/2BpG9FqjiHfDo6arYf33b5GwaQEJmxYYNx+P7r0IrqbeR5t3fi/Lp+01Pa918zffvif6Mr7rfqbsOczy9w4b5fcjfIgd+9fKeEfSReItmwuKe6dDabXTUK5Hp2HqM6b3zx/GfsUtiFslN4NfOZnO70bwWxGEJk1h94rxHM537wR+w18t1faJT1kfrz7mRrlMv5xhoeoZ1W/4KuZ31957uBHcbyh+h5Zzdv17DFxvUCwevQfSyQMo5N7XXu18qOLrhTKy+3am7NrPgrf2Y/Ap7BbEqN7a7wziUyURLz5VWHwFg3YPKKTd5ttZwcL+0+SrF8oIjV/Mf2u/0fpEEKP6KO45f9/L11eq0Olt/W9tDdpl4T1uQf1j6prj2kziHS1e5mbHj7cFm3fc2k5VAkYuY8noTgRo/2bYrQr1/tmXiGXzCa1jRVHlvAmdE6kuy6uK7ouEm0cA7Qa+x5KwAPWFmp14b9oA2gV4U0VbZTVvAjqPYsmScAK0/2FVKZjweeG0q68py60K3j41qAoEhM1n1MtBPKb/a2Q8fIPoO20p87ua/xlhkagaQPinSxjVOQCPSlq96xEUFsHSOaF4645PCKDvglH0/OdjunRU8uAxbZ/q/r7SjeC35hPetp6mH9yo4uVDjUrg3fk9Iga2U/SjG1W8Aug0egnLNGfxlAbefT4nZt1Yujyp79OGL45lc+xKehZbLRVp/u4uTiVuZubg9vhrq/L2p/3gmaz9KYGYSS01Rwpool77nIRVI+miOd6j4bNDmRd7nXNfDTFbS/XQecSsG0vPZ/XLl95Ptqe6zY9LKtJy6m4OzR1KSyM9Ds5vZSZLS6Zs3cXM1/zx1rSxy3trOXlqLzNbm6mmakumxJ7i5JZ5jOyj6B+g4bPtGfreSjb/uwu6y3XD+PznlYx8UdNO35YMnRvD9VNrMdc7FZ+dQsypk2yeO5Ke7fxRWJuWIUMZu2ozM0OK5lcN+6zk3PUYVr43lPYKG+DtT/s+I5m3LoawJ4tUhQmsH1uOiHf3+UR+PIpOAR76+aB+EH3HL6N/gLlcHrSbtphRivnFI6AToz6O5KPehj+Vtmy+sXReM0VVAkauZdW0vgTV19fhEdCJ8A/eKySvIDxc3L171+T1qk+Hs2RGT929mu7+Y+FQHrOk4KoBhK9eRUSY4b1TlfpB9Bw+m/c6e3Pnzp0CixCcCK9Q5i+LoKfyXttDM68Pse4wMaEkcSNg2DKWDG+n90vt97CVEbSz5IQkoXR4WH2quNptVTmW+8XZg3vJrtOLTmaO4nKU79SCIJQtXFRW7ts9duwYAM2bNzdYOVapVCI/5PKJEyd4+umnHUKXh01O/foV/tFPcwJwxCHu/7tVkcoTuezJxzXHesjc7fjyiRMnaN5cfTCKvXUR2bxsiU9dvnwZW2nQoEGptOPGjRvUrl3b5vxFkW/evEmNGjXEp0QGLPMpkR1DFp9yDll8qpjl+0ks6zOZxH7LWN7Hp0TqE5uJXBT5+PHjMjc7gaz188DAQCylyDtuVSrT5zmILLIj6eJI8pEPy1OuXDndq3z5wuU+m1IKLd8YR2lvUeT4Dy3rH6X8yqYUi8t/mGRj7K2PyJbby966iGyZraz1wcIorXbcu3evVOtTyqmpqaVWX0mWLbJ9fEpkx7CTI+gisvhUach3f/6evbn+dGtdr1TqK406RC5bsjH21kdk6+xVEMV+xq2EEmqxtw6OGlr0V70msKTPleXbu53FOZaswkH0drRQ3z2OoY+EltvN3jpIaLtPaXfNFoWSbke9evVIT0/H09OzVOrThmfPnqVJE/1vTcWnJNRibz0kFJ8qK6EWe+tRNsJcjh3aT27z0bT2Fp+S0DFDc+8ldKzQFmxeuBUEwTZaTb3P/an21sI5kL4SBEEoeVQqFTt37iQ0NJRHHinZvz/Iycnh5s2bRn+qKQiCIAiOjBvBE6KIsrcagiA8lBTp7tzeK9USOlaoxN66PGxh7bCt3L9/nwcPHnB/aiu76yOhY4Za7K2HhJbZyRF0kfDh8CkvLy969OjBl19+yblz50hPT0elUhVb+ffu3SMtLY3z589z+PBhHjx4gIeHh/iUhGXWp8p6qMTeukgoPlWWQiX21kVC5wy12FsPCS33dUso0sKt9owGCSU0xt66SCihhOZ91N56SGiZnRxBFwkfLp8aOnQojRs3ZsmSJbi4uDBs2DDS0tKKHI4ZMwZXV1du3LjBCy+8QL169YpVb/GpshNqsbceEopPlZVQi731kFB8S0LxeQlN+7oluKiszHns2DEAnnnmGZsqFMouv/76q4wLQXBQfv31V0DmbmdA5lLnQHzKeRCfcg7Ep5wH8SnnQHzK+RCbCUVB5mbnQOvngYGBFuexecetvVeoJXTc0BF0kFBCCQ1DLfbWQ0LLQ0fQQULxqbIUOoIOEopPlaXQEXSQUHyqrIWOoIOEzhlq39tbDwkLt5O12PznZPY+E0JCxw4dQQcJJZTQ0CcdQQ8JrbebvXWQUHyqLIWOoIOE4lNlKXQEHSQUnypLoSPoIKFzhubeS+hYoS2U7F8HC4IgCIIgCIIgCIIgCIIgCFZT5B23gqBExoUgODbio86B2Ml5EFs5B2In50Fs5RyInZwHsZXzITYTbEXGTtnE5oVb5fkMLi4uIosM5D+3w5F0E1nkh10GmbudRZa51PFlLfbWQ2TxqbIia7G3HiKLT5UVWYu99RDZclmLI+kksnPJMjc7vmwLxbJwazw4RH54ZUfSRWSRRTaUja/ZWx+RZS4tC7LYzTlkR9JFZPGpsiA7ki4ii0+VFdnUdXvrJLLIIpecbCkuKitzHjt2zKaKBEEQBEEQBEEQBEEQBEEQHmYCAwMtTit/TiYIgiAIgiAIgiAIgiAIguBg2HxUQqNGjXTvHeGcCJHtL1+4cMFgXCttMWMAACAASURBVDiSbiKL/LDLFy5cAGTudgZZ5lLnkM+fPw+ITzmDLD7lHLL4lPPI4lPOIYtPOZ8s9+siF0WWudk5ZO3cbA3FsuNWq4iLi4uBLPEPV7wpHEU3iZd4ic+Po+kn8TKXOmu8o+gh8eJTZSXeUfSQePGpshLvKHpIvOU+5Sg6SbxzxJvDUfSTeMt93hQ2L9yaUkh5TeIfvnhH1k3iJV7iJd6Z4o2vO7KuD2u8o+gh8eJTZSXeUfSQePGpshLvKHpIvHXxjqiTxDt+vLm0jqKfxOf3c2so1h23IovsSLqILLLIBX9A2FsfkS23l711EdkyW9lbD5HFp8qK7Ch6iCw+VVZkR9FDZPOy2EzkosgyfpxTthSbz7hVDhAXFxeRRTYYF46ii8gii2z+w92R9BNZ5lJnk5X2cSS9RBafclZZaR9H0ktk8SlnlZX2cSS9RLbMpxxFJ5GdQ9b6vPE4chT9RM4/N1tDkXfcGlcsssiOULfIIotc8IeCvfUR2XJ72VsXkS2zlb31EFl8qqzIjqKHyOJTZUV2FD1Ett5u9tZBZOeSjbG3PiJbZ6+CsHnHLRiu5osssvKavXURWWSRRXZW2ZF0EdkyW9lbD5HFp8qK7Ch6iCw+VVZkR9FDZOvtZm8dRBZZ5JKTraVYzrg1S/ZlYj4bz5uD+9GvXz8Gj/yGcyVaoeOTtjeCfv0iiEm3tyZ2JvsPtkQM4sWgR3n0UfXL/53dpNlbL6FskLBQN64efXQQW5KLXmTWkc8Y/VIr/HXlPsNnJ4perrMic1nJoP1QL+qHu+AYZGZm2vxyWNJjiOjXj4i9+k9sR54PxKcEoXgRnxIEJclETerH4GVHybO3KoKAzM1lFZt33D548KDArb4qVSbxn0XwZaJ+CsvL+ptclQoV6gFVcH47xJ/8iv7/iaHjxHUMfKpk6tf60QPVA1Sq0m7/ab7qP5uYDlNYO9i/hNqnsiDvFdYPbcW7sYbX07JzUKlUPHDEsWF1fDpb32jC8G/V16Z89ydjgxxJvzIeb/yBpVLpfM+W8u/un0bLPkuNHixcISdPX26x6l+C8YXP3ZaVr+xPZR+UevvSY5gx5ivO+Q5iYURHPB28/y2J14aOoIvEF/6TpsJ8ylaUY6Gk23nmywHM/gE6TlzHoKaF5Nc7v26cmpsPSkt/8amSj0/ePpYJiS+yMKITtczlTz/BlsgNxJxK5u88cHVvwnOv9iOsbX2qWFC/luL6nJJ4M/H3bnP1p02s/+YnTmflgWtl6jzVkX5DXqFZDfGp0ooXnyogPj2RzZHrzbbb4vItLEelUuHy4G+uHNpo0i8CPArQP/k4+6+50u71IMqr1OscRW4/TmgziXeYeJmbHT/eFmxeuC1MEZeMo8Qk5lG51Ug+DA+mVjkr85f1eBxcvyLEF5r3tyhWaxdtQ/7D4a/e4PEKBgWUmG4S/5DEB43lzz/HFlP5WRyM0i7a1mLk+nhmdnYvmn4SL/GFxFvyYe8ouj6s8damsxV7t7OsxItP2Rh/P4+0S3v4fGca1C8gf3oMMyd8xTnFlrO8rNPs/zyC039OYWHvxsXmUxJflPg8zmyYyOy9WYpLf5N8/Fs+OpPMyAWjCXYXnyrRePGpguPTY5hRSLstKt+Kclxc7nF6/YRC/MK07ufidpD8fyG82cTC9lkY71A2kXinipe52fHjbcHmhVvt01az3P6bTOC551vh+Uj+HRgOiVZHEztGir8qe/SJroGF28/WGiwp93YGJ7Xvg5rS2M1JxodVGLWpFMaUUFJkkqnbavtPAp6qVmL+UxoUt+72mcsU1Axh2toQjTKmdzo4I848xh427Pp5Wkz4D17L2sGQ77PLJPoExjrafT4oAPEp60mPmcnYSOUhZyoz82weR7du4FyeK417T2Z098a4l4O8a3Esm7+Ko9s3s7/DZNqaf+ZpgNiqBEney5d7s6BGMCOmDCPYyxXuZ3F680fMjzrKl7v+oFW//AtjphA7WY/4VGEUV7utLMdWv7h/jl/i/qZy6xb4FvN6h/PYTHA0ZOyUTYr052RmORnJgHkxAMTMG0CM5nLHCWsZ2BQgmysHNrLhm8OKnyKE8PrAV2hWU1nQaSIHzCGmw2TWhuaxOXID0ceTyaMxAxdPo2MN1JPqdxvYEH2UK9qygvowclBH6it/A3E/mys/KerEFfcmLej0Yh+6BHiS+aP+g1SpM74DWTi9I54AfyayOXIDsdqfW1StQ5PWXXkptC2NLfzg1JGbTuLWr9gQe5rk23m4ujehy8hRvNLE6Acg2VeI27SBzUdOk5WjqTPkdQa93AxPo13M6cc389XmWE5f+5s8XKlcrwltX3yJbs81xj0jhpljItVnDP8whwE/aHM1ZuCiaXSsCdy+QtzX+rqo6E6TpzvRtXcXmnm5WtlAU6Sx9Y0nCd+puDS3K55zAUJZnvgFvetcJfbT1eyOO8kfVw5y9JImXcMWPN+yI0NHDCXUX9nZR1nk2ZXZaMr49WOaHl3I9I+3EHsmjVr+IfSZ+B9mdPPJp03Wmd2sWbaGLT8c5I80oNbjPN+hD/0G9qN3UC3zdSR+Qe86mqiERXh2UcfQYzm/re5NreStDGkWzm5FCbO7eGryw5TodMYE2dB9BnovZd3Go1wFavmH8LxPKlu/1yyHT9pD+rgWAKRtG8KTw3fnu25si3w63Uvj6M71rF+7hZhDf5Cmqaf7wDcYGRaCj2KYHl3gSde56vehK37ji17aviug3wDSjrJ17XrWfxvDwTNpQC0e79ydoUNG0r+DD8pN2FZjYIMp7EkfQwtTOhU2XpT2BWA34c08CQej/szij6g1LF2l7K/n6fhSP/oN6E0Lc7+Bc2CyL8WxcdO3HD2Xzt95rlSu2ZgWPfvwynPqm1+TXItj/uffcvlGunoOQf2ztOBXXyfsufpUUeazcL4pcF4rBwafE4MNtzukH9/MV9vjOH0pizxccW/YhLY9B/FygCeu5togCA8h6sUE9PcDWm5fISZyKVsS9D8zDW5dnUyguiUFZydzeMdXbDl0jvTbeWo/b/cmI19rZn4eEZyP++c483Me1Atj2MuN0d6ludZry6Dehzn6+WmOnsymbWtTP3IWSpP03xJIxpXgAZrFKYBy7jR5ZRAhcTOJPnSUc/0aY9nSrVBiPKw+VVzttrIcm/3iwlHibnvSrY1RTIl/pxYE4WGjhHbcmo5T78TI5vSXk5j7o/FPEXYy/9RpBs6eRoiXMgdwfBVjD6STnqe/zn0VqnvpxM6ZROQfeYZlxUcy9fdkJs0dSJOKAHmcXj+RuTGKOskj6/RhNp9Oo9LCaTQz1x6V5pyQP2OZOTGS88qqbieT+N0qEnNrEjm4gN9HKItTqYArbJw+kbwc5fm/p9k5Zz7VF04jRPulKfs0ke/PJfaWUZ075jPx9EDmTg7RLd6m/ziTSV+eVxyKnsff1xKJ/jyRPI9IBnqbtwoqFao7+esiJ4vT8Zs5nVaJBdND1IvXFrXPbGwBu+G05+SlkjRjKeuNoy8d5eCloxzcuIqha39iruKn6voyf2F272CuXlL8YcqZWJYO7gKbjxHRVrsUeJeTy4cQNi3W8MzStD84uHE2BzeuYv37X7JhdJBu8VCxv8joDD+DbbX68/4K6QVbH4Rd3TmGXsPWc1Wp9plYtp4xqMDg/DFT141tYaBTdgKLBgxmziHDE13TzsSyenIsq7dMZs+WMQRV0WXWl6My3M1trt/uHlvE64PmcNDQAPzx/Womfb+aLRP3sH1ckO2LtwY2MNzNYN14KcBQ2v7MPsnS8DAivjfur4OsP3OQ9WvWM/mrDYwJLNJSdLFhyVPY7FORTJoXi37GzOPvP08T9/lMXD0iGfiUohylP2ReJvGS4b8T5WWdJu7zqZz47zQ+ec1XfTHHsvmm0HntKdCNZaOxlx4zk0lrDfNmXUpk58KlhvOsgyJPy52HsrDj1qQ/m7oHyTpNXJT6vbvC5yzNT04Wp7+bz5iLA5k71bL7iuJCfMp6aob8m8gQgHRiZ4wjUntPbJzw1n+5lAeufvWpbRRfzT8IX05z+uJlVM9Zc68slARp188Bvvg2LG/Yz4/40uyfEP3jOS7fVOFbo/CyxE7WIz5VCMXVbivLsc0v8kj4MZa/6/YmsK7is8/Ce9zCcBqbCQ6HjJ2yScnsuH1qIJETYOC8WEImaL9ca7gUzbIfs3D1CWHUO2Hqp073szj/41csXptA5OI9NJndFeXGPG5lUvnFcczt1Yw6FfWXk/csIPIPqN9xHCNe0cTpyopl5y8v0aSNO+QkciAmCwLf4JORbXF3Be7nkf7fo8R9kwCAZ8dpRNaONK0zkHwomvN5nvSYNJc+TdRPyvKykzl3OJqNVv+Lch5UDWLgxEG0beCOK3kkx8zh3xvOE5eQTsiL6un8yvfLiL3lSv2Ooxj1WjM8XYGs88R+uZjIY5Es+L4Jc7vWAZKJjz5PnlcPJn3QR71YfT+P7NRzxH+3kXRQ/5w4sg6RA+cS+8KkfAvNeb8cIPYWBA37hBHPuat3o+Wkc+V4HFuOWds+c9Si96o0nt82hKfCNd/8eizj1Krehofyt+7H3LdH0Lv147hXALKvEvtxOK8vTgDSWLMxlpGde5N/D60Xoe8vY0zXx3Evn8XB//Si94KTQBpLow4ypm2I+onrqdVM1C3admPugY8Z6ufO3Utbebf7CLampXFw1kSWtt5j22Jbnd58kfY8W4c9xQjNjtbJ0WmMCbS+KANuxbJ0inbRthYhM79k2bAg3MvD1bVDCBoXVcQKALKInaFdtG3K0FVfMKOHDxXupRE7K4zXPzsJx+awcGdvNoTlt4Cl7ZiuXbR9aihfrJ5Bt4YVIC2WiNdeZ+kpSPjPQrb02kC/hsXQJLNYMF4Cx5CW9jyLanVljiaXsS1Prp2oX7TtMZdDC4byuPtdrm5+l65vbyUt7SBzxi/l+egxBDnG2m3B5CSwdlEsWa71CfnXKMI0u1Pzsq5wNGoVVwrK+9RAIiMHGl7LS+fwqn+zPOYwp1/zpQmQl2TJfGPBvGaO5D0sWHuevBpBDHxnECGN1A968pJPE7MttqCcgiAAkEfCugX570Hu55F8IpIFi+MszO9O0IDRDGrnq773yksncdMSlsRsIfaPEMIeL4WmCCVPSjLnAV9vE8sRFStTBci7X9pKCflJJ/kKQAPqmFiYdatYWf3mQWnqJJjkYfWp4mq3VeXY6Bc5iST8kofvay0M1i0su8cVBEGwjpI749bMebE3EuPJojavjRhAQC1NOY9Uo1FIOAMvjuCTnxL4Lb0LtZW7odq8w8ywAAzPXrtBwr5kePINxvUPwF0b90g1GoW8Rpe4BDb98hu3n29FlfLl1Q3NTCMjR0W18sAj5alZrxW9x7XSl1vAGbflK1YG0km/lYFKpf4QKF+5Nv4hQ5mp7Y8/Y/lg3FrOG3VFyPivGPCUrmjAl9cmv0OHmuqOUlGe2m27ELThE+JT0lGpagI3SIzPgrqvMaJ/ADW1OlZrRIe3BnLuX58Qf/Q30rrUxpPylK8A3Eon8y8Vqgrq9lWu7U+HITON+s20/cpXUA+FzPQM7qqqUV4FVKiJT8vejG2JxWdHWvKExziF4ZPmQN7dGqhLqVIBlevRYcAbdFucQBTAnqukqlTUy1eaD00DG1OtnAqVqhqt23aABZrjA25lkaNSUQ1I+H4pCdosbw/l9SfUZ5a6NejF0CHT2fqfNOAkc3b/wohnWlPBWGPl+DDRryrTEUU+9yht/3rWaDd1PjWSScMDqabpowoGvxhS7ILC9HWz+qUdZMuXmkraDmVE93q4qVSoynnSoVdvmn52kpNA7A9HSX2tHrVsqCPt4BZdO1oPGUHXBm7qPJ4d6PVqU5aeOgnEEns8ldcb2HjGgEV2sWy8FGzLBGI/1Y0mRvR/ncbVVKhUbtTrM5Q3ZmxlThpwag674kcQ2Nb+K7eF+Whe4lEO54H/G+MY0NwdrR+Wr+ZDq7CZtNLI+g12RmM76wrxB2KJP3aG5L9zyUzN0ux61cxPVS2db2yf12788gPJVObFEe/Q4TH99fK1/enytr/JvI6GPC13HsrGjlt9nSoVkHOCoz/lmbjHKk9tHx/1Q1CDHbem81fuPIp3Qhqh87nyNQkI602rmIXE/XqO1xr7lmIbxadsR/8ZanJ3oMH9s1Fsleq63WWW2kBsVVIobGfCjtVq1NFEWfYZKXYqCuJTJimudltVjm1+kZ0Qx+E8f95oUdOgjtL8Ti0IppCxUzYpmR23BZCZmQ6E0KCOcYwr9RvWh5/OcyMFUC7clnczVRKZqUDqakYNWm26Mtds/gaqlGtGj/6+xK/bxbS3v6NyzerU921JUKsWtGha36Jz1jxbhxHy3VxiV75HfKQ7nrUb4B8YRNt/tsK3OM6qqVgFw9N6NO17oQG186Wtj68PxF+4wZ+AJ5606RtC9EexLB8Xz2p3T+o09KdFYFtatvJV75IpjCd7MODxeNZ+O42ReyrjWaM+vv8MotU/W9DMx9oDfIvIvTRO7o1ld1wsCZeyyLl6iIRLhWfLR/lKJi6mcfWM/ift3Zo+bvBzfJ+GLQDNztVraWQBjnI86dVLih21nVrQtCQquXaObdr3cWNo4TXGdLqdV7n6uW19c/W8rgYOjWuB1zjT6aIuXaVUe9/keCmE5Ksk6YZTNwIaG4wmfFoCml3XV2850mgyT2ZWOlCfZk9Y7/fpP33CBysTyDIZm012DlAVC+cb2+c19edMG5o0sroJgiAA3M4kHfB92h+b7gA0+f/+/gMGfW8mjeK4KKEMoxkLguOTdSsZyPcFTXA0HlafKq52W1mOab/I4thPiRAQTqDxh6QjfacWBKHMUII7bvXnnimTFvR0Uf9wTJvH8GmkcWpLn1apgJohU1na9DzxR+M581sSp0/sYu2RXWyq+SJjP3wN/4rmdQagsh/9P1rM8ycTSDieSNJv54jfksiBLZH4D5nNxLae8GgHpn7ZwZQW+t0oiv4xrMO4rQW3HUWcCqj8ZH8WL36epKMJJJxK4sz5eLacOMCW9f4M/XAibWqaqkPBIzXpMHEpAZfjORJ/htMnT5Oway3xuzbh2Xkss8P8sWT916IdtypDwWAsXIti7KtvsKHAhVplngLOajUYeNo8KpP1F6ybtXVodVRGFX2Hn0H+8oXrXdB1s/pZrKS+rQXWYZjDYKdm4VWYGvuWYlSzzePFRB4DW+bbb2wQV9BYsxeF6ZB/Hi44nW4uy0lg6xcJZLnWp8PAAYQ8XZtq5atQpSKkx37I+HWKtBbON7bOa+bnWefBEcaKYBllYsetvlLNZ4E+Jp8eJuLM5y+4Vruc4yvYgPJ+w8T9t1dtfIHkm5mofzWm4HYGmYDrI5bbW2xVUtSkTn3gQhoZml/AKMn+62/1m0dkx23JIz5lkuJqt1Xl2OAXfx4l7jdXWr0TSGVj+5Xid2pBMIWMnbJJqe+4re7uCSRx+jL4N1DG5HHl0hXAlzreFpVEdS+g4b/4PDzIognQ1cuXNqG+tAlVyzeiP2Ty198Rfaw7/s/p97vmmRvr5dyp37wD9Zt3oDfA7STWTFrIgc0/cL7taxTvD/407fvtNFfu+1NfuSs45wrnrwKN6hhsTMa9PgEh9QkI6Q1A9ok1jP/4AJt+OE+bvgrt8szscinnimejNnRv1IbuAPdvED17Ml9/H01Cd3/+v737D4r6vvM4/qy66qJ1zxRQOCVmwBRiJD2XjNpTGiEXIzWeSa9xOExPzFmt11OsEyWYGtKEasiol6g5Yw1NoyYXtfaMP+oo2AGM5iqMKeR0zl93Mg4KDhmYMUrAZO+PZX/hruwuC+x3fT1mvvPV78/P9/P+fD7s97uf/XwnD/W+W+i0ULbZ9dB2/Ly3Wf+LTBIsFixf7OX5v1lM90dxjSUhJRb227tJHjzv2auz7n9PuTYdHeulp1ELra3dTkRQYmOnAMft//m8jjrSvIzzexc3WvkK7v7Cr/gEfkhHn+OHX+Zo6c8C6tnb8mXXmZPwgPMMjF99lKOLe6TvcO+IS2B8LBxsBDjIuTpwdZGvo+6/XJsm3GeMb9mjzFFADTXnWpgxIoA032jhejvcn/1znpvqx2sX/G1v/G3X3JgGRQFVnLk4n1SNoSkSuMFRRAFn6+2/6wnYUAsxQMvTa3jj7+/43ZBEmuHx3G+CC7XnuTonyeOXYi3nargMpD4Q5Lj4ElLR8UnAWWr+p53JVre7p68vcOY0MDSJ+4f3VerE6V6tU6G67gCPE2i9uHqqlAumNJ4c5+MJRJ/fU4tIpOkX7I6Ot8f7npwbeiwfmToRC9c5vKmEE9fa7MtvN3P+6Ba2f9IOo6ykfMe1vbdj2KeRWH8QB5++w6sf/IX6L9uc69q+rOd8xR7W7ztjX3a9lI3r9nCirpG22x37327DHBuP2f16+oEJOPXnKppve57vzAerKTl6xuM8tv4W4kaAs0efX5Pv/PO81pGkTrRAw2E2vXeCxraO5c3nKd26nZPtEGdNIdpmw2Y7w4eFJZTW1vNlm+t4pvviiMfRC7DjHCbgdBVVzZ7nbjy2kfV7T3D5utv1fW0mJt7sZ7xtfm/n+S2Q+/JWmptca0Y/YuXhmGEMG9hKS12Dx8+vuz5W594CruXWJ35GmmPxjhJ2nm3BZrPReun3lLznHESW/Kw0+/iuthhifuDY4TgHy8/RarNha22htrbGx/kHMcxtgPsDpZW0+F1GvE+jv5eJ8515h0rYe9yebltrAzW1l72mY9jw0a7Fe0qpbLIvb62roeaSR4ba9xmZSfY/dTzI/vwVXvz1Qc41tTqP19p0jsoPC8nJ+z0NHctiYqc4D3P8UCnnWu2xbPm8BlfuuNIUk55Nbscpan/1ImsOnaOl1VUGWs5XsvNXOfxib0O38uvOXrLBlRfPfejUHlnJ/BdnaeKD7Ts512K/jsu7S1xjEo/LJ2viwO5dTzcnb3nhbYoaN4lUE5x9fx3bT7vazLbmy5z4YDUf1nrml3PffvYF9VVV1DvaobZmLp/cw/bDlz229a+9CaBd6xSXROtULNzk8L9vpPRCs3N5W/0Z/rh5I6XX+y4O/saqr9Ogyb84dRWr7ujd6+l0ziH3kzIK2o9t4Z2THe3A7Taa607w4ab/sI/lf7f9B6Vi/b6J6wfWs/HoeRpvubZtu36ZvxwtoaS8sVdj1dflxfCTPRe9r+uXSMqjJriyl3f3nXd+hm6rK+f9vWeBFKzjovyKk2LVs1P0Q1biaOfkDrf7sLZmzux5n7IbYP6+lUQ/jqM4hWBSnQrBdTdS+uo85s2bx/ba4I8TWL2o57NPrmKeloF10J3X0N17asPFTFNYTSo7xpiC0es9bhkzg4XTKin+UwVb8yvY6r7OlMTcnz9555iuPsQ9sYy5p1ex48gGCo542WDaQ85/ttQeYGvtAc/zAQzP5MkJHW+LfCCFNFMZJys3kVfZsT5xLsUvZUJ7HRU7i6nY2fkAJpJ+khni3rZ2CdMXkllZTFnlVlZUeqbcNHYuy55w5dTt/6tgx7oKdtyRvCTmZjhSl0TKoybKTlSwKa/CuWzuG6tI/bqFmo+3UvPxHTmE5fEnSeuVbwZjmfLUM8Tu30sjcGjZROJ8DLHaLeNyWfPKcXJeLqOxcS/Lp+3Fc5jVWKa8uIZFVkff1AQen5MF5YcAKMtPZ0x+xxqf3/oO49GMXGJ/91sagc83/JjvbrCvyT9wlaVWH7t1le4VB3mquAqoYu0/fJe1jhTHeh87ddCkH5I/bgtr/xto3MLccVs6dkjw0Vt3GJm/fJf8C8+z9pNGqt56nvS3vGz21GbnPxMyssniOIcAjhWQPqbAvuIBH+e4L5OXS/I5P38txxureHN+Om962Szrba8JDDsP56zh5U9yeOVII417lpO+p9OgvbFTyH99EWl9/14y/1gmM/fZY6zaeYGyN1dQ1ml1pq8O0sPTyBj/EVtrP6Lgpx+5rTBhGd7pT42f7Y1/7ZoXibNYOO1Tiv9UzY7Xqjvtn8TcZ33vKnKvaWtr87I0jvQ5mRxeV8bJd1Zw8h3XGtNgkx+/cjJhzVlG5tliynYWUX3HZydIyplJe3s7JlMI3hMgPeJ6aRErdrq/cncHK3LtLWpSTjGrHnf0xjZhfXoOSad2cOEPReT9wfM4lhnPkG6MH51EvrhMnnv8MMWlJ9maf7LTfVgquVm998LAe5HqVFdCdd0BHieQenGxnI+vmEn/iY+6Ehb31CISaXqux61ry07rzCQ/V0Th/KmkWDo+rJvMxD0yk7yiAjJivT2N9nGOftFkrNhgP1a02XkjYbKkMOlHP6VwVrJ9u7+ayoKlzzApJQaz45RDY0hJz6XwlRySHd+WDZpAzos5TBrVcSyTmZg4C1E2G8mzVpH7RCoJFudZsIxJZebS1yh4LNr/J+zYfF7PHddqTibn1UJy01OwDHakO47UWXm8tiKD6H6ObZOZuSqX6Y8kOLdjsIUER546ezAPYMI/riJnYlxHPpgwR8dhGWQjOn0BeT+a5JaPJszRKUydX0jRnGQG+PnNgX954Lssxcxcx+63F5GZ7HoQmZCxiG2715HlVqZw7tNpKL27fJvhWj6QcQu2U3FsGyvnTGGs41SxY5kyZyWb9x9h179aO3rbdqRr9nqObMgls2N4jwRrNqt3f8anb2X7vJZv/91qdr+9iCyr6/FlbPIUvt0/2G9nBmLN28H+l7KxdkrHx4VpbolwS8dAK0tKtrNy9lj7gBCxY8lcvJnyil2snOg93bYoK0t2V1D+7mpyn3LLHyDBOoXsxevYtiyTGMf2I59m/R/XkZvRcZ1jrGS/tIvPyjfjkTtu5xg4YQm7KsrZ9lIuWX871m2wigSs6dks2rCNlekx3fgmy+PE3Swv+Oy9a8+vcSx8r4Lyd1eS7XYtsclTyH5hM/uP7GLJhL7thxsZPQAABSdJREFUbet+bf5sG51ZwIbVuUxNsbjag1GpzFxYxNPJjnrcuS0bxqQlheS6tS+WlKnkrt5AQVa8x7b+tTf+tmve/k6YSX5uA68vnUnqKNc5LClTyVm+wGPfcJz8jZOmvo9TV7Hqjt66jubmZq+fTczjcihcNt35Wc35+eOXz5KAZ693b/vbzMnkFL9O3izPz07mUalMz3mBBenRNDR085cVAcSqr8uLIae7DFZs6xzv72RQUJTHdPfP2paOdv3HiX7HSbHq6WkAyXOKKMyZ5KqXjvuwtXlMGubfcRSnICfVqa6nQK/bPQeDPo7/9eLCnyu4FTuD9CTv6e/uPbUhY6YpbCaVHWNMwfiWLcA9q6urAYiP11tHxVN9fb3KRR9p/M9/5nuL7T2CeWE/9cuC6dIrkay+vh5Q220EakuNwZ86devWraCPbzabu94oBK5du8bIkX69XCDkbty4wdChPd/9SHXKGPR3yjhUp4xBdSrEvj7LzsVvcGZ2EUUzemb8dsVMukNtszE46rnV6v8zm6CHSgj2SbFENpWLrlX/218z643A9snafJrfzPY+HAKArVMP00iJQ0/k1b0uUspGpFOcjONusRo8eLDPdd05biiNGDGCU6dOkZaW1vXGIXTx4kUSExN77TpVp4xDsTIGxck4FKvQaP+skor2RJ5NG9njeaqYSbBUdiJT0EMliIiIiIjxpaSk0NDQ4GO829D65ptvKC0tJTo6usfPJSIiEhrt1FR9SvtDU7Hqz5eI9DL1uJWQUrno2oSlV7iyNPD97pq37uu6MXZKuOmRvLrHKW+MQXEyjkiIVVRUFE1NTVy7do1r167x4IMPMmTIEAYMCM07bG02G1988QWXLl3i9u3bPPbYY/Tv379X8y4S4nSvUKyMQXEyDsUqFAYwYcE2toH9XquHz6aYSbBUdiKTetyKRICY2b/hypUr9ilP49uKiEhgRo8ezejRo/nqq6+wWCwsX76cpqYmCgoKuj2/ePEi+/btY/z48UyePJn+/fv39eWKiIiIiBhC0C8nGzFiRI8kSIyroaFB5UIkTDU0NABqu41AbakxqE4Zh+qUMahOGYfqlDGoThmPYibdobbZGBz1PJCXk6nHrYiIiIiIiIiIiEiY0Ri3ElIqFyLhTXXUGBQn41CsjEFxMg7FyhgUJ+NQrIxHMZNgqexEJvW4FREREREREREREQkzQT+4dTzJ11zzzvNwSIPmmmvuOXfo63Ro7v88HNKguepUJM3DIQ2aq05F0jwc0qC56lSkzcMhDZobc+74d1+nQ/Ou4xSo/oWFhYWB7HD16lUAhgwZEvRJJTLdvHlT5UIkTN28eRNQ220EakuNQXXKOFSnjEF1yjhUp4xBdcp4FDPpDrXNxuCo5/Hx8X7vozFuJaRULkTCm+qoMShOxqFYGYPiZByKlTEoTsahWBmPYibBUtmJTEE/uB0wIOhdJYKpXIiEN9VRY1CcjEOxMgbFyTgUK2NQnIxDsTIexUyCpbITmb5lC/CRfHV1dU+lRURERERERERERCRiWa1Wv7cN+MGtiIiIiIiIiIiIiPSsfn2dABERERERERERERHxpAe3IiIiIiIiIiIiImFGD25FREREREREREREwowe3IqIiIiIiIiIiIiEGT24FREREREREREREQkzenArIiIiIiIiIiIiEmb04FZEREREREREREQkzOjBrYiIiIiIiIiIiEiY0YNbERERERERERERkTCjB7ciIiIiIiIiIiIiYeb/AVeJyR1oVSHgAAAAAElFTkSuQmCC;" vertex="1" parent="1">
          <mxGeometry x="17.42999999999997" y="640" width="756.93" height="110" as="geometry" />
        </mxCell>
        <mxCell id="Cswv2nj_MvUbv_Mwxv9R-27" value="" style="shape=image;verticalLabelPosition=bottom;labelBackgroundColor=default;verticalAlign=top;aspect=fixed;imageAspect=0;image=data:image/png,iVBORw0KGgoAAAANSUhEUgAAA8UAAAAuCAYAAAABWbuwAAAgAElEQVR4nO2dfVxUVd7Av3dGBhXWGrdybEFTs6BdR016AWtFn8SUwdRezFbdEk3RVVtTn1W3DNu0TX1KLMFU3KRPlp8tTHnZoA3cErVQkeoRt00rSEHL8TEoHWPu88e8w/AqA4P8vv/85t5zzu/8zjm/c+aee869V1FVVaWRHDx4EIBrr722sUmEDsKZM2fELwTBh0gfax+cOXMGkP/J9oD0KaE9I/4rdETOnDnDkCFDfKK7U3MSNWEeLXQgxC8EwbdIH2s/SFu1D6SdhPaM+K8gtBzNmhR36tSsZMIVjviFIPgW6WPtB2mr9oG0k9CeEf8VhJZDac72aUEQBEEQBEEQBEFoTXy1fVrjE62CIAiCIAiCIAiC0A5o1r6L3/zmNy1th9DO+eyzz8QvBMGHSB9rH3z22WeA/E+2B6RPCe0Z8V+hI+L4j/UFzV4pVhRFpEin9AcbRIq8kqU7bW2LyMa1VVvbIVL6lMgrW/qDDSJFtqb0Jc2eFNd8FFmOO/axP9kix3J8JR/7gw1y3LjxsK3tkGP535LjK//Yn2yRYzluzXG7pWnW9umas3U5lmN/yFuO5bijHfuDDXLs/e51W9shx407lj4lx+352J9skWM5bqv/25ZCXrQlCIIgCIIgCIIgdFjkmWKRLSL9wQaRIq9k6U5b2yKycW3V1naIlD4l8sqW/mCDSJGtKX2JrBQLgiAIgiAIgiAIHZZmTYobNZuvPE7W2jlMemAs9913Hw/8/nWO+cldhraSpzP/m7FjF5N1xj/s8cXdm0bF/bGEgJSJBPxRh25uIAF/0KFb/S4aPyiDyIalJvshV7ulHmhzezqabJW8vi9k61OP8sDYsdx334NMejaXc35Q9vYgHbS1HSL9rE+J7ODSwv6XHmTs3HS+bSG9bV8mkSIblpb9a3nwvjmkl7WcXl/RrBdtNYyZPWsXs/GgxXnGYq7CUk+KNufwRsYuzyQ2cRczB7e1Mb6gmI1j/0zm6L+wK8HYdmZYv6LT80aUszXOX7zQJub4hnI6PdsLpcJ2pM6w8PPAtrVIEBpNdQmpC1ew83vHCQtV5y3+PX7XQUXGYma8CjM3v0DsdW1tjSAILUp1BYVvbSQ1q5iy8xboosd492SmPTqSvsE+0lNdyfG8raSm7aHYbAFdECEDY5k2ezIRv6wnj58OUrDXQtijUYQ0o6iC4KS5PniZeir/k8vWv73OnmIzFnQE9TYS++hcJg/R15OJhYP79mG5+TGi2oHj++aZ4u8LyDxoIei3T7J552527drF7t2zMDaUrk2ls2A+zadR9efT/H1XrkbF/Xe6a0LcPQnrWgs/v3KJS089jNrmPuCbtvZVnbe1dJbOT+y50qU7Ps3r8z1kfQ9hD7/Edsf4vcZEDz+og6bLVqgvL9JB25dfZH3Snba2RWRT5Wkyl81hxZuFtokswE9minPWs/iJ1zlm9YUeC59umcMTSbm2SQSApYqyT3awYvbz7DHXnU/V/lz2WIzE3GVo0Xrwj7YQ2Xqy+T54OXosxRuZs2A9ucVm+w1yC1VfF7IjcQbP/+tc3fmc30dungXjqCgMLejzvqLFvlPsQWUVZiD6v4bRQ9uM9BLersPrC1OqzrkObhhMdWDr2ibhEt7ew32dh+WHSiyEMeyevgTL+N2scH+xQ8Ib/33LtrZFwpsWbtn3Olv/14Lulim88Noudu3axa6/b2BepB7L6R2k5Zkbpd+lZzIvvLaL3bt3e9WjqiqUZZKcYYZfDuPJV9+23TDcuY2/TOiL7qcCUt4pqcN6MwV5hTBoGBF1LKr56ppLwq+wcC8+uCv9tXp90Kt+dz0b/16vL6tqKZmbMjGjZ9jCTbxtv1m+bcU4+uosFLz6DiXV3m03f5xLIUaG1bOa3JLj+OXSot8pVhQFDqcw9ulMADKXjyXTHid2xW5mDVaASk78M5Ut29yW6wfFEj9zChHXud8NKCYlbhmZo59j9wMW0jZuYefHZVgIY9bW1cReA1SbKX43lS07Czju0BU5hUWzYj22vCjWKo7nueWJDr0xCtN9kxk3pAfm7MVM32hzgMyn45w2c/MsNq+JpYeiwOlCXt+4hcyiMqosoOsWgnH4BCbeP5Iwff13M1zn7ceXTnPwjRS22Lfq6PRGxi1cwhRjsGf6yuPkbt1C2ofFmH+y5zkmnlkPR3jcbFAUhYqP00jZlknx11XObQ0jx01kwvAw9N9nsSg+hRKA7GWMzXakDGPWltXEXqfA+eO8/5orL7roMd5uYvzvxhHRU9eo8tVf9gq0K0KdW4oBOHQ3AYcAxqM+vYPqHl/RKW0Dyr+LoDIPLtnjBdwJPcegjk/AetPVuLrHfjr94W77Oux41D+/ilq0Ek3udrhYDoGjUU1JWEfc4Kx8pz3/TkeTnoxSlgdWQBMGIY+gjnoM6yCDMw9FOYB2jlseT++guoc9sGgVAZuetv3usQ3r05Ownn6TTiumetbBpgAC7L/VGZeoHuStfhryHZvUfHcAza5UlM+zbWXEAN3Ho967AOtQezl/3I828W6USruSWz+kOv5OVEBRv0b717tRyso9whz1o/nhazRZ/4NyJA/O2wfFwOEQMh510mNU9+zsaaOioJzJQ5v6NMo3+4EboNcCrAkJWLu52f3Z39DkZqOcOerSiwG6RcLABKz3D8ca4BZ/SwCaQ/Zopi+o7rcPTdpKlLMltrYKX4F1xnisATXrJx9N2osoJ7LBaoBuo1EHXI2y90W7shVYX1mC1a1+lW+y0f59K8o36XafuwF6TUMdk4B1gM3fGts+rR3e0nlUZCxyjoUbp49lI+AaJ6oo3rqKpI++xHza/jhMXeP34RTins4k9pntxJhdY6+uWwhRjy3jyXtCauTfyP+F05ksjk+BmZtZberhYf+nyWNZlu2wFYo3xLHMPtalxMeR4shw9HPsnm2skX/LtVHN877KR8JbJtzXfUrCfRNecrgACyFMm/sQ4d3tAYGhjEyYQv6+JIo/OkLVPdEEN6DfpWeiU49Sh56KI/soQ0f0zHlE26+L0OoZODWBMe8vYmdeASXTwwmraf+5g+wpguj/jkZvC7Cdb+DaVKdteGzxx7aRcN+Fn/bmg526N+iDNfV76Lm+AV8+Xcy+r0E3YhbzhhmwzwjQD44nYXQui97NpeDLeMJvrmm3mYP/KoZhS4ju7mnP6U9er3vOom24fnxFK799upLiDbOZv67Gcv3HO0hMWETmKS9JPkliekIiOz4ucz3TZgWqK8hcOp1lW/NtE2KHrj0pzJ+bQvFPjsgWijfXyBML5uJ80p5dQ+73NMzpTBbZbahyZHW+jMJ3k1i0vbiJdXCc1AWzSXTbqmMxF7NjWSKZp92iVRaTMnc+STn2SaojzzcTmb00kwq3uzIV2YuY/ewOCr+u8tjWsHPdIt5qjHk/FZMy3zMvfjJTvCeNxLW5VNSbuCUphwMvgtltQgxwaT988zTKugFo95yrI+0+lL8OQJPxon2yCFzMRnn7bjT73Z9XvoDmjbFo1z2E8o19QgxgLbHlsek2tNv249tu1zyUolVoV9yNcmirq4yUw9lklDf6o91it7vrnVif2Obq3Yfmoim01YEmfZ5rQhz8AtbH7nTdAChahXZZf5QPk90mrsDFPPhyHkqRl7r/dAraZ2LsE2KAr+CbeWhWb0VjdUVTyrJRvkz31Es5nE+HD2PQ/PlFj/gevDcS7bqptgkx2Nrq84fQbMrzaCfl1Ha0K2JQvsy2t2s5nN/qNiGujea9x9H+dazNNqfPfWXzhZQBaLO/8ktfaBuqKP28mIrTbu+HcI7fieSba6fI/evvPcZey/ky8tctJOWw+xPKzfhfEAShA1NB6XEL6AbSr+ZzinojUTcDn5ZwvIX1VHxTAvQlrL/OM642jNuGAudL+PK72rmU5b1DsS6ayCHu6Vrg2lTocDTXBy9Lz7ellAB9w8KpEZuwIdFAFSXHvVwAlOXzTpGO6KERHukue87iQ5r9oi1FUVBVtba8NYHdK7CtEqzYTcKtbuFfpLMm24yuTyxLl8QzpGcAivUcR7OSWbmxgJTn0hn4ygRC7PEB+M5M0H3LSZ58GyGdXfmUvZNIyv9C37hnWDRlCKFdFdSfz3IsO4XnNmby1t6HMd5zNcqFg+RmmCFyHtsWjqR7oIL680UqSveR87cCQKGHaTUZIRsxPZWB6dkMZg7yLFfpB+mUWAw89NwrTB0YiKqqXKoq42jeO2ypUOqvDzdpwwK/iGLWXxIY2e9qApVLlO5eyvzNJeTsq8A0zoCqqpzYtYbM73T0jVvK0keHYAhUUM8eJTN5JSn7Ukh8dyAbJoSgKGXsSS/Bcv1EnntpMgO72spXdeoY+embqVAUuC6WNRm9SDYtJXPMSnYnDPCw6+KHuWR+B1Hzt7FwRHcCNCrKhQq+PJBD2v4G2tsuG45jwLr8Z5SsB9FkpNuUGtKw2p8ldtZRt8dQTQtQI8JQOytQdQLNtikon+4HyiEvG030I1g96hTAAKY0rMPCUDv9H5rN96AUFQHlKAX5KHfea7s7ezQZzV7HUvl41PmvYr1ZD1+/gXb1VLCWw4G5aIwfYh3cBVWl1qTIVa5aAdBjEtUbRqBJDHGtij/+Mz8PrN83GpRns9Buedo22es6G3XuX7H27gKns9C+MBZ+BA6tRDNqF9ZQBbXnJKymbDS7tgNFKK8tRlvVE+UDe9k1k1D/uACrxot+gAG7sE4bg1WnojlXgrL7aRRv08Pus1Efn43VEIjy7VY0Kx+3nT+7AeWLaXCzo52uhlvTsI4aB6FdsFb/hOaL7WheftyWZ+ViNIcXYB1Ss12Bm1ZjnTQOtbsC+59Cu22V7fznO9GcH471KgVVPYEmearL/mtfQH1iAdVXq2hKt6J5/nGP9kNVUY69iGbXVns5XkB90h7/i2Q0L82z+VtWKpr/epZq3WW2XwtI7z7YstIQt4bNLGT6Rpi1ZTWmHu7hPTCtzSC2RrqzJdtYuXAHmfvNDB/T3WO8sxDCuKcWMTUilACNyrlPNjJvRQaZH37KrMFDmv6/UGdfrH032Th7N5t7LbKXZQ2x17VOW7VGO4lsP31KpC9kBWXHgJtDbTv5PMKDCQoGLI25NmuKngpKjwPcSOg1tfUGdg2yOZJVAdz1lPHJB2Xo7plNVBe3dI24NvXUU/dY4x9tItL3srk+eHl6Kr79EoAbe3avrbdrAEEA1ZZaeso+zqVMN5LZdwS6pStlz84SLD0fYmXSVAZ0VlGsl/jh5FH27NxCeSP82Ze06kpxWeEezIQyefEsItyW68NMT5IwQgdfF3Ck5rLkyKWsmx5BaBcPTRS8VwqDZpE4M4IQR5hWT1jcNMb3geKPjlAJoNPZtq6ercDsWDDU6jD0iWbKM0sw9aBBAroEAT9w+jvXnRBdcChG0zySptu34VVksCguDpPJRJybTDlcU1sY01YtwXSzHp3WZktIzHiigOPfOgpfxid7zNB7MotmRtDDcYtFH4ZpQQLROigtOGJfwQ0goDNQWcHZH1zlCw41Ejt3HfGNeJO2rottc+/ZCrNrBaiLgb7DpvDMn2wv2Gkd7qR61atY7wrHan/WWO16A9Zxc1xRztS1ctcHdUA41gBAczXWwaNdQVXnnGmUvf/jOv/r2VhvutqWT69JqIMM9oAilIJ9frVCqPl4u2vCF/lHqnt1BkC9djTqrY792Nkon5Y706j3bsJ66522A2syyg77Vm/uRI1/FWtPN/37t7r0d30B6+OjUR1toA+nesoOqscYqMWvIrH27IwKqCHDUa91BBShuC3QW0e/SvX0SVhDbHHRdEYNm4bq/iL00+V4pU8kVvvjKOptY9wCToFjZ8OpfSjOO+uDUB/8oyuNzmPwcJX5gMsX1NgEV/ybHkHt5zB8FcpR72Z1SKotVBzOJG31UqY/Pp3pj0xg6sIdlACl5bX3lJiWJhF/e4htrAP0t8di6gl8U+7cgdKs/wVBEASvBNO9Rd403zQ9V18T6j3gWA5vfR1EbHSNr360wLWpILhTpw/6Uo/egPfYJeS8XUrQ6GiMHu8mCSAgEKg6zdnz9lNaHcEhRkxzkxo1Z/Ell/VMcVOl2VwBmLgxtGZ4IH3794UPSig7CUoP+3mAAJ0XfWbMJ4GTSUwxJXk3UldJlaLwC20EE2eGsWfjW8z/XTpBPbrTL2wYUcOGMnRIX4+963WVz3DPdEw7l5Lx4nTyU/QYftUPY1QUMXdFE3a9rlb6uurL7YxnPl1/QbDthGf5xtxoczZ3e7r0JawP5B8r47SiYMBAzDQT6U9lsDY+n/V6AyH9jQyNjGHYsDAMOrd86iifMngis27ZQ8qb83n4nSAM1/Qj7K4oou8eSkQffaPbt7FxalSOZ7yfK9D8KwulKBvOnvN8tthLnXpbOQIgoEvNAKAc5aTbxKtPuEf+6vWRKIfsq9jfV9Rhdx3lqVnOWsHN6zNOWbbdpeyf/en0T7xz8mugpz1dZ9Rpaagn+6O4zzfvehnr4C6e+k+mu8JvikLVNrYd3c93gRovZnJPp3yTh6YgG+XTw1BdDudrzzYbaldFW0f+p79yOzcGbqnf7xSlAr52VYqS9gu0aV6jwslylEEt+8bQy5W+1m3PwTO86hhbliwl/YT3jzNVXbjkVY+n/gCCujkDgKb/L9Rdfu921x3ft/XX1j4i0n/6lMjW7GuVmE97O3/5erzHs8lz35WCfXrgfr7kwxyqusUw9Bacu60URYEmXJuKz4q8HB9sCT11xj9XgSu22/mjBeScDyLmt+E10rnmLGvi80mqNWdpWj20ND76TrF/YYhbw5tDSsj/KJ/iokKOfPwWKXveIrXHeJ55OR6j94UkF8FGZm1JI+bgXvYeKOSToqPkbyskZ1sKxrkbWDnKAD1MrMkwtUp5apk3eBZpaTEUfrSXgsOfUFyST9rHOaS9amTeyyuJaeiOo9aAadWbRPwnnz35xRw5eISCHSnk70jFMO4ZNkw31nqOwCecSkf7/INeJ8FCC/LjBfvGrNbiAprX4lAO5LVSfp1b/W0JHYHS99aRfsKCPnIa8x+JIuyXweiCgtFpi0kxLSWjrQ0UBKGDcB0hNwOnKjgHeO5hquTsWWjcRUtT9Bjo1Q84Vm5b4eqGZ+zzVbYf7jeGq4vJz6oi9HcxhHnJ/bKvTYUORjN8sAX0GEJuBEooN1cCNT7cXVlFFYDW81MyxfmZVPWeTMzNtXO/7DmLD2n5Z4oVxeNi2/28Xm8ACjnyHxjY3z3dRU58cRwII/RXtst1190AxUt+erpfD/RfSvrioQQ0Yi9+4K/CiXkojFET7Xvd31nErNR03tn/MMbhQTiys6iu/D30dOpO39tN9LsjjimqivLDQdbNXE7Oa5mUjIonvIH86y9Pzfqyl6/oCMetA+mrcdNz4QQlJ4CwUK5z19O9HxFxfblt7FRUVaXqkySmJeawJauEmMfCXPlfuuQlfxWlUyCGm2N4OGwUE1UVxVrG24tmkbrzHQoeMjL8qob3+DfUBrXv8LjXhRnNdrcJcb801KljULtdBefeRJM42b2S7M/+1HJKV9t5zacnXG+AcvsKYdlXgMFl38l9riS/NNRqGzgHP1Fneeosp1KHTzVFXj/etYodWUj1lEGNSHcRJXWK5yoxwKEH0PyjEOvont71/3sfGuudqNq69NYsXgPlPpbsNiEeDY+uxxpmgKu6oGzSohxyj+/lTqDi7ifUQlEU1KvcL2cOwylQrq/HLtXg6Qv3f4f1Hn3dfusHzxPVVectLe051MrHXFEKxDD/TxO4rVN945ebj3jx/Zpt2qT/hU62dKXf2S5hG2M3XORSg89YtXT9+b6dRLafPiWypaWB3v10cKyQo2XTCQtxCz/3KYUngCHh9G2wXZum57rQMKCYws8tDI8KdOn5+ShHDgDdwrnxWtf/xcWPc8ixhDL59tA67Wj42rThscY/2kRka8im+mCL6PlVKGFAcdGnWEZEEuim5+jhvUAQ4f30Lv0X9pHzvoXQybcTWpd/6vty29h+RMRNQVEUfjiwjvgVtjnLqGnh9daDL/HNd4rrIPS2YegpJ31VEnnfXrSdrDZTsnsNGz6wQO8oBvZojP5QIkeFwp41LNxUSGmlazufpbKUktw0lr9xxHaiIoOVy9PIP16OxfHG5moLQT1DCXJXqbXdENz7YQHmas/8izfPY93uYo981E56QnpSJw3VT0Pliximh5PprFyfT7kjW3MJGWs3kG+B0Eij/a5mMVueSCLjcClu5hFwTUjtff464MBeCsye+ZdnrWT56/kcr3Ar389BGHoF1dTQKPub57QXoNLtsP+dqNddjRpwAeVkjdfPXkbdWu9a4DoofgXNv+0fHf9mO0qRY/Y4CIZG2ifWPcD5ebU8lE+OQrUKF8+hHDuEN1Q1EA/nOpCHYnUPb7r9auQ0V2/d9we0/zyKctFRqAsoJ/LQvGxCm1XuTK9kTUc5ZH9TWvAK1PjV9gTlkLEI5WQd+n9ci7I526X/xxNo0h5Ek1Vut69e82tzwe3h4q6DUcNuQO3WGX48AV5eWNgs/+l9K3R1HKSj7MxGuYStbkpqtJNdv3r3k65z6XPRFJ1AuWTP/9IFlJJ0tM8OQFPUNPt8Hd46eXgJ1+qATyg8aHamt5QWk7F+Mzm19Dek3hXB/X8h/6RtDFJ/Puv1f4FrenGjDqpyM8h3PGf8UymFry8n6f3a5QvUAhynYF+pa/ynddqoNfKRcPlOcUcND7s1Ch2lpK1/ixLHNc1Px8l5ZRvFgPHugR5rWqd2PYnJZCL2lWLvepLepMTxf+RFj6qqGAZFEYqF/I2usQqLmeJtG8g8D0EjhhLu1GyhcF8BlkETGB7qpXw1rk1VVYVqC8HX17g2bUT9+FvbSLjvwr35oHrxbB0+CBxOITY2FtOTGbivj7jrcc7H6vBl9TojUb3B8sEGkvbY51LVFsyHN7Mhqwq6xTD0RpduS9FeCixGJowI9VK+YjY/sc5jzqKqKrprQ+jVzPppSVr+O8U4FwFqrfwo/SeweEwOS7JyWPN4DmvclejCSfjz/W7P0HreBaspe41/hoSPE0jeuZyEnV6MHDPIGd988C1WH3yrdpxrTNwfGWzLrv9AonQZ5Oc+x5Rce3hYAlvWmlAsx8lJWUJOSk0FOsLnmAj3Yl/99aPgHsUV3xXeb9xiTLlLyMhdzfTc1e7q0P06gWfG93LquPSfHJL/nENyLfPCSYgNt8cLY+BdOjI+yGHlFMclbDgJqWuIsJop3L6awu01FYA+7n6GXtW48jWu7NQKt30HtifcMQnetRvxj/5o/lHbHlBA8foeZM/8vdihAkr4HNS78lA+ygbrdpSXttfQZYA7XkZ1PnPbF/Wu8Si77auo+QPQ5NujBvTxtMuZvx4iZsOXG2xBRfeg+YM92sxqrM35TnH3MagznkXZ9BRY98PbA1De9rJLpq9iS3M8FWW3o0FHQ8Iy1L7AqQKUrHRb2V+8BU3iUtSuNfWXQ1EcyhM19Me9XMt3a9rp9Xz4aAh+ynbT48eVKH9aWefunnr1UNt/nGOMdjDqfbNRttvr/NM4lHnedhG5+U/YAtT7jqK8mwrW7bBxe513CZvSt1sz3Jd51JQDo2PR704nY8UUz63S1+jRAxb3PuBlfPNsQ8Xr/8LqGTl4jHa1/heMRMfpyXg7nzXx+W7/IToc71Nz91H9gChCOcrR1FlMSLVHHbOKzDnynWIJb/0+JeEtF66LnEL8rwtI/nwbC6ds8wjnmvFMHaF3jgO2MUHxSF9bTxoLp6TVq4deccyOS2fJ7nxWz8ivMVZFMP8Bt+cnzxeQ84EF4xO30b2O8jXq2rSe+qkvzJ/bTsIvI7wpPggu362p103Pmsfza8zHaurpRdwsE+lLMshfPZ18z0yJmHs/4Z0c+qsoyM7HMmg+t+mp9dUSRVG49EUOKU/lUHtKZZuzNKZ+fEUrP3kXjHFOCklPxGDU2x/U0AURevtEElPWYLq+Caq0Bkyr0my6egQ5H/vQ6Y1E/34RSY/YL3quiWHh8qlEGw0EObLsZsA4aj5J6xNcz2x0iSLhhQSib7Dr0gVhCO1OMGB8ZA3zx0XQT+/MBX3/CCYuT2aNtzfytgTBRhJeSWL+KCP6Lg67Q4mYlEjyKhMG59W+kYfXzmf87f2c8eiip5+jTp1783VEzVxDwrBQez3oCOoRSvcuYBi1kMTfR7vVo46gHkZinkgiZUYrPU8MqPduRo1bAIFudapfgProphbMpTPq7zJQ//h36D3c1QM04dD7WdSZB7E+GumxTqbeuxl15Gxsr4oEgqfBo99inTat7rJEr7aVJdht4hw43KWjGaiDlmJd9RnqHbOhm/u9wD6gnwYj/456hwF+3IcmeYY9zABx67H2teuIXY0aaq/fyqdQkrOdQ5Y6aCnWvxTW1h84HG5cjRp2dfMMDxyM9U8fQe9I1zlNOPy2EHVQ3cmaivrb9ajx6+GXDtv7QO/VqDPr9h/13k1YE9+HX0/zbCtNOBhmQ9z7qDe1nI3tmrDppKya6By7HePRltTFDL0sxU37Xwj//XoSx4U7xzG9MYb5L6WxbLgX1aETWLVivEtvFz39rq17B4wgCO0FA6ZVySSOM2Lo5urfxlHzSXplOuENPlfZHD06jDNSSJoV7boedIxVmxKJ1rtimg+8RyHRxN2lxyuNvTYVBA8a74MtqUdnTCDlpQSi++td84QbIpi4IpXEEe6OX8B7ByF6dDTeTWnsnKVtUNQmrEsfPHgQgMGDB6Mobb+3XqT/yMOHD3Prrbf6hS0iRXrIopUoG5+yDWL6TbAq3vmda7+wrwl9bPBg2/cK2toWkXXLQ4cOyf9kO5HSp0T6Rp4i48l4tly/jB0LG/fem+bIQ4cOyTgj0q/kqV1PEp9qYNkbCxna1Tf5HD58mCFDhrTkXNhJh3j7tCD4C2gq3JwAAAI0SURBVI4XSzl3tDRGxp1EHSMfLWyQw8+hebczTI2H3leBFpSTeSjpr7jiDIhsxbduC4IgCB2O0gIySnTETI5CR2t+6UEQ2pJSCv5xFN3IqUS1050OrfqdYpFXtvQHG/xf0iza3u72ISlfBC8s8v7MebdnYdwtfmGn9LUrVzpoaztESp8S2Tay7KNMSruZeGKg+KzIDiS/2kvmV0GY5gzE4aK+9H1fICvFgtCKqDOsMKPheEIz6D4Yeo+A709A5Qn7yT6gHwF3TUONibysZ7oFQRAEoSFCH0kl65G2tkIQWpkbHiY16+G2tuKyaPaLtvziroRIv5H+YIPIDi5viEVd8j6sPY6aYoWNKmrKl/D8ZtTYSBSdn9h5GX3MQVvbIrJxbdXWdoiUPiXyypb+YINIka0pfUkrv31aEARBEARBEARBEPyHZm2fVlUVVVWdv0WKBLBarX5hi0iRV6L0BxtENq2t2toOkdKnRF750h9sECmytaQvadYnmQRBEARBEARBEAShNfHVJ5maNCkWBEEQBEEQBEEQhCsJeaZYEARBEARBEARB6LDIpFgQBEEQBEEQBEHosMikWBAEQRAEQRAEQeiwyKRYEARBEARBEARB6LDIpFgQBEEQBEEQBEHosMikWBAEQRAEQRAEQeiwyKRYEARBEARBEARB6LDIpFgQBEEQBEEQBEHosMikWBAEQRAEQRAEQeiwyKRYEARBEARBEARB6LDIpFgQBEEQBEEQBEHosPw/yFsHFcv3QbYAAAAASUVORK5CYII=;" vertex="1" parent="1">
          <mxGeometry x="17.43" y="390" width="510" height="24.31" as="geometry" />
        </mxCell>
        <mxCell id="Cswv2nj_MvUbv_Mwxv9R-28" value="" style="shape=image;verticalLabelPosition=bottom;labelBackgroundColor=default;verticalAlign=top;aspect=fixed;imageAspect=0;image=data:image/png,iVBORw0KGgoAAAANSUhEUgAAA5QAAAGXCAYAAADMPR/PAAAgAElEQVR4nOzdfVhU1733/89EoaDogVMahygnQc1RPBrF1FTwtIkY24olVoxtheZBMVqV9Hd8aJIWtFYhTVIf8jsBrVFqHg6Y1kCaeIttjJjcqWBjhFg9wbQqSUEZU1uoUSAYM/cfM8AAAzNsBmaA9+u6uLZr1pq9v7PXrBm/s/fa22S1Wq2S9OmnnwoAAAAAAHfd4O0AAAAAAAC9EwklAAAAAMAQEkoAAAAAgCEklAAAAAAAQ0goAQAAAACGkFACAAAAAAwZ6O0AusdFFTyyVM/+2V785kb99gcTPL+Zjwv06JJn9YEkKU4bf7tEEyTpvWf17fUF9kZjtOTZJxV3o+c3DwAAAADe5PsJZYvkrDV/BY+eoJn3LNScr41QUI8GBgAAAAD9W6cSyuvXr8tqtRremMlk0oABAww/v60G1Zw5rr1bjqu4KlOZ3x1hf3yY4p76reI8uKVOmbREv/3tEm9tHQAAAAB6hNsJ5aeffqq//OUv+uSTTwxvbMiQIbr11lv1hS98weAaHE4rbbioN37xsDKPNUiSKt8sVuV352tEh88HAAAAAHhKp45QDhgwQPX19aquru70hkJCQhQcHNzp57XLf5gmTIqQjtlmMCrAT34O1Sd/+W2t/Z3t32Me2qEnZw+TJF3c/6iW7rQ/55sb9duEBu1+5hkdOFmjBvkreMIcrX4kSROGtNreJ+f0xgu79T9/OKmaOsk/eIK+Nv1fVeMstvbmVuqknv32WtlO4B2jJdvXamzJTm15qViVnzTIf8gIRT/4mFbOaJUWX7+ic28+p90v/l+drGmQAoM1cvxMjW3Yq4ITbV+jJF356C29+j+v6v+ertTFT2xJt/+QYRoxdqruTpiruEgP9gUAAACAfsnthPILX/iCIiMj5efnZyihDA8P1+jRozv9vHY1VKr4D+X2gr9un3OXhnX4BCfe2qjv/K5BDc0rVc3JvVqb5q/MLfM1ovHs3KoCrV31rE7WOWy+5qTeeKUL8atcz61apIY6h61/Uqm3nlklBfxKK6c1zgi9opM7U7T2dw6pa12Nzh3bq3PtrPni79bq4V+edHhdjeu/qHPHXtWzX/wyCSUAAACALuv0RXmGDRumqKgonT17VpcvX3bZfujQoRo1apRCQ0MNBdhSgdZ+u/UFeoIV/V/pevQuAwlS+CytXZmkCWH+UuVv9WjKc7ajih/9VgfPztfCf5ekGr2187mmZNI/Yo7W/nShJgRL+mivVv1/Oe0mdh3zU/SijVoYO1LBuqLj25Zq46Grkhr01qHjemjanQqS1HB0pzY2JZPBin44XSvvGiF/Naj4me/oyTdbrfb6Sb36q+ZkMvrh57TyrmD5D5Aaas7p5OFXtbvzvwcAAAAAQBudvg/lkCFDNGLECA0fPtzlKazBwcEaPny4RowYoSFDWp9D6ik1Kn46RQ8+8ZYuXu/kU0d+2ZZMStKIaEVHNFZc1bVa+z8/LlJBSWN6NlizltiTSUkKHNziNNvOGaExE0cqeICkAUG6fVp0c9WVq7pq/+fJY281H2mc+H0tnTFC/gMkDfBXUICT1dZU6KzDocmyY2+q+GylrlxpkH/wSN0+d6UyF3XDLVQAAAAA9DuGbhvi5+enf//3f5e/v79qapzOIpQk3Xzzzbrllls8eGVXx/mIUkPVW8pK26q3/i7VHN2qja+NUuZc45fl8XeWHV6otM+FlKRo3fbvhlffsRv8nTx4URcrmksjb58gl8dhvxijuMnP6QN7Elxz9DltPfqcrc5/sMbcuVBLH7hbI7nHCgAAAIAu6vQRykYDBgzQjTfeqIkTJ7Y5UhkcHKyJEyfqxhtv9PBtQlryD7tTcV8b3FSufOdPzi+S47kt2o4OeomfW9sO1p2rntCSr43Q4NY5asNVfXAwU49lFOhiN8QHAAAAoH8xdISy0ZAhQzRo0CA1NDTo888/1+XLlzV06FCFhYV5+MikmwIHd+0FORMSomGSPQE7rbNV0oQwT2+k3Y0rxCzpz7bSB+cqJXcuPRQ0UnGrMhV3vUFXaj/W+dOn9e5r/6O9J23pdkPZWzr+9zjFfbHbAgcAAADQDxg+QtlowIABGj16tEaNGiVJGjVqlEaPHt0jyWTNn/fqV/uvNpUnTJsoj5/JefNtmto0/fOcfvvqcdVcl3S9QRff/0CVnt5eC/6KnOgw3/Ht32jvmSu2f9d8oD85uxrQxwVauyZTBcfO6WKDv4KGjNCYKXdr9l2RDqsdpXAu8goAAACgizxyQM/Pz0+hoaG67bbbFBoaKj8/45eq6Zizq7za+E9cohQjV3p1aYzmr47TW+sLVCOp5ncb9eDvumEz7Qi+6/ua/+u12vtxg9TwgXLWfF85Lp7TcOYNPZvxRju1/pqwaI4mePHUXQAAAAB9Q5ePUDYaMmSIRo8e3Y1Xc3XGX8Gjb9f8VZn61bo4DeumJClo0hI9vW6OJgTbJyX6D9awCXO0dv2DGtM9m2w2YIyStjyhlJkTFBxo3/yQEbrzoS1aOcNJ+yG369vfv1u3jx7W1N72nGGa8LUkrX32N9r4zU7fsRMAAAAA2jBZrVarJH366afejgWdclEFjyzVs/b5lXf+6DdaOc3ZlWIBAAAAoHt47AglustFFfx4qZ585aQq6+wPXa/RB/uf02/syaT8ozX5NpJJAAAAAD3L4xdFRTe4flHFz69V8fPOKv01YdGDurMnzzQGAAAAAJFQ9gKDFX777Rr5SaUu/v2irjbYHvUfMkwjxn5Nc74/R3fe7PFr2wIAAACAS8yhBAAAAAAYwhxKAAAAAIAhJJQAAAAAAENIKAEAAAAAhpBQAgAAAAAMIaEEAAAAABhCQgkAAAAAMKTptiEAAAAAAHQGRygBAAAAAIaQUAIAAAAADCGhBAAAAAAYQkIJAAAAADCEhBIAAAAAYAgJJQAAAADAEBJKAAAAAIAhA70dANBfXLhwQRcvXtTly5d17do1b4eDPsTPz09Dhw7VsGHDdNNNN3k7HAAA0I+YrFar1dtBAH3ZJ598orKyMvn5+Wn48OEKDg6Wv7+/t8NCH9LQ0KCamhqdP39e165dU2RkpIYMGeLtsAAAQD9AQgl0o08++UQlJSUaNWqURowY4e1w0A9UVlbq7Nmzmjx5MkklAADodsyhBLpRWVkZySR61IgRIzRq1CiVlZV5OxQAANAPkFAC3eTChQvy8/MjmUSPGzFihPz8/HThwgVvhwIAAPo4Ekqgm1y8eFHDhw/3dhjop4YPH66LFy96OwwAANDHkVAC3eTy5csKDg72dhjop4KDg3X58mVvhwEAAPo4Ekqgm1y7do2rucJr/P39uT0NAADodiSUAAAAAABDSCgBAAAAAIaQUAIAAAAADCGhBAAAAAAYQkIJAAAAADCEhBIAAAAAYAgJJQAAAADAEBJKAAAAAIAhJJQAAAAAAENIKAEAAAAAhpBQAgAAAAAMIaEEAAAAABhCQgkAAAAAMISEEugzTmjbrFmalXnC24H0vJJtmjVrlraVeDsQAACA/mWgtwMA4NyJzFl6bL97bSOX7daWe4ytPz7jgJZP7nx8AAAAAEcoAQAAAACGcIQS8FETUw7oQIrjIye0bdZj2jd2uXZvjZe5zTMudnH9AAAAQOeQUAJ9ToOu/OX32pX9vA6fqFaD/2CFxzyktWu+ofABza0sr63Swu3S8ue2KH6Y/cHLZ/X73Tv1/FsnVF0nKTBEE79yj+bdl6ApN/m7tfXqE3namZ2nI3+pVoP8NfiWaXpg1XLF3xpka3DlhLYte0z7FK8nti/XxCCHJ1/Yp1XLtumvd23QcyunqLHK9npe0h/KLLra4K/BwyL1n4kP6IEZkQpxeE36/IrOvr5LO587rBPVDfIfGq5pyWv1yNfDHRpd0YnsdD399hn94+JVNUiS/2CFR8XroWUPaMowh6Yl2zQrdZ/iN+7VN/7har2Osdr3vfwVMvFbuiesSM//LqTlvpakKxU6nJulFw6VyXK5wba/v7lSjyZPafm6AAAAfBQJJdDXFKYraX+DLVGSpIarqnjzaa0cbFZuykS1mxbWndC2FY9p3yXHx6p14s3ndcIyuJ2joi1ZXlulpdvLmretBl398LC2/fA9VTzxnJZP9JeCJmp5aoL+sDJf656M1HMbpytEkq5blPeLbSobGq8nHnJIJku2aUnqPlU7rvPiCf1+6yr5h7ac//n7x5O0r85h65crdHjrSgWF5mr55MZXfkV/PXVCFscDug1XVfHHl7Su9KweeW6Dpoe0fF3urdd5rNUn8vX8CUlqtdLGxLr1/n5lnR7883Lt2OR6fwMAAHgbCSXQ19RJ4XM36NH7pig8UFL1MW374Trt239YJ5ZN1JR2jnw1vPt77bskTVuZq0dmhMh/gKQ6i87+8fd6vsiN7Vbkad32MmlkvDY8tlhTwm2JVvXpfcrK2KZ9vz6sBRO/YUurxj6kLcvKtHT709r4WqS23POvOvHsKu06F6nljkct645o28/2qdp/lOJ/kqbFXzbLf4DUUH1WR/Zu1ZnWr0HhSlj/qB74crj8B0jVf9ymFev3ad9bJ7R88hR7K7Pitx5QfKvnVp9+XhtXvqR9RdWaPjuk8+ttL9YrFTqWvU7pv2u5xiO/XKd9l0I0bdlarfhmpEL8JTVYdCw7XemvPa99/xuvh/7Djf0OAADgRVyUB+hrZm9Q5hJ7MilJIVMUP8ss6a+yXGr/af6BtgTwHxf/0XyEMdCsUXc9oA0/cX20rOLt/6MKTdTy9OVNyaQkhYyN1+KEUVLpEb13ubm9+Z61+q8vS2Xb12nny7v05GtS/E83KP6m5jYN7x7R4QZp4oqNWv4VW4ImSf4hozR9SaYeanV12vi0TD30lfCmdiFfidc9N0n6q0UWx4bXG2Qp2afnn3xMC5MXauF35yhx5Usqk/RXi0WtubPedmMNCteoiFZHJ+uO6cihBg2eu1Zp99iTSUnyN2vKkgc0XVf1+6NlHe5vAAAAX8ARSqAf8AsKcd0o6nta/h+HtS03RfNfHixz6GhFfnWapn/tPzVlpOvn/+MfFkkWPZ04S087beGvK3WShjaWQzT90Q0qW/aY8rMrFDL7Cd0/OajFM/5RbZE0SlPGuxG/U34aPLTVQ1fKtPPRx5R/rsHpM67WOX/c1XptsUZq2kQ3Yr38D1kkXX1llWa90k4bt+IAAADwLhJKADYDzIp/cq+m/OWw3jx8Qu+9+56O/PqEDv96l8xzN2jHkg7mX/YiFb/bqvxzDQqJWayVSdMUGRok/8FB8h9gv4qutwMEAADoRUgoATQb4C/z2G/oe2O/oe9J0vUK5a1Zol2v5OnI9yZqeuujfQ7+9V/NkiKVlv+IpgW2365ZtQ4/uU77FK/l953RrhfXad2/7dCWe5pPrg0aHCTpmI6dqta8m4wepWzpH5YKSd/Qyp/Ma3c+qRFfGCBJZ1VxXtIwF42H/qvMkqrve1a7E9teKRYAAKC3YA4lAEmSZX+61r14WGcvOpxqeT1I5n8b7Nbzw7/6LYXrsJ56dKeOVVxRw3V7RcMVVZz+vZ5f+5JOOG7vtY16+t3Bil+zWPGJG/TIXVLZ9qeUd6G5TdDk6ZriL53IWqttf7Q0rbOh+qwOP5uinSUGXugAf0nv6Ni7DtdirTihff//Tv3ewOoahdw2TeFq0L5f7tSJavs+bLiiij8+r235Z1s2DpyiaTP8Zfn1OqW/ViZLXXNVw8WzOvba03r6d23ncgIAAPgajlACsLn+Dx3LfUrHcttWhdwzT9M6ODopSQqfpw3Ljmjp9nytW5LvpEG8Jtn/daVkm1ZtL9OoJbtttxKRv6at2KD4U49p16PbNLrxSq8h07U8eZ+Wbi/TvvUL25yOGv/lzr5IaeL0bynktXztW5/Ycn2hIQqRZHjmYvg3tGJ2nh7bn6/HElu+fn//1icL+2vaDzYo/sRj2rd9lY5sb7u6yGXfMxoJAABAj+EIJQBJkvmbj2jDg9M1cdhg+1xJfw0eNlHfWJmpZ92cP2m+Z4ty/vu/9I2JZg1ufEJgiCbe9YAeyVqgiZJ05YRe2LpPV/9juR5xOL1VQRO1eE28Qi7t07qsI7rSZp0hzXHdMkXfe/RZ3T/RwAsd+5CefeJ7mmi/tKr/0HBNSdyg3c89qv80sDqHF6CJy7K0Ye5EhdhP+fUPse2/LcmjnDSfqOXP7daGxCka1XyZVw2+ZYoSlj2hR77JXSgBAIDvM1mtVqu3gwD6ojfeeEN33323t8OADzi2dZbWvR6vJw4sl5Ec2CjegwAAoLtxyisAdJfrDap4+2ltfV3SlyPl5DglAABAr0ZCCQAeYnltlRZuL2tb4R+p5cumK6htDQAAQK9GQgkAHhI0bLRG3WRRxYVq28V9/AcrPCpeDy17QFNc3UoEAACgFyKhBAAPCfrKcmV+Zbm3wwAAAOgxXOUVAAAAAGAICSUAAAAAwBASSgAAAACAISSUAAAAAABDSCgBAAAAAIaQUAIAAAAADCGhBAAAAAAYQkIJAAAAADCEhBLoJn5+fmpoaPB2GOinGhoa5Ofn5+0wAABAH0dCCXSToUOHqqamxtthoJ+qqanR0KFDvR0GAADo40gogW4ybNgwnT9/3tthoJ86f/68hg0b5u0wAABAH0dCCXSTm266SdeuXVNlZaW3Q0E/U1lZqWvXrummm27ydigAAKCPI6EEulFkZKTOnj1LUokeU1lZqbNnzyoyMtLboQAAgH7AZLVard4OAujLPvnkE5WVlcnPz0/Dhw9XcHCw/P39vR0W+pCGhgbV1NTo/PnzunbtmiIjIzVkyBBvhwUAAPoBEkqgh1y4cEEXL17U5cuXde3aNW+Hgz7Ez89PQ4cO1bBhwzjNFQAA9CgSSgAAAACAIcyhBAAAAAAYQkIJAAAAADCEhBIAAAAAYAgJJQAAAADAEBJKAAAAAIAhJJQAAAAAAENIKAEAAAAAhpBQAvABJ7Rt1izNmjVLq16ztK3NtNXNWrlPbWsBAADgLSSUAAAAAABDSCgBAAAAAIaQUAIAAAAADCGhBAAAAAAYQkIJAAAAADCEhBIAAAAAYAgJJQAAAADAEBJKAAAAAIAhJJQAAAAAAENIKAEAAAAAhpBQAgAAAAAMIaEEAAAAABhCQgkAAAAAMISEEgAAAABgCAklAAAAAMAQEkoAXmDR4Y0pSj9kMfb061d0bPsSrXutQg2eDQwAAACdQEIJwAvMiowx6/1NS/XYaxWde+p1iw4/vkTrfhekKV8Ol3/3BAgAAAA3DPR2AAD6J/OMNG25ukpLt6co5W/fktmdJ10u0wuP7tLhv4zSA5s2KP6m7o4SAAAAHeEIJQCvMd+zQU/cG66Kl/N1xJ0nXDisw/87WPE/3aDv3RrU3eEBAADABRJKAF4UpMjkJ7Rhdoib7f01MWWLlk8mmQQAAPAFJJQAvCxIE5dt0fIo22zIsuee1j6HaZXVbz+lJ/dLkr8il+3QE7PdOjkWAAAAPcBktVqt3g4CAHTdon2PLtW2/22Q/M2KX/tzfePPT2nVi2VqkBQy+wk9mzJRHJsEAADwHSSUAHzHlRPalrJO+y62vBlIyOwNenbZFAUN8FJcAAAAcIpTXgH4jqCJWp65QfGhzQ/5/8dybSGZBAAA8EkklAB8S9BELX9yuSL9Jf//eEBb1sfLTDIJAADgkzjlFQAAAABgCEcoAQAAAACGkFACAAAAAAwhoQQAAAAAGEJCCQAAAAAwhIQSAAAAAGAICSUAAAAAwBASSgAAAACAISSUAAAAAABDSCgBAAAAAIaQUAIAAAAADCGhBAAAAAAYQkIJAAAAADCEhBIAAAAAYAgJJQAAAADAEBJKAAAAAIAhJJQAAAAAAENIKAEAAAAAhpBQAgAAAAAMIaEEAAAAABhCQgkAAAAAMISEEgAAAABgCAklAAAAAMAQEkoAAAAAgCEklAAAAAAAQ0goAQAAAACGDGz8x/Hjx70ZBwAAgM+7/fbbvR0CAPgUjlACAAAAAAwZ6FjgVzeg92o8y4Bx3D8cP36cvu4jGLu9B2dzAUBbHKEEAAAAABhCQgkAAAAAMISEEgAAAABgCAklAAAAAMAQEkoAAAAAgCEklAAAAAAAQ0goAQAAAACGkFACAAAAAAwhoQQAAAAAGEJCCQAAAAAwhIQSANplUe53TDJ9J1cWb4cCAADgg9xOKC175slkMrn3t7G4O2MG0BVHM5yM25GK+fpibT5QrvoeC6SjZK1YGSaTTKYM8WniOfWH0xRmMslkClPGUW9H08vYxw37DQCAljhCCUBSuYoPZmtN3EjFbizuwaQSPadeRQezZZkUpShZlPlaIf0MAAC6zO2E0rwgT1ar1eGvSjnzJSldRS0et8q6Nrr7IgbgEQm5VQ7jtk7VpTlaMVUqXrdJ+ZXeji5aqVarrNZU8WniIfVFKvi5RVGJWdr0Y7MsuwtVREYJAAC6qPuOUF4qVtby2RoXZjulbmT0YmW8UqaabtsgAOMCFDwpUauXJ0jKV3mbhLJeZa9kaHH0SNspsmHjNHt5lgpbnatqOzV+nnLbPN9+CmvT6a3FyjCFKWmvpL1J9tMwTQ6nFDo7Hbb5sXJLocPny0jFLMpSqbMPl88sKnwmRbMnhMlkMilswmyt2b1Zi7t6av6VMmXfHyZT2Gxtfs8xK6tR6e41mue4nx7JVdmV5ha2007DlHbYWTZXqs1RJpkW5Xv8s7LmQK42K0pJM6MVMzNZZkuG8g8624q9rzYWS/b9PNJkksmUpPzGzqgpU/7GxYq5tfnzffPONM0wmTRvj0OPuf1+kBz7t+xUvjIWxdi3O1Kzl2er9IokS7FyW2036z1n+9F1P7SI78OW75OR0YuV9W5Ny3bRaZKktGiHU8Ud42/xnrS911J+ka/SS677BgCAXs1q9+6771o7p8qaM19WKd1a1LqqPMeaaJZVavsXvaHIWtfJLQFw7d1333VvHBenWyVZE3Kr2lSVPBVllWKtu/7i+GidtWhDtNPxLHOiNae8uWVVboJVSrDmVLRec5E1XbJqfo61yrHs5C+92Gpt+nxpau/wmDnCGuHs86VFW6vVaj1nzbnP7DxuyaoNbT65nHASxzX7es1x1k2ljp9mHWxvarq1pKlpkTXdLKsW5lmrW22trjDVapbZmlro+lOyc5/Z1da8hbJq5i7rORcxNPXN1FhrbIv9bO/XT4qs6VPb2aet3lfuvx+s1ubvFOd/5umx1min78EV1v1/c1y3u/3QGJ/ZGjHaWfvmuG3tOnjPVeS1+53nzvvM7bELr6OfAKCtbjhCWaOCLauVa4nWitwSVV+znVJXV3FI6fFmFa9LULrTX+YBeM1n9So/kKY1W0qlWYmKHe1Qdypbq9cVyxyfrkMVdbZTZK9VqyR3haItuUpanq3yTm8wWqmNp83Pz1GVwynzqVNdPNVSp4gFOSr5mz2WunPKuc8s7c1T4YfNzcp3pyjpRYuiH85Ryd/s679Wp6qyXUrudLxNa1XuohglHZysTQfytHpSQKvtSXGPH9K5T6wt99PRNGUdaDziFa24VVHS7mzlnXFcd40KXsyQZdIazZseII+qLFDObiluQawiWsRQoML2jqAdLVfwKofXYs1T4oh6FT6eoLSjZsU9fkhVdfa6umqdez1VsR4J1qzYlQ79+7dDSp8qWQ4Xqnz6auWUVqvOapXVWq2iDdGSJUsFxc1HE93vh0YW1YUnOay3TudeSJRZ+co7bHtnmxfkyVqcLklKL3aY3vGbRJkllR/IUq4lVpnH6prq6qrPqSg3XQke7koAAHyN5xPK+hIVPmOR+cfp2rQgSsEDbQ8HjIhV6pZ0xcmi7D+UenyzADonPzGs+dQ9v0CNjMtQYVCy8rYl25MOm/LifBUrTulbUhU7wv6/44HBilqwSek/NksHClTck3Mu529WzpZERYXaYwmIUMJ9SZLyVd50/mG5CvcUSJM2Keu/ExUVan94YIDMY8e1eH3uK1f+ohlOk8mm7S3MUs6PYxUR1Li9YEUtWK2UuVL2waKm01ij5q5QnAqU9YrDZ+GZPGXvluJ+mKAoQ/F1EPnBHOUrTglfbX7lUTOTFKVsZe9r5+eAtTnK+5HDa5Ga5mE2vk5z4y4ICFZE5DgFeyLY1v0bGqvERbGSkpX1m01KnBQsW02wou9LUYKkqiuNP1J2rh9sErT5Bcf1BihifrKSJOV/6ObNYgKCJVWrvKrG4aEIRS9IVd6PmAUMAOjbPJ9QXrKoXFLMhHFq88Ps6HGKkWQ5Wc493QBfE5+p98t2KeGWlg9bLIWSYjRudOsnBGjchBg5n3PZswKGhLR6xCLLQUkJMZ5Jzj57Xzk/TNK83QFKzW2dTDpsb/c8hTi5JUvSK5Iu1TRfVXX0PCUvlEq35KnQ/mDpK1kqULKS442lu+2zJ1nzkzTbsQ8nxSppklSwt9D5EWY/J4/ZP98TZsZ4Jnl0U2CQLWGrb31yy8DWLTvZD+0JCFTrd1RHIuauUfrUUm2+J0ymW2M04zspStudr9JKzsYBAPR93DYE6Kear/JaZzt1cF+60vd0/uTVfuGVDK05FqhYc5myt2bZLhDTJcGKuy9VZkuGcg/USPWFyttSKvOPExUX6vrZnfJevrIOqs3Fj0ymyVrznqQDWcp/z8Pb7G+CopX6drXeL8xR5oLJCr5UqOxF8zQ5fJwWv8LPpwCAvs3zCWWoWRGS8otL2v4KfOZ9FUkyT4iQ2eMbBmBMgKLX5ijnPin3/hgltUoqzeZYSYUqOd36efV6/2SRpARFjLA/NDBAUrmqOnNly8+kOqOhtytAMkvy1NkQk1JVdPCQ9r+Sroh9axS3PLfVUT2zzDMl/eiQfR6ekz/7fLumCKfP05pJUvbOPBUfyFWGJUprvhPb9syOLio9mKOOJxmUKuegm9MQBgYoQFLRGTd/eDDyfuiSzvdDZ9V91k7FwIC6mv0AACAASURBVGBFTk/Uig2Zyit8X1XVh5Q6qVzZG1ztfwAAejfPJ5QBkxX7sFl6JkUpu0tVY//yra8sVMaqNBXIrOT/9PQMIQBdE6HEF4psSWVikjKONv8cFBGdoGgVKn15mgoaT+H7rEale9Yo7ecWaVacou0JpTlinMwqVU5ugSyNY//DQmUtSVOmk60GBEh6JU+FZzx9amCkoheapb2blL63TPWNsVhKlb9xk7I7u7pbxykiSAqYmqqC11MV8WKSkn5Y4JBURih2QZz0i8VK+kWhymuaX099TblKX8nS4u2t04ooxSZGSQfSlLA8W5q1QgmTDL3YDhSrYEuptGy/qp0mWLYLI5XmFrqX9JijFDtLsqxL1+ajjaeO1qvmw0JlbchWUevmnXw/dJ2RfnDTQNtvFAWvFzZ9rzUq/sU8ZewpbrE9DQxTxK3GNgUAQG/SDae8Bitu1WYlmsuVvWiyQvxsp1cFhs9Q2j6LojfkK83TVzAE4AERStyWr/SpxUqbm6zcxiumjk/W5g3RshzO0OzwQPtFfEI0OTFLxeZE5ThexOfLcVozVSr9xWyFNY79iBlKOVyuwDbbMytqepykfC2+NbDVfSi7KkCxSzYr0VyqrO+MU2BjLGGTNW9bUZeOiAbPTFdObqLKn5mtpI3FTWdiRCzMVM59dcp/ZIZGhjS/nsCQkZqckKLsS22TZtvFeSyyWKTkh+YZvFhQ++oP71emRVo9N7adOY9mxc5NkN7bpDy3rr4doaR16YpWgdZEhyjQZJLJFKiQiBlK2fd+2+adej94hpF+cMv4aCWbpdKNM5q+15ruQ1mfr7TEmBbbMw0Zp8V7zUr8SZLHL7IEAIAv6Z45lLckKudkkTKXxSnSfm5RxNRkpee/r4K10R4/pQuAhwRFK3VPjhKVq6ToJHtSGaDotYV6Pz9dyVPtKY85UnHLMnWoNEeJLS7iE6XV+4q0aUGk7bTC0dFK3pCn94/lOL1VR8TCHBU9laxo+8ViIqYmyBzkpKERtyQq+3COVsfbY7HHXHQyXyldXHXEgmwVbIlT+boEzf55Y1IZocQXymz7aXpk02mVEVOTtfpX+/X+MidX+xw9W8n3STKnKnGWpy9zU6+iAxmymFMV99X2P3XNM5OULIuyDxa5vliN7Edp397U/F5o7OPDmxXTpnXn3g+eYaAf3BEQq7RW76fY0bYrw0YvK1HeUyuU0LhPFKHo+SuUWViqnPlM8AAA9G0mq9VqlaTjx4/r9ttv93Y8AAw6fvy4JDGOXfkwV/MikqTcKuUt8PJ/9usLlRYxQ9kLD6n88c7Nn/S5z+w/pMn01QylF7txL1G0wNjtPXxu3AGAD+AqrwD6jfpLpcpet1r5ilJMpPePHNV048V4elL9hwVK+1GGpBWKGuvtaAAAQE9qcxcvAOgbipVhilGak5roDfla4fEL4HRWufJ2ZkuzdnXDxXi6UWWu5oUnKb9NhVmJuasV15M3qAQAAF7HEUoAfZRZEQtjFTu++UikT83lfi9fWQe652I83SrIrMnzY5vmvUpmRcbb5wsu6FWvBAAAeABHKAH0URFK/NUhJXo7jPZMWq0S62pvR9F5wbFK/U2sUr0dBwAA8AkcoQQAAAAAGEJCCQAAAAAwhIQSAAAAAGAICSUAAAAAwBCT1Wq1Ss03VgYAAIBzt99+u7dDAACfwhFKAAAAAIAhLW4bMmrUKJlMJlmtVpYsWfay5ZkzZxjH/Wh55swZjR492utxsOz68uzZs4zdXrJs7CsAQLMWRyhNJhNLlix76bKRt+NgSX+zNNaf3o6BZefGHgDApsURSqvV6q04AHgI47j/oK/7FvoTANAbDXTdpNmjjz7aXXEAcMOTTz7p7RAA+IBjx47pT3/6kyorK1VbW+vtcHzSoEGDNGLECN12222aMmWKt8MBgD6rzRFKk6ntvAFHO3bs6NEAAdgsXbpUUttx2pqrcUx936j3tXioN17fmbZVVVXKy8tTZWWl0LHa2lr9+c9/1p///Gf98Y9/1Ny5czV8+HCP9BUAoJlbcygB+A5X49PVOKa+b9T7WjzUd70/XbWtqqrSzp07SSYNqKio0K5du3ThwgWPjT0AgA1zKIFexJ0xyjjuP+jrvsVVf+bl5XF6axfU1tYqLy9PKSkp3g4FAPoU7kMJAICPe/fddzky6QGVlZV69913vR0GAPQpLRLKxl9H21sC8D5X49PVOGbZN5aNvB0HS8/1Z0dtTpw4IXhG477s6tgDANh06j6UALzP6Jwtln1r2cjbcbD0XH921Ob8+fOCZzTuy66OPQCADXMogV7EnTHKOO4/6Ou+paP+ZO6k59TW1jJ2AMCD2syhbO/XbwDe5+74dNWOcu8ut+bteCh7rj97zXfwA+u1Y8cOrX/Ay3HcvVJbd+zQ1lUzDT29q2MPAODiCCW/4AG+xdl8q47aUO6bZcf/5PpCPJQ9U/bcd/D9Wr9jmsJqT+vllVt10FmLn+3QNHOtTu9dqa1vGNyMu+5eqa3zx2pQB/F4Q1f7DgBg43QOZXtlAL6Do5OUKfetMt/BPcvTZwoAQH/FHEqgF2EOJRzR131Ln+3PN7ZqZXcfBe2kPruvAcALBrpqYDKZ+OAFfJS749NVO+p7d72vxUO95/qzJ7+DZ67aqnvHSKdfe1WXJ87W+PChGnSDpGu1qijao1/mvqNLrZ90wx26d9UcTbs11Nb281pVnTio7F8WqKKpkf0UXMsRLf3pC60ee0fZpwYpbuoYhQX5SZJq/35KB3c8o4KPWm4qdMq9um/uNI394iDbA9dqVWWplZ+kawZfs6fHHgD0Ry7vQ8kHKeBbXI1PV+OY+r5R72vxUN/1/vSN7+BBGvutBbrjZnsyKUl+gxR+5wLdd3fb1mFTkzVzTGhz2xsGKSxqjn64Ypp7m7vxDiXfPb4pmZSkQV8crzmL7tdYx3a33a+UB2Y2J5P2uMLCQ+UnY7o69gAANi2OUDbOD2i9BOA7XI1PV+OY+r5R72vxUN/1/vSZ7+Drl3T6rQIdKDyi0xqrOd9fqrgxg/Rvt82U3mh1SZ3aKp3640EdLDyi0x+Ha9r3EnXv9JEaOn667tURvexqWzdItRfe0cFXXlfBnyoUHpOs5MQ7FGYeo2k3Sqc/lqSxSp4/TWF+trYFL72qgx9ckm4er7iZ9ypuSpihl9nVsQcAsGEOJdCLuDNGGcf9B33dt/hGf9bq9G9THa78elqvHvhAd4yJUui/tE3cqt5br2deaixV6MhLTyr05kzFjfyiwr8u6XUXm7Mc0cqfvdBUrCjKVulXoxQ2cpCG3ibpDUmRd2nkjZIun9LLP8vWkcbGH51SwYczNdNAQukb+xoA+gbuQwn0Iu6OT3ePalHuneXWvB0PZc/1p09+B5fVdmqO4pGP/ylpkJzkn26pvdZqa8MDNUhSbdXp5mTSQ7o69gAA3IcS6FXcmc/jahxT7v1lx//k+kI8lD1T9tx38D9V92lH9aHyu0GSPtNnVwxuoqO1N05qvO75dXtSV/sOAGDDfSiBXoqjk5Qp962y576Dq1T7qaRBozR5tpPqyDiFh0r6/J+qOmpwE+0KVdSNoZIu6+9nPLTKK5/pM0mD/iVMoR5apeT5MwUAoL9iDiXQizCHEo7o677Fc/35jkr+Ol/jxw/VyFkZ+sHne7T/wClVKFRjvzpTc+6ZprAbJFWc1Ztd3NLgG+do2pgjOvLBJenmaVow79uaFi7p8l9V4qlk9ehZXUocr6HmO7TyB1V6Mf+gTmuspsXcpZl3jrWdDtvJVTJ2AMBz2tyH0mRqec+l1mWPuFKm3A1rlP5igcosUsTUTOUVr1CUZ7eCPqZ4o0kx69JVZE1VdOefrQxTjNI2FMm6tvPP9hXujk9X7Sj37nJr3o6Hsuf601PfwUd+/bruuOVejQ0KVdS3H1bUt1s1uFalI6/taXtfyU4aOjpO96+K0/0tHq3V6YN7PDjfsUD7j9+hH8SEKTTqXq2Mure56vOurbmrYw8A4OQ+lK3nc3j+g7RGBY/EKukXtmRSksqP1qjew1vpEUczZDKZlOHxU4YA59wZn67GMeXeX3bkC/FQ9kx/evQ7+OOD2vpktg6eqlKt4zVurtXq8kfvaM8v1uuFPxlbtaNLFRW67HB48Fp1hd7JzdDW17uaqrZ06vlMvXzU4bV8bn8d/+d0p49ONurq2AMA2Di9D2V7ZY+wFCpnu0VRP9qvgsfjZG5zjBSAO9obn740J4wyZcremENp9/E7evmZd1zfC9Lu4JaVOui05gWtX/pCy4eeX6+lz7sbiJPnO32sozgu6c3d6/Xm7rbt39zvbhwtdbXvAAA2PT+H8kq1LJLmJZBMAp3lzhjlV/T+g77uW+jPnsO+BgDPafc+lK2XHnE0Q6ZbF6tQUlq0SSaTqcUpo+V7UzTv6zEaaWqsG6mYRRnKP1XTakXFyjCZZNpYrJpT+cpYZH9O2DjNfiRf5Z+13XTNH7KUcs84hbm53tYse+a1iNWyZ55M0WlSq9di+k6uLAZ3T82pXK1pjDFsnGYvz1L2uhkymeYpt9Ihyo0mmUwZahNlZa7mOY2/RqW712he9EhbjGHjNPuRXJW1ulx859cr1bybrTXfaeyzMI27Z41yT3f9BGbL4c1a7Bjv8iwVVjhvW/9hgTYvmqFxYbY+GBm9WJv/0LpvHWJutZ+TNha0es+4/z5o8plFhc+kaPaEMJlMJoVNmK01uzdrcTvrMcrd8emqHfW9u741b8dDvef6s722gYGB7T4HnRMYGOixsQcA6OAIZeO/e/JXPMvpLOW3OM+lXMW70zRv935tKi3S6kmtnvBCkiavK1d50wrKVPCLeZo3pEhFa6MV0LiWPUmKSXRM9JrXm15cqNSpAfK2+qMZiotOa07mLGUq2J6iAklSQhfWXK7c+2OU9KJDmmspU8EvklTwdrlKDqcqyuDLb7tfLSrbt1lJ+4pUfqxQqV82tuI2622xL1qqP5qhWMf9Jqn8aLbWfHW/Sn5Tqpz55pZP2JagyHWWFuvOXTdbhVX7VbYtTsHGIlbuopb72HKqQJsXOYu4a1qPS2fj09U4pr731zv+J9cX4qHes/XO2g4fPlxnznjqPhz92/Dhw7vcVwCAZh3eh9LjpqbKWpwuSUovtjZNeE+daquOXtv8WONfXcV+rZ5UrE0HStuu74wU9dQhnfvE3v5vh5Q+VSpdt19NrWsKtHlVrixTVyintNq+3jpVFaYrzlystLnpKjRwQM28IM/pa7H+JlFmF89to75Q6XPTVGxO1K7SatU1vvbqczq0NrbzwTko352ipBeluMcd9tO1apXkrlD00TRlHWj/SF6HzmQrJTFXik/XofK6ptdfXZqjFVOLlbatQIbWbF9vy/6yqu5v72vXQ63aNu43e9um/VZxSOnxUu7jOWrzrgmKUUp+iarrGt8zJdp1n1mW7WnKfs/QnrDvY4uiH85Ryd8a93Gdqsp2KdnYKrvE3aNZ1PeNel+Lh3rj9R21HT9+fIfrgfva25dd7UsA6K+cXuW1vb+eUHO6QNnrUjTv6zM0I3qkAsNna/N7kqWiqm2CsiFHeT+KVUSQvRwaq8RFsZLKVG4/RbT+WKGyLGalPr5JiZMajz8FyDw9VZmPx0mWbBUbTCQ8pf7tAmVYpBW/ylbypOCmI6sBwREaF2nsmJlNuQr3FEgLs5TzY4f9NDBYUQtWK2WulH2wyFDiV344VwVKVtavUhV7S/ORyOBJiVq9PEHaXagiAyu2rTdKm7ZnOvSXFBAaqXHhLdva9ltz26b9NiJWqY8kS+/lqLB1396/RqlzoxTc2Dg0Ssnr0hWrUhWdLFfn2ffxpE3K+u9ERTXedXtggMxjxynCwBo74s74dDWO+esbf/R13/lzZ+xOnjxZw4cP9/AnSv8zfPhwTZ48uct9BQBo5p37UDpVroIfJmn2M+3MN7vk3q1FAoNaJmA1l8olxWjcrW1Pv4yIjJFUoJJyizS108cVPcYWY4JiJnj61FuLLAclaZ5CnFwZT5I039gtWyyWQknSvC9lt9MiQTVXpM6eQ2pbb7piWp/e7IRtv5VqTZRJa9ppU+/Oixs9TtGSMj60SJ1OAe37eENMj9xH1d3x6aod5d5dbs3b8VDumftQ3nPPPXruuedUV1fn9LnoWGBgoObMmdPisa6OPQCAV+5D6Vz94WwlP1Msc3y68krPqbq6WnXXrLJaq5Qzv0dCQH9VX6d6SeaB3p9L64o749PVOKbc+8uOfCEeyp7pT1dtzWazHnzwQY5UGjB8+HA9+OCDMpubfzzu6tgDANj0/H0o21FjKZNFCcr571Ql3OK59QaHRkjarKKT9Uoc0TJhKC8rkmTW5IjGL5gAySypqlo1cv/gWp2Tq8p2RkBQmKQ8vf+XemmE66QmYKBZUpWqXQZplnmmpEmHVPdUrFyt2f31SmZzrKQoHarbpFgP5mEBQVGSSlReKUWP6LitrW9jtesvh5Q8ugsbPV2qQknzxjcenezM+8De9mS5LIru/PzZLmhvfLoax5QpU/bNsjttw8LCtHTpUpWUlOjUqVM6f/48RyzbERgYqOHDh2v8+PGaPHlym/qu9h0AwKbn70PZnoEBkgq1/+1yJdwSoQBJ9ZfKVLhns7LflvRVY6sNmBKrFebNyvphiqL2blLypGBJ9bIc3qyUnxRI5lRFN51eGabImZK2ZytneYxWjA+W6mtUeiBL6evyncRsyyUKXi/UmqmxCjZ4X83gqBglKEsZP0lXzN40xY0IkOprVHY4W2nr8tX6Kq9ho2MlZSl7zwrFLItUsOpV816Bsh5PU8soIxS7IE5atFhJX9qlTQ/FKMI+ebC+plxlhwuUZYnRrmVRnVyvFDE9UXFarMX3h2nXU8mKucU+h7G+RuWnC1WwrUoxz67o9GmgkZPiZFaGVv8kW5Fbkm1zEq+Uq3hvltK2tWwb8NU4pZo3K23JGgVuWaOE8WYFDJT0Wb0sZ4pUuLdYAQtTleCYmFa8r7JLUYoMte2HmvdylbZsjUrNK5Qe3Zg6duZ9EKnohWbp55uUvjdKm+ZGKmCgVG8pVcHOTWrvhGCj3Bmj/Iref9DXfUtn+jMqKkpRUT1xon3fwFgBgO7j9n0ou/uXOfP0JK0wW5R7/0gFmmz3Ewz80jjNfvx91XXlsE9wnFZvSZT5TLYWR4XIZDLJZApUWGyaCizRSn8lzeEIm1mx81fIrHylTLC3DQzR5IRMlTo79jQ+WslmqXTjDIX4deE+lCMSlPZ4tHQ0Q7PDA5u2Oy5ujfKdXCXetq+k/OXjFGJ/PSFR85RZqjZRRizMVM59dcp/ZIZGhtjXbTIpMGSkJiekKPtSvaH1anSyMnMTVbd3jWZEhDT1mSkwRCOj5illp7G5mQHTk7X5PrMsLy7W5C/Z1zlkpGIW5as8qHXjWKW9kq6Iw5uVFBWmwMY+8AtUWOQMJa0raRvDzsUa96Xm/RASlaSso2YlblmtuMYL6nTqfRCg2CWblWguVdZ3xjXFEBg2WfO2FcnTxw3cHZ+u2rFkydJ3lo68HQtL9/sKAGDTJqFs/BWvvWW3CY1TZnGeVsdH2v7LPjpayRvy9H5ZjlJu7dqqIxbkqOztTK1oXLciFL0wXXknC9rcgzI4fpMKc1crbrQkmRUZv0KZhaU6tCGm7YoDYpV2OKc5ZnOkYkcHuzy11MmKFPXjApX8aoV9u1LE1GSl57+v919wcg/K0DhtOpyj1bNsp2iax8dpxX8fUunBdLWNMkKJL5Tp/fx0JU+PbEqHIqYma/Wv9uv9ZdEG12vfryfzlL4wVpGNKx4dreQf7dL+shWKdvIc1yKUuK1QOT+Ks6+zsa9KlHN/29YBU1NVVHVImcsSFN142qs5UnHLNimnOKvl0UlJUT/apMxlcU3xRsxaocy3y5SzoOXFeDr1PrglUdmt3gdxyzJVdDJfKYb2QfvcHZ+u2rFkydJ3lo68HQtL9/sKAGBjsto/JY8fP+5yov9Pf/pT7dixo0cCg41lzzyFJUo5FXlKdDGnED7mw1zNi0iScquUt6DrsyuXLl2qn/3sZ+3Wnz9/XpK4YEc/cf78efq6j2Ds9h7nz5/X7bff7u0wAMCn+M4cSqAPqb9Uqpx1q5WvKG2K9NyletwZo4zj/oO+7lvoTwBAb+Qzcyj7jmJlmOxz+dz4m7en0zMue5H+si/avs7AL03W4hctit6QpRVu3FPTXe6OT2/PM2LJkqWxeXnejoWl+30FALDxnTmUfUa0Uq22e1e58+eJUyF9V3/ZF2ZFLIxV7Pjm+BvnwBasjTYwp7Z97o5Pb88zYsmSpftLR96OhaX7fQUAsDF4owv0FPOCPFkXeDsKdCxCib86pERvhwEAAAD0MOZQAr2IO2OUcdx/0Nd9C/0JAOiNmEMJ9CLujk9vzzNiyZKlsXl53o6Fpft9BQCwYQ4l0Iu4Oz69Pc+IJUuW7i8deTsWlu73FQDApk1CCQAAAACAO9yeQ8npHoD3tTdGHcenq3FMfd+pd3XUxNfipb7jel+KhfrO1QNAf+bWHEqSScA3uDs+XbWjvu/V+1o81Ltf78jbsVDvfl8BAGza3DaEeQOA73J3fLpqR33frPe1eKh3r96XYqHe/b4CANgwhxIAAAAAYAj3oQR6EXfGKOO4/6Cv+xb6EwDQG3EfSqAXcXd8ujPHjiVLlr6xdOTtWFi631cAABvuQwn0Il2dM8eSJUvfWzrydiws3e8rAIANcygBAAAAAIa0O4fSZDK1KQPwrsYx2dH4dDWOKfedcuujJt6Oh7Ln+tPbsVDuuAwAaNbmtiGtE0cSScB3uDs+XbWj3DfKjf/J9ZV4KBsr+1IslPk/EAB0Vrv3oWyvDMB73B2frtpR7hvl1ktvx0PZWNmXYqHM/4EAoLPaJJSuLF26tDviAAAAAAD0Mm7fh9JkMik1NbXDelfPp5566rtW314bx9OyfCFO6num3tXRE1+Ll/qO630pFuo7Vw8A/Zlb96F0/M8q9dRT77v1vhIH9T1f72vxUN/5cesLsVDvfl8BAGzanUPZekk99dT7fr2vxEG9d+p9LR7q3av3pViod7+vAAA23IcSAAAAAGBIp+5DSZkyZd8tN/J2HJR7rtz66Im346Hsuf70diyUOy4DAJp1+j6UlClT9t2yr8RBuWfKjf/J9ZV4KBsr+1IslN3vKwCATYuEcuDATt9FBICPYRz3HwMGDPB2CPAgxi4AoDdq8e1lsVi8FQcAD2Ec9x/0dd9CfwIAeiMuygMAAAAAMKTFEcrx48d7Kw4AXXTq1ClJjOP+4tSpU/R1H8HY7T0a+woA0IwjlAAAAAAAQ0goAQAAAACGdHjbkNaXo3/44Yd7JioATj3zzDNN/3Z2u4hGHY1jyn2n7Oy2IZR7X9mRu88tLi5WSUmJKioqdPXqVaGtwYMHKzw8XJMnT1Z0dLTH+woAYNMmoWz9gdm6vGPHju6NCIBTS5cudTk+23ucct8st156Ox7KxsqdaVtRUaFf//rX+uijj9pdB2yuXr2q06dP6/Tp0zpy5Ii++93vasSIES3adKWvAAA2LRJKbuAL+DZ3xijjuP+gr/sWV/1ZWVmprKwsjkga8NFHHykrK0spKSltkkoAQNe0mEPZ3q/e/EIH+A53j06x7NvLRt6Og6Xn+tNVm5deeolksguuXr2ql156yWNjDwBg0yKhdJyX42wJwPtcjU9X45hl31g28nYcLD3Xnx21KS4u5jRXD/joo4909OhRSV0fewAAG45QAr0MR6xYOvJ2HCw9158dtSkpKRE8o3FfdnXsAQBsOEIJ9DIcsWLpyNtxsPRcf3bUpqKiQvCMxn3Z1bEHALDhPpQAAPg45k56DvsSADyrTULJL3OA7+KoFUuWfW/pqNd89z6wXjt27ND6B7wcx90rtXXHDm1dNbNTT/NEXwEAbNq9DyVzBwDfw7w6liz73tKRZ75779f6HdMUVntaL6/cqoPOWvxsh6aZa3V670ptfcPAJjrj7pXaOn+sBnUQT0/zRF8BAGzaJJSOv8JZrVZ+lQN8iLvjs6N2lPtO2WQy+VQ8lI2VHfEd3DOMjh0AQFvtHqFs/BBtXQbgPe6OT1ftKPeNcuult+OhbKzsqL22vdobW7Wyu4+CGtSVvgIA2LRIKFt/YPIBCvgWxzHZ3vh0NY4p952ys/eAL8VHuWv92dPfwTNXbdW9Y6TTr72qyxNna3z4UA26QdK1WlUU7dEvc9/RpdZPuuEO3btqjqbdGmpr+3mtqk4cVPYvC9R8XVr7KbiWI1r60xdaPfaOsk8NUtzUMQoL8pMk1f79lA7ueEYFrW67GTrlXt03d5rGfnGQ7YFrtaqy1MpP0jUDr7erfQcAsOE+lEAv42p8uhrHLPvGspG342Dpuf70je/gQRr7rQW642Z7MilJfoMUfucC3Xd329ZhU5M1c0xoc9sbBiksao5+uGKae5u78Q4l3z2+KZmUpEFfHK85i+7XWMd2t92vlAdmNieT9rjCwkPlJ2O6OvYAADZOj1C2twTgfa7Gp6txzLJvLBt5Ow6WnutPn/kOvn5Jp98q0IHCIzqtsZrz/aWKGzNI/3bbTOmNVpfUqa3SqT8e1MHCIzr9cbimfS9R904fqaHjp+teHdHLrrZ1g1R74R0dfOV1FfypQuExyUpOvENh5jGadqN0+mNJGqvk+dMU5mdrW/DSqzr4wSXp5vGKm3mv4qaEGXqZXR17AAAb7kMJAADsanX6t6na+tIRWzL38Wm9euADXZI06F/aJm5V763XM41tVaEjLz2pN89dk274osK/7sbmLEe08mfZKviT7QTZiqJslVZckzRIQ2+zt4m8SyNvlHT5lF7+WbYtmZSkj06p4MN/GjrdFQDgOe0mlO39Cg7A+9wdn67aUe7d5da8HQ9lz/WnT33nltV2Kmk78vE/JQ2Sk/zTLbXXWm1tId2dMQAAIABJREFUeKAGSaqtOq0jxlbZhqfHHgD0Z+0mlO3N0wHgfe6OT1ftKPfucmvejoey5/qza9+5/1Tdpx3Vh8rvBkn6TJ9d6cJm2lt746TG655ft6d4euwBQH/WJqFk7gDgu9wdn96eD8aSJUv3l448891bpdpPJQ0apcmznVRHxik8VNLn/1TVUQOr71Coom4MlXRZfz/joVVe+UyfyXbKbaiHVumJvgIA2LRJKLm6GeC73B2f3r5iJUuWLN1fOvLMd+87KvnrZUl+GjkrQz+YNV7hkqRQjf3qAj26aJrCbpB0/qzeNLB2R4NvnKNpY+xp3s3TtGDVo5oWLunyX1XiqWT16Fld+lSS+Q6t/MFMjb1R0o1jNe3bP9D62WM1yNXznfBEXwEAbDq8D2W3uVKm3A1rlP5igcosUsTUTOUVr1BUz2wd6LXcGaP8kt5/0Nd9iyf788ivX9cdt9yrsUGhivr2w4r6dqsG16p05LU9be8r2UlDR8fp/lVxur/Fo7U6fXCPx+Y7SgXaf/wO/SAmTKFR92pl1L3NVZ8bWyNjBwA8p0VC2TO/wNWo4JFYJW23ND1SfrRG9T2wZY87miFTdJrSi61KnertYNAfuDNG+SW9/6Cv+xaP9ufHB7X1yX/q3u/GadqYMA1qnNd4rVaXL5zS/pxsvflR1zdzqaJC/l8M11D7YcJr1RUqPfBLZb/V1VS1pVPPZ+rlG1I053b7a/m8VpcrTmn/iaGac89Yl89vjbEDAJ7T80coLYXK2W5R1I/2q+DxOJkHun4KABuOUMIRfd23eLw/P35HLz/zjut7Qdod3LJSB53WvKD1S19o+dDz67X0eXcDcfJ8p491FMclvbl7vd7c3bb9m/vdjaMZYwcA/l979x8T13nne/xzUkcCJ5sFlVSDsONAHSUgJ9fYm4gZq9o1riMVXycNJNUabt0keEVj2EgJbqIG4iYO+KqJ3agNpPXWxK0joHdT6HZ7PZHietwrr8FNYuM2lnGzbmZb7DLqegXNpsDK2XD/GAaG+cGcmTnmnBneLwk9+eY5nPnOPHzBz5x5zmOdeWsoI9+xuybv4H00poCkmmomk0A64tVnojomJiZ2Zrwof4MxK92xAwAEzZtQRr5jZ/k7eKfaZdy2Qz5JrW5DhhH8ap9ZuO9/o0k193pUYoT6SuR5tF3958YjTjSodsOQ8cKgxs/1q/3Rme8pLNOWp/rl/zj6ocf/pVNN95Wp0OR5IwV6a+blGuitkeFulSKei/GlHgWivtuc8XM92hXKsbBMW3Z2qmv3JhlGjXouhWX5giHDaFdUlpd6VBMz/3ENHdqlGndJMMfCMm15qkfDEbeLT/680vi7Xdr1pdCYFarsvl3quZD+B5hNnfdU++yYBI53qqlq5vlt71dAoTGrUc+/jWv4J+2qu7NQhmGo8H8PzT1Osj8XAZ86d26ZyatO/akOtgXi1WeiOiYmJnZmvFDfDTfcIFgj9FqmO3YAgCBHXSMMXOhU/7zPufg1eKhVNYeOaN/QgJrXRnzD4Tqt2+2Xf/YEw/K+VKOavxjQwLNu5YTO0lsnT234RG/uvG2DPrVU5MhuU6faVeVunZvMBYbl/W6TvJKk6jTO7FfPdo/qXg+b+QSG5X2pTt4Tfp053qLyFJ9+9Osa0PDP9qvuZwPyv+NTy1+lduJkz3vkmU3qOO6bO34qfOLpV9ej6+Q7PvtTosDHU3EeJ8HPhbdVm171yTf3QJqK8eYFAFjtlltu0fDwsN1pZIVbbrnF7hQAIKtEbRsSck3emato0fRgmySpbXBa09PBr9ANbdzPzv2/0NfkyBE1rx3UvjeHos93USp/8Zg++M+Z4//9mNoqpKHdRzR79LhX+5/sUaCiUd1DYzPnndSor01VrkG1PtAmXwoX1Fzb+mI+l+l/rJUr2ZNN+dT2QKsGXbU6ODSmydBzH/tAx56tTD65MP5DTap7XaraG/Y6XR3TmZ5GuU+1qvPNyKtxJl3sUlNtj7S1Tcf8k7PPf2yoW40Vg2p91auUzpzCeQdH8rTL94Emr8YagyGdV7W6w17X6Wfdqf1cnPIr78mw13G6T7UrUnmS6TNbn066+kJsfRzJ7nyIrRvPyL7169fHPRbJWb9+PVcnAcBCcSeUdq0dGL/gVdfuJtXcu0mb3CXKXblF+89KgZHR6AnKnm71fa1SxTfOxAWVqn20UtKw/DMfEZ16x6fOgEste/epdm3ezIE5cm1sUcfeKinQpcGzi/LU4po64VV7QGp8rUv1a/Nmr6zm5BWrrDRvwe9dmF++Xq/0SKe6vx72Oi3LU/m2ZjU9IHUdHUhp4uc/3iOv6tX5Wosqb527kpe3tlbNO6ulQz4NpHDiVM7bcqhPzRuLlRPzenu19r8WHPvw640p/Vw8G/HzZiOz9emk9WHE1seR7M6H2LrxjOxzu91atWpV3ONhzqpVq+R2u1k/CQAWsmcfypj88j5epy2vRK/TkyRdMbe1SO6N8ydg41f8kjwquy3645fFpR5JXp3xB6SKpK8rWiaYY7U8d1r90duAAkclqUb5Me6MJ0l6KLUtWwIBnySp5uauOEdUa/wjSUnOh1M5b26iD27H6E/p5+L6qEMXnZka5Z30pYOxzi6JxrOurk7f/va39ec//3mRMsouN9xwg+rq6qgbALCYDftQxjZ1vEv1rwzKtbVNnXtqVXlrvnJuzFPOsoB6vlSoOtsyA5zDTI3yTvrSwVhnl0TjWVRUpMcff1w9PT363e8s2ERyCVm1apVqa2tVVFRE3QCAxRxzhXI8MKyAqtX9nRZV32rdefMKiiXt18B7U6pdMf9qlH94QJJL64pDV6FyJJek0TGNy/zFtck0b8ySc2OhpD6d/9cpaUXiq5Q5y1ySRjWWMEmXXJslrT2myRcrlejM5s8ruVyVksp1bHKfKi28sHqtzhspuZ8L5+AKJcIx1tnFzHiuXLlSTz/9tAYGBnT69Gn9/ve/54plHDfccINuueUWrV+/Xh6Px+50ACBrRV2hNAwjbnttM8mR5NORE35V31qsHElTV4bl692vrhOSPpfaaXPurlSja786H29S+Rv7VL82T9KUAsf3q+kZr+RqkXv27rGFKt0s6btd6t7pUeOaPGlqXENvdqptd3+MnIPzT+9bPu2qqFReivfMzSv3qFqdan+mTZ43WlW1IkeaGtfw8S617u5X5F1eC1dXSupUV2+jPI+VKk9TGj/rVefeVs3PsliV26qkR3eo7uaD2vd3HhXnBSdPU+N+DR/3qjPg0cHHypM8r1S8sVZV2qEd2wt18MV6eW6dWaM4NS7/BZ+8r47K8w+NKk/ytbhW542U3M+FsySqz0R1TJsdLeOdPW0qY+nxeOR2u23PPVNaq2oFABAt5j6U8dprybWxTo2ugHq2lyjXCO7pmHtzmbbsPa/JdC4U5VWp+Vu1cl3s0o7yfBmGIcPIVWFlq7wBt9p+0hp2Jcylyoca5VK/mu6cOTY3X+uqOzQU696ta9yqd0lDL2xS/vVp7EO5olqte93SqXZtWZk7+7hlVbvUfzH68OBrJfXvLFP+zPPJL69Rx5Cisix+pEPdX55U/1ObVJI/c27DUG5+idZVN6nrylRK59XqenX01GryjV3aVJw/O2ZGbr5KymvU9P3U1mZes/NGSurnwlkS1WeiOqbNjjbE7jxorRtPu3OgTa72AABB8yaUke++Leq7cQVV6hjsU/PW0uDkZbVb9Xv6dH64W023pXfq4m3dGj7RocbQuVUs9yNt6nvPG7XXYN7WffL1NKtqtSS5VLq1UR2+IR3bE+PjMjmVaj3ePZezq1SVq/MSfrQ0xolU/nWvzrzWOPO4UnFFvdr6z+v84Rh7UBZUad/xbjV/oViS5FpTpcbvHNPQ0TZFZ1ms2sPDOt/fpvqNpbMTw+KKejW/dkTnH3OneN6Z1/W9PrU9UqnS0IlXu1X/tYM6Mtwod4zvMeNanTfm45j8uXCiePWZqI6JiYmdGTspF2Lu9AoAZhnTM78hT58+rbVrF/6M386dO3XgwIFFSQxBgd4aFdZK3SP27XkIZ2hoaNCrr74at//s2eA+J4nqGNnh7NmzjHWWoHYzx9mzZ9kTFAAixN2HEgAAAACAhURNKFk7kK5BtRsz6/5MfNX0Jr3iMoPwWljNbH3avcaIlpY2tTV5dudCa36sAABBUfclDb8bWqwWibjVMj2tFrvTcAReC6uZrc9Ex9HS0jqnDWd3LrTmxwoAEBQ1oQx/F256epp35Wzm2tan6W12ZwGnMFufCx1HnD2xYcTfRoQ4c+JwdudCbH6sAABBUR95nZ6envdLMzIGYB+z9ZnoOOLMjyNbu/MhTj0OZ3cuxPwbCACSNe8KZeTVDq5OAs4SXpNmrk4SZ3cc62fASfkRpzeexM6OAQBBMfehjNcCsF+i+kxUx7TZ0YbYnQetdeNpdw60ydUeACBo3oQy9O5bvBaA/RLVZ6I6ps2ONsTuPGitG0+7c6BNrvYAAEHsQwkAAAAASAn7UAIZhKtWtLTZ14azOxda82MFAAiKeZfXhVoA9mFdHS1t9rXh7M6F1vxYAQCCuEIJZBCz9Wn3u/i0tLSpXfWyOxda82MFAAjiCiWQQczWp93v4tPS0qZ21cvuXGjNjxUAIGjBfSgBOIuZGqWOlw7GOrswngCATDRvQhn+DpxhGFExAHuFanKh+kxUx8TZE0deNbE7H2LrxtPuXIgXjgEAcxa8QskkEnCW8JqMV5+J6pg4e+JYPwNOyo84vfEkdnYMAAhiH0oAAAAAQEqYUAIAAAAAUsKEEgAAAACQkmXxOmItSJekhoaGa58VgAXFq08zxxFnTxzJ7nyIrRtPu3Mh5qY8AGBW3All5C/O6elpfe9737vmCQFILFZ9pnIccWbHkezOh9i68bQ7F+Lkag8AljL2oQSyDHW8dDDW2YXxBABkorj7UALITNTx0sFYZxfGEwCQibhCCWQZ6njpYKyzC+MJAMhE8+7yGnp3lJaWNvPaELvzoGW8aVMbT7tzoE2u9gAAQfMmlKF3R2lpaTOvDbE7D1rGmza18bQ7B9rkag8AEDTvI6+ffPKJXXkAsAh1vHQw1tmF8XQ2rlACQGzG9MxvyNOnT9udCwAAgKOtX7/e7hQAwFGuS3wIAAAAAADR5n3k9bOf/awMw9D09DQtLW2GtRcvXqSOl1B78eJFrV692vY8aNNvf/vb31K7GdKGxgoAMIeb8tDSZkkbYncetIw3bWrjaXcOtMnVHgAgaN4VyulpFpwDmY46XjoY6+zCeAIAMtGyxIfMefrpp69VHgBM+OY3v2l3CgAc4J133tGvf/1rXbp0SRMTE3an40jLly/XihUrdNddd+nuu++2Ox0AyFpRVygNI3rdQLgDBw4saoIAghoaGiRF12mkRHVMf3b0Oy0f+lPvT+bY0dFR9fX16dKlS8LCJiYm9P777+v999/XL3/5Sz3wwAMqKiqyZKwAAHNMraEE4ByJ6jNRHdOfHf1Oy4f+9Mcz0bGjo6P6/ve/z2QyBSMjIzp48KD+8Ic/WFZ7AIAg1lACGcRMjVLHSwdjnV0SjWdfXx8fb03DxMSE+vr61NTUZHcqAJBV2IcSAACHe/fdd7kyaYFLly7p3XfftTsNAMgq8yaUoXdH47UA7JeoPhPVMW12tCF250Fr3XgudMyvfvUrwRqh1zLd2gMABCW1DyUA+6W6Zos2u9oQu/OgtW48Fzrm8uXLgjVCr2W6tQcACGINJZBBzNQodbx0MNbZZaHxZO2kdSYmJqgdALBQ1BrKeO9+A7Cf2fpMdBxxZseR7M6H2LrxzJi/wV95TgcOHNBzX7E5j88/oZcPHNDLT25O6dvTrT0AQIIrlLyDBzhLrPVWCx1DnJ1x+D9ynZAPsTWxdX+Dt+u5AxtUOHFBP37iZR2NdcTzB7TBNaELbzyhl3+e4sOY9fkn9PJDd2j5AvnYId2xAwAExVxDGS8G4BxcnSQmzq6Yv8GLy+pPCgDAUsUaSiCDsIYS4Rjr7JK14/nzl/XEtb4KmqSsfa0BwAbLEh1gGAa/eAGHMlufiY6jP7P7nZYP/daN52L+Dd785Mt68Hbpwj//VB/+jy1as/ImLb9O0tUJjQz06ns9b+tK5Dddd48efPJ+bbitIHjsJxMa/dVRdX3Pq5HZg2Y+ghs4qYZvHI74f2+r69xyVVXcrsIbr5ckTfzHOR098Iq8v5v/UAV3P6gvP7BBd3x6efB/XJ3QaGBC10u6muJztrr2AGApSrgPJb9IAWdJVJ+J6pj+7Oh3Wj70pz+ezvgbvFx3/M9tumfVzGRSkq5frpV/vU1f/nz00YUV9dp8e8HcsdctV2H5/Xq8cYO5h/vMPar//JrZyaQkLf/0Gt3/6HbdEX7cXdvV9JXNc5PJmbwKVxboeqUm3doDAATNu0IZWh8Q2QJwjkT1maiO6c+OfqflQ3/64+mYv8H/fUUX/p9Xb/pO6oLu0P3/q0FVty/XLXdtln4ecUudiVGd++VRHfWd1IU/rtSGv63VgxtLdNOajXpQJ/XjRI91nTTxh7d19CdvyfvrEa301Ku+9h4Vum7Xhs9IF/4oSXeo/qENKrw+eKz3Rz/V0d9ckVatUdXmB1V1d2FKTzPd2gMABLGGEsggZmqUOl46GOvs4ozxnNCFf2oJu/PrBf30zd/ontvLVfCX0RO30bPP6ZUfhaIRnfzRN1WwqkNVJZ/WynslvZXg4QIn9cTzh2fDkYEuDX2uXIUly3XTXZJ+Lqn0b1TyGUkfntOPn+/SydDBvzsn779t1uYUJpTOeK0BIDuwDyWQQczWp9mrWsSZGUeyOx9i68bTkX+DhyeSWqN48o9/krRcMeafpkxcjXi0olwtlzQxemFuMmmRdGsPAMA+lEBGMbOeJ1EdE2d+HP6PXCfkQ2xNbN3f4D9p8r8W6i/Q9ddJ0sf6+KMUH2Khs4cWNf639ee2UrpjBwAIYh9KIENxdZKYOLti6/4Gj2rivyQt/6zWbYnRXVqllQWSPvmTRk+l+BBxFaj8MwWSPtR/XLTolB99rI8lLf/LQhVYdErJ+k8KAMBSxRpKIIOwhhLhGOvsYt14vq0zv39Ia9bcpJIvtOurn/TqyJvnNKIC3fG5zbr/vg0qvE7SyG/1izQf6YbP3K8Nt5/Uyd9ckVZt0LaaL2rDSkkf/l5nrJqsnvqtrtSu0U2ue/TEV0f1ev9RXdAd2uD5G23+6zuCH4dN8pTUDgBYJ2ofSsOYv+dSZGyJj4bVs2eX2l73ajggFVd0qG+wUeXWPgqWsiuD2v9UszoPDcovl0of65Lv1Sq57M4rTWbrM9FxxJkdR7I7H2LrxtOqv8En/89buufWB3XHjQUq/+Lfq/yLEQdcHdXJf+6N3lcySTetrtL2J6u0fd7/ndCFo70Wrnf06sjpe/RVT6EKyh/UE+UPznV9kt6Z0609AECMfSgj13NY/4t0XN6nKlX3UnAyKUn+U+OasvhRFsWpdhmGoXbLPzK0hF3qUY1hyPhSjwIpn2RI+7d6tOvQoPySpICGr4xblaGtzNRnojomzvw4nBPyIbZmPC39G/zHo3r5m106em5UE+H3uLk6oQ9/97Z6X3pOh3+d2qnDXRkZ0Ydhlwevjo3o7Z52vfxWulPV+c79sEM/PhX2XD6ZeR7/90LSVydD0q09AEBQzH0o48WWCPjU/d2Ayr92RN69VXJFXSMF0vSuV/tOSdWvnlfXY6XKszufayRefTppTRgxMbEdayhn/PFt/fiVtxPvBTnj6Lee0NGYPYf1XMPh+f/rh8+p4YdmE4nx/TH/30J5XNEvDj2nXxyKPv4XR8zmMV+6YwcACFr8NZQfjSkgqaaaySRiWFGrvunatE4xNTamgKpVszX7JpNmapR30ZcOxjq7MJ6Lh9caAKwTdx/KyNYSp9pl3LZDPkmtbkOGYcz7yKj/jSbV3OtRiRHqK5Hn0Xb1n4v8uOKg2g1DxguDGj/Xr/ZHZ76nsExbnuqX/+Pohx7/l0413VemQpPnjRTorZmXa6C3Roa7VYp4Lul8VHP8XI92hXIsLNOWnZ3q2r1JhlGjnkthWb5gyDDaFZVl6OOiUfmPa+jQLtW4S4I5FpZpy1M9Go64XXzy55XG3+3Sri+FxqxQZfftUs+FdD7AHGsMzI93oLdGufful9SvupWhcQl7/T4aVv8LO+S5LdhXeOcWNb3iUyDGz4wTma3PRMfRn9n9kezOh37rxjPesbm5uXG/B8nJzc21rPYAAAtcoQz992K+ixe40Kn+eZ9z8WvwUKtqDh3RvqEBNa+N+IbDdVq32z+zTk5SYFjel2pU8xcDGnjWrZzQWXrr5KkNn+jNnbdt0KeWihzZbepUu6rcrXOTucCwvN9tkleSVJ3Gmf3q2e5R3eth09zAsLwv1cl7wq8zx1tUnuLTj35dAxr+2X7V/WxA/nd8avkri19Xk+Md10eDat/sUWvYmtfAOa86H/eq751uDRyuVbG1GVsusi5j1WeiOqY/8/vD/5HrhHzot7Y/1rFFRUW6eNGqfTiWtqKiorTHCgAwZ8F9KC1X0aLpwTZJUtvg9OyC95aKYLf72bn/F/qaHDmi5rWD2vfmUPT5LkrlLx7TB/85c/y/H1NbhTS0+4hmjx73av+TPQpUNKp7aGzmvJMa9bWpyjWo1gfa5EvhgpprW1/M5zL9j7XJ30l0yqe2B1o16KrVwaExTYae+9gHOvZsZfLJhfEfalLd61LV3rDX6eqYzvQ0yn2qVZ1vpnizmotdaqrtkba26Zh/cvb5jw11q7FiUK2vemX5bXBMjLdrW59Ge6olVat7JDQufapdIQ0falbrKZeq9h7T6GToHGfU/fduBV6vU9Mh/0KPnjHMXs2iPzv6nZYP/an3L3TsmjVrFjwPzIv3WqY7lgCwVMW8y2u8r8UwfsGrrt1Nqrl3kza5S5S7cov2n5UCI6PRE5Q93er7WqWKb5yJCypV+2ilpGH5Zz7iOPWOT50Bl1r27lPt2tCKuhy5NraoY2+VFOjS4NlFeWpxTZ3wqj0gNb7Wpfq1ebNX2nLyilVWms4qQL98vV7pkU51fz3sdVqWp/JtzWp6QOo6OpDSxM9/vEde1avztRZV3jp3bTBvba2ad1ZLh3wasHpGaWK8F8hYAz8blL7Qpo6vV8oVSrmgXLUvtqnFJXnfHEzjzrKLw0x9JqpjvrLji7HOni8ztbtu3ToVFRUt+u+cbFNUVKR169alPVYAgDn27EMZk1/ex+u05ZXodXqSpCvmthbJvXH+BGz8il+SR2W3RX8gsrjUI8mrM/6AVGHfDoXBHKvludPqj94GFDgqSTXKj3FnPEnSQ6lt2RII+CRJNTd3xTmiWuMfSdf6rjiR4x3fzGuxpyz6Y605ZSr7nKQ3gh+ndfJelWbrM9FxxJkdR7I7H+LF2Yfyvvvu0w9+8ANNTk7G/F4sLDc3V/fff/+8/5du7QEAbNmHMrap412qf2VQrq1t6hv6QGNjY5q8Oq3p6VF1P7QoKQCOZ6Y+E9UxcebH4ZyQD7E145noWJfLpYcffpgrlSkoKirSww8/LJdr7i3DdGsPABC0+PtQxjEeGFZA1er+Touqb7XuvHkFxZL2a+C9KdWumH8F0D88IMmldcWhPzA5wctTo2Mal/mLa5Np3iE058ZCSX06/69T0orEVylzlrkkjWosYZIuuTZLWntMky9WJrxpjfnzSi5XpaRyHZvcp0r772lkwsxrceKMhuVWaXjX1HmdPyHpoWLH35QnXLz6TFTHxMTEzozNHFtYWKiGhgadOXNG586d0+XLl7liGUdubq6Kioq0Zs0arVu3Lqo/3bEDAAQt/j6U8SzLkeTTkRN+Vd9arBxJU1eG5evdr64Tkj6X2mlz7q5Uo2u/Oh9vUvkb+1S/Nk/SlALH96vpGa/kapF79u6xhSrdLOm7Xere6VHjmjxpalxDb3aqbXd/jJyD80/vWz7tqqhUXor7auaVe1StTrU/0ybPG62qWpEjTY1r+HiXWnf3K/Iur4WrKyV1qqu3UZ7HSpWnKY2f9apzb6vmZ1msym1V0qM7VHfzQe37O4+K84Kzv6lxv4aPe9UZ8OjgY+VJnlcq3lirKu3Qju2FOvhivTy3zqz9nBqX/4JP3ldH5fmHRpWn9pJcA8XybHVLj7epaXexup+pCq6jvDKknj2tag9IVV9wO/rjrpK5GuVd9KWDsc4uyYxneXm5ysud8xvW6agVALh2TO9Dea3fmXNtrFOjK6Ce7SXKNYJ7BObeXKYte89rMp1/5edVqflbtXJd7NKO8nwZhiHDyFVhZau8AbfaftIadoXNpcqHGuVSv5runDk2N1/rqjs0FGuqscatepc09MIm5V+fxj6UK6rVutctnWrXlpW5s49bVrVL/THuEh98raT+nWXKn3k++eU16hiKXv9X/EiHur88qf6nNqkkf+bchqHc/BKtq25S15WplM6r1fXq6KnV5Bu7tKk4f3bMjNx8lZTXqOn7qa3NvJZKH9mvtoqAfC9sUWHuTL43r1PdK4NyfblbHY84//qk2fpMdBwtLa1z2nB250JrfqwAAEFRE8rQu3jx2mumoEodg31q3loanLysdqt+T5/OD3er6bb0Tl28rVvDJzrUGDq3iuV+pE1973mj9qDM27pPvp5mVa2WJJdKtzaqwzekY3s80SfOqVTr8e65nF2lqlydl3g/xOgTqfzrXp15rXHmcaXiinq19Z/X+cMx9qAsqNK+491q/kJwAuRaU6XG7xzT0NE2RWdZrNrDwzrf36b6jaWzE8Piino1v3ZE5x9zp3jemdf1vT61PVKp0tCJV7tV/7WDOjLcKHeM77HVjW61HD2vvj31cs+8zrPP8TXn70Epma/PRMfR0tI6pw1ndy605scKABBkTM/8ljx9+nTChf7f+MY3dODAgUVJDEGB3hoV1krdI8El58pyAAADqElEQVS9FLF0NTQ06Pnnn4/bf/nyZUnihh1LxOXLlxnrLEHtZo7Lly9r/fr1dqcBAI7inDWUABIyU6PU8dLBWGcXxhMAkIkcs4Yyewyq3ZhZn2fiq6Y36RWXGYTXwmpm69PudUa0tLSprcuzOxda82MFAAiKui8p6wfS5VbL9LRa7E7DEXgtrGa2Pu1eZ0RLS2u+DWd3LrTmxwoAEJTiRhdYLK5tfZreZncWAAAAABCNNZRABjFTo9Tx0sFYZxfGEwCQiVhDCWQQs/Vp9zojWlra1Nbl2Z0LrfmxAgAEOWcfSgAJma1Pu9cZ0dLSmm/D2Z0LrfmxAgAERU0oAQAAAAAww/QaSj7uAdgvXo2G12eiOqY/e/oTXTVxWr70L9zvpFzoT64fAJYyU2somUwCzmC2PhMdR3/29TstH/rN94ezOxf6zY8VACDI9D6UAOxntj4THUd/dvY7LR/6zfU7KRf6zY8VACCINZQAAAAAgJSwDyWQQczUKHW8dDDW2YXxBABkIvahBDKI2fo0s8aOlpbWGW04u3OhNT9WAIAg9qEEMki6a+ZoaWmd14azOxda82MFAAhiDSUAAAAAICVx11AahhEVA7BXqCYXqs9EdUycPXHkVRO78yG2bjztzoV44RgAMCdq25DIiSMTScA5zNZnouOIsyMO/SPXKfkQpxY7KRdi/g0EAMmKuw9lvBiAfczWZ6LjiLMjjmztzoc4tdhJuRDzbyAASFbUhDKRhoaGa5EHAAAAACDDmN6H0jAMtbS0LNif6Pvpp5/+9PrjHRP+sSwn5En/4vQnunritHzpX7jfSbnQn1w/ACxlpvahDP/HKv300+/cfqfkQf/i9zstH/qTr1sn5EK/+bECAATFXUMZ2dJPP/3O73dKHvTb0++0fOg31++kXOg3P1YAgCD2oQQAAAAApCSpfSiJiYmdG4fYnQfx4sWRV0/szofYuvG0OxfihWMAwJyk96EkJiZ2buyUPIgXJw79I9cp+RCnFjspF2LzYwUACJo3oVy2LOldRAA4DHW8dHzqU5+yOwVYiNoFAGSieX+9AoGAXXkAsAh1vHQw1tmF8QQAZCJuygMAAAAASIkxzSpzAAAAAEAKuEIJAAAAAEgJE0oAAAAAQEqYUAIAAAAAUsKEEgAAAACQEiaUAAAAAICUMKEEAAAAAKSECSUAAAAAICVMKAEAAAAAKWFCCQAAAABICRNKAAAAAEBKmFACAAAAAFLChBIAAAAAkJL/D4eEFQs3cuNfAAAAAElFTkSuQmCC;" vertex="1" parent="1">
          <mxGeometry x="17.43" y="420" width="495.14" height="220" as="geometry" />
        </mxCell>
        <mxCell id="Cswv2nj_MvUbv_Mwxv9R-29" value="示例: 一个fanout 交换机绑定是哪个队列。" style="text;html=1;strokeColor=none;fillColor=none;align=center;verticalAlign=middle;whiteSpace=wrap;rounded=0;fontFamily=Comic Sans MS;fontSize=1;fontColor=#FF0000;fontStyle=1" vertex="1" parent="1">
          <mxGeometry x="10" y="360" width="263" height="30" as="geometry" />
        </mxCell>
      </root>
    </mxGraphModel>
  </diagram>
</mxfile>
